<mxfile host="Electron" modified="2023-09-26T11:27:02.425Z" agent="Mozilla/5.0 (Windows NT 10.0; Win64; x64) AppleWebKit/537.36 (KHTML, like Gecko) draw.io/21.6.8 Chrome/114.0.5735.289 Electron/25.5.0 Safari/537.36" etag="IpIbz4Zpm26FDckU5Xzz" version="21.6.8" type="device">
  <diagram name="7_bridges_graph" id="UB5ukc8eHkth8MgIs09W">
    <mxGraphModel dx="1985" dy="1320" grid="1" gridSize="10" guides="1" tooltips="1" connect="1" arrows="1" fold="1" page="1" pageScale="1" pageWidth="827" pageHeight="1169" math="0" shadow="0">
      <root>
        <mxCell id="0" />
        <mxCell id="1" parent="0" />
        <mxCell id="uteo5q_6kZzFRhe3ERCt-1" value="" style="shape=image;verticalLabelPosition=bottom;labelBackgroundColor=default;verticalAlign=top;aspect=fixed;imageAspect=0;image=data:image/jpeg,/9j/4AAQSkZJRgABAQAAAQABAAD/2wBDAAUDBAQEAwUEBAQFBQUGBwwIBwcHBw8LCwkMEQ8SEhEPERETFhwXExQaFRERGCEYGh0dHx8fExciJCIeJBweHx7/2wBDAQUFBQcGBw4ICA4eFBEUHh4eHh4eHh4eHh4eHh4eHh4eHh4eHh4eHh4eHh4eHh4eHh4eHh4eHh4eHh4eHh4eHh7/wAARCAHvBC4DASIAAhEBAxEB/8QAHQAAAgEFAQEAAAAAAAAAAAAABgcFAAECAwQICf/EAFAQAAECBQIDBQQGBwcDAwMBCQECAwAEBQYREiEHMUETIlFhkRQycYEVFiNCobEIM1KSwdHhJENEU1RicjSC8BclNSY28WNzorKTGCcoN1X/xAAcAQACAwEBAQEAAAAAAAAAAAACBAABAwUGBwj/xAAzEQACAgICAQMEAQQBAwQDAAAAAQIDBBESITEFE0EUIjJRBhUjQmFSM3GBFiQlYkORof/aAAwDAQACEQMRAD8A9jA7kAQO37UDJUN4IVhwo2xA+m+pglSfZXtQ/wBhgQvS8Hqg80whlwnOCCkw7ThTct7A5DG4dNurppmHlHKoLE8toVVDuubk6YhoSjmf+JjtdvWpZARKOYx+yf5RLsScpeS+QyRiLK3G3PMLI3jWle5KOfMH+UWF0XE4QESyh8c/yjNYkv2VyGashKFLONhC0qs87N3wxLJWrQFbjPmI1TFeuYtO5l8AJ8f6QG0F64KhXnZths9o2rqf6Q1Ri8E3Jk5D+aUEthJGQlI6xkXGwN1Y+cLJLl7qz3dj/u/pF0yl6L5qx/3f0hT2I78k5DKL7I/vAPnFCbYA7zyfWFr9EXYoZU4f3osqg3MtOVO4/wC+L9mH7JyDW5KnLNUp3TMJCiMDeIywpxn2N1x2YSSVHGT5wvLto1Zk5RJmHzhStwFRJW5alYcp6FB9SUrGRgwz9PBV+SchridlNOe3Rv5xb2+UH+Ib9YXv1OrBGPbHNvOKFmVbrOL9YWVUP2WMJNQk+RfRn4xXt0p0fR6wvfqZVOfti/WLfU+sJG02v1i1TD9kCu6qswzR31NPo1Y23+Mc9iTjTlHQ868nUT1MLK9KNV5Ysy5mVHWQCAfOJihWvXm5JIQ8QkpynvRtLHgo+QVIbIm5Y/3yPWK9pY/zU+sLP6u3KOTv/wC/FxQrpQf1mf8AvjD2IfsJSGWJhro4n1i/tDY/vE8/GFoKRdQGyv8A9+KFJuzVlTmB/wA4ioi35I5E9xHqPs9Jwy+Aoq6GJKyXgaGw464CpSN94Ud4SdwIebk5k6lrOU97MENJpN0inthvZOnYBUMTogq12CpbY1g+3v8AaJ9Yt7Q31cT6wtG6TdgGNR/fi4pF2Hmo/vQt7Mf2EMozDGn9Yn1ixmWEp/Wp9YW30NdJ5r//AHowNGugp3c+Hfg440H3sqT4rZ03XUHHLpal0PJ0pOYO5CZYTKN63k50jrCKXSa5OXaWi7lxO3vecGKLcuMpx2xGkb9+NZ0Q1rZUWmuQyhNS2CO2Rv5xQmpfTjtkesLIW3cR7yn1DJwMKjZ9WLgBx7Ur5KjH2IL5KU3NNDGM1LBQPbIHziEvWpNtUVzsH06iPGBNy2Lg1pxMK5bnVEFedBrEpT/t5knXyAVmNKqIN+QtttL9DA4eTraqKC8+nVnxgoE3LZyX0esJ+0rZrC6MhbcwoZ3xneJX6s3ETlL6thndUS2mty8kSSYyxMy55Op9YrtmtWe0T8oWiaDczYyHs/8AfGRp12tEaTkk/t/0gPp4b1spThZJx/Qy0lJyUqz84X/E1ZXOS7SScHz8450i9GskJyOXvf0gPu6fuEVVlqZaCnAcAZ8/hGmJi9vsvcXsdFtJ0UdkE76Yk0BOM53hVyNy12UlWkKlFkY5gE/wjvYvebQPtpVzbnhJjKWM+2mWuLW/0MXAzGRAgDY4gyvJyXfB6/ZmO1q+Ka4rB7Uf8kERl7MpEhLn5C5QBSRCxvpKl3Iw0Oih+YguauunOd0LIz1IgLr9RlJm7GnQ6koHn8I1x6m20U4uf2p6GVSk/wBgaB6JAjqCQOXOIymz8p2CR7U1y274js9uk/8AUt78hqELWxaloJRcVpPZ0IGIvGpMwwScOoOPAxmlaFclAwGtfBSWkap1WmWcPlAHZ3eu6aV/5zMHFTUPYnfhALYiwq5pknPP+Jhmr8X0UxijlFCLZEUIVb/0WZxbpFs+cUTkRW/9BHBW1Yprx/2mAjhkk/S0+rxc/gIM7jITSHvhAhwvx7bOq8XP4Q7W/wC2+gW+xgnmIujlFvPwigRyMKb/ANBLwZDlFvGKyItnnE+fBTYAcUdw18YLrZ/+Fl/+IgQ4pkBLRB6wWW06gUeXST90Q7ZF+0il2Swi8ai+yk4K0+sYmblxzdT6wnGMtEN8YL/VqjT7bK9XkeojWuflOzOH0eogoxkWhb1na+wT/mfxhnyw+xQfIQqq7MsG9ULDqca+efOGZLT8mJdGZhv3R94QzfCXFE2d8W6Ry/SEn/qW/wB4RRqEmP8AEt/vCFlFk0dXhAfxMGKE4rygk+kZLV/1Lf7wgV4lzsou3Xgl9snH7QjaiEuaK+CVsEhVvMnyghHKBLh3PSibfaQqYbB81CCMVGRwf7U1t/uEDdF82UjrjGOYVKRP+Ka/eEW+kJL/AFTX74jHhLYTOrpCxrCdPEZlZ8/4QxDUJLH/AFLX7whc3BOSv11ZdD7eM8woeMM0Vt7RQzmTlAMbIjpKoyRYH9payB1UI3fSMj/qmv3hGEoPbLR1HlFo5TUZL/VNfvCK+kJL/VM/vCK4MswrSdVMfH+0wv8Ahv8AZ3BMJ/3H8zB3UJ+SMm4PaWsFOPfEL2ypqXbut8F5sb594eJh2iMvbkZ/I1BF+UcoqEkRn2pr94RQqEl/qWv3hCPGWg0dQ5RR5Ry/SMl/qW/3hFfSMng/2lv94RI1y0Wc9eb7SlupxnumAzhbpTPzjJ6KzBpOzcm5KOoEw2TpP3h4QvbIm5eVuecQp5A1E4384dphJ1yQHyNLkcRcbRypnpQpH9ob5ftCLifkyP8AqG/3hCThILZ0iK6xz+3Sf+pb/eEW9ulejyPWIoSLQu+I6CmrNL/3CGBRCFUxg/7BALxMW2pTbyVpIBHIwYW7NMGkMHtUjCRzMN2Rl7aYHySo/jGcaEzDG/2qPWK9pY/zEesKqL2WbjyjgrX/AMZM/wDAx1CZYP8Aeo9Y4K3MMfRkwQ6jdJHOCri+RYKcNTiafGfvQep6wu+Hb7Tc88FOJ97xg/EwyB+tR+9Gt8JKRRuisbRq9pYHN1H70W9pY/zUesYKMiG77sRtxI1Ul8DqiOv2pjG7qPWOWpzEu5JuIDqN0+MFXGfIgM8OF6nX2z0MG/LaF5w8mWWqtNoW6gd49YOhPSuCe3b2/wBwjS6E+XZDqAixjnE9K4z7Qj94RiZ+VztMNnfHvCMuD/RfnrZ1DlA7fUsZiiuJA5b/AJxMieldJJmG9ufeEctWmZJyRdQX28lBx3hBVxal4J2uiG4fPlVO7DPubQU4ML2wqpKs1OZl3HkjKjjJ25wdpn5LYe0tbjPvCDui9+Aa9r4OoDbeKI3EcpqMiP8AEt8s+8Ir6RkcZ9pa/eEY8Za6C1ryD/EeUVM0VSkjOjeNHC+aD9IU0o95skY+cTdYmpF+nvNF9skpx7wgC4fVFiSrk1JLfQMqJHe25mGoQnKvQG0NIcsxeOJFSkdOPamsgb98Rc1KRBA9pbJPgoQrwkF0kdkVHF9KSGcCaaO2dlCLGq08AH2prfbZQicJETTN0yyl9hTSxkEQs6a65Q71dacGG316U+phiLqsgUpBmEd7luIX3Ex+WTMsTbDrZWydRIIhrGhOX2lyTXhDNZWHG0rHIiM0kbnEDVtXBJPUhpa30bAZ3iTNbpwG0wjPxEYzonFtEjtrbRJ5zGKgFAjxERZr1PHOYT6xrXcNO/zgcc4GNMkyMCroJpl5y0wMhBIBMMmRdS7KoWk5BELXiTU5F6TRMNqBWlWxibtS65FVFlwpzKgjeG7KZOtAxCN+m05LSnFS6AAOeIW9Mp8pUb4c0tJU02vljzMMe5Hi1RZhwH7px6GBLhlJLLr044ndauZgKJyUG2y+gwapMgGkj2dGB5Rs+i5HpLo9I7IqFvdk35L4o5BTpMcmEekZexSoSSGEbeUdOItgYIzzgect+StIhrjbZl6S64G05x4QO8NJNGuYfUhPeVnlEvfz/Y0NWNyTjEZ2NLIapLbmDlYyYbUpKvyTonwgA7JGIvgA84oEct9oywIVTZNItsdsxRSMYwIvt0jFRCUFRPKKTe9E0hb8SZkvVFmRB+//ADg7oTQapbCABsgflC9qumocQOzA1JSM/jDMlWwhlCRthIENWtqCRekbE7pi+PhFIGBiL42hSLeiigBiMVAAHYRcmNc2tLUs44egi4vb0XoWVyvKn7walU4KUK39RDKkm0tyradI2SBC0thoT19vvH3QTDQQkJGB4w3kPWkCki+B4CL4HQCL4iiIUTYaSLY+EYqSNyoDYRngeEapnZlWPCJBtsrSFrdbhmr2lmUgFIIhjyLYalkIBxgcoWMoTN3sV4z2Z/nDTbBCAPKGr21FIpJGQ+MW+cXjWF9/Tjf4Qt2TfZk4cIOSIXdc4lUeQvJFtOOJDq21b+BxtBHfdelqDbU3UZhYSlpBO/Ux5ffkZKr0Geu1+sy6al22ttHbJ1BIJ2xnPQQu7+M0js+n+n+9W7J+N6HnZqXH7ufedwSF4B8oPq3Ps0ynPzj6gltpBWSfIZhX/o71NusW+J5biXHvdUrO+Yw/SBrry5eWtiQKlTc84E93mE5GfwMb5F+4/b5M4+n6yva+A04bXxTLzkXZqScBLatKkgxGcX72fs6SlH5VgO9u7oVtnG4/nCr4fSc3wx4jM0p91X0dUE7KI+8TiJ39K10otOQmWhrw/rwOZ3BhSN0lD7vIyvT4fVKEPD8DqoE2ahSmJlXdU6gKKfCF7x4qFRp9GaNKk/aHtfIDPSA22+Nc3JSUq1M21OMyiAELeLS8AePKCu56/T7gkpGbp7ocbdX4ctvCHMS3n4Yvdgzom3NdC0keMN70qZYoabadE6sd1tTY1EesGtb4n3TRLTYqNUorkvMuOlJS4kcsfGBastkfpB0loABPs685HP3YIv0pW20WjIBIx9sc9OkKu2fJtnUlVjudaUPyG5Q6iqdt5uecQEuqZ7TTjyzAbw1v6bue56vTXZcNokni2DjnjH84JLUGmxZbB39kG/8A2wqf0fcJ4i3VjrNr1dd8iL92UpJI5tdFf958fHgNuLN9TFookfZ2e17d0IO3mB/GF5xPum5Gq7JTlNt9UyhTWtRCAevxiZ/SgATL0gpB3mU74/3COyqIQ6JIYJPs+k5HnB40ptzal4HsajH9quUo+X2CFocVL1r7xl5C0FuNtr0OENJ2wcHrD7pckxM01mYnaahh4p76FJGxhNforNALrSFpCgmcdwon/eYbXEGvMW/a83PurCQhs4+ODEhbJQct7FfUqK5ZXs1R0Cc7ddptX+bVUw1276UhJAGx3P8ACC5dsUuYQAGQB4iPMKZSTqFHfvNVYYRVm3lPNpLydWnOw5+Bj0Xwmudu5rSlp1DiSvThYzyIiYuVOW9k9Q9NWPBOPx5NtZt+kU2nOzbqtCGk6iSYVtoO0y7bi7Snu6kgrQoA8sHEEv6RNfclqEigyKgqcqJLISDuNs5/CFlw1ZXYXFJmmzLhEvNthQWrbvEDb1Ma05U1Y38FU+m1yxXZL8n4GTxCotcoVGQ9b8s9PP8AulCd8ecKR2+L+buBFGFCmROEZCCkeGfGPWXdeZwUgjx55hBVZvH6TLAASEdgNv8AsjK2+UrNheme2k4yhtpE3ZjN/VCmrmZ+WdlXdWyFDGfxidSm92NkpJ+RhlSjaEsgJA5Rt0I/ZEOxyVrwcrImp2OSWhVT09d6JVz2hKgkJOdv6wL2nWa0xVXltsqUrO+B5w7a800KW+ooB7pgE4bMMu1aZJbT7x6ecO05EXBvj0LNM0m6LgHOWX6f1jNF214e9Krx12/rDIMhKn+5R6Rb6PlMfqEekLvJr/4k0xd/XCr/AOlX6f1ihd9Z+7KL9P6ww/o2S/07fpFCnyY5S6PSK+orf+JEmKysXZV3ac6HJZYGPCISya/U5d10tMKJUrPKGnd8nKNUR5SZdHLwgf4Xysu6h5a2UnvbbQ3DIh7X4gy3s4zdNwFCtMs5z8P6xZFzXKr/AA6/T+sMn2GUAJ7BHpGQk5UHPYo9IVeRD/iGt6Fsa5dCuTCx8v6xl9JXk4g4YP7v9YZHsrA5No9IoMMg4CB6RPqI7/ErTEZfL9zrl0du3j4iJ2itXo7TmexSdOnbYxOcVGm0yKFJRjJxBTaqQaJL6e7hIhi3JTrWkSKYDimXi4MurUD8DFjQLqX7z6/xhoaRFBP/AJiEleyxXC17kV78wv1MbG7WrXZq1zK/UwzMecYrSA2douOQ0yhA1GhzyLlSyt1RVqwDmDeUtOqdilaple48THLX/wD74bxsAv8AjDPlR9gg/wC0Qxfe+KK0wBatCof6lfqYzNnT+P8Aql+phghI6RWmFffYehfN2dPZ/wCqV6mIO+rUmZegvrcmFKGk9TDdA3gU4m7Ww/jwMa0Xv3EV8AZY9qzMzRmlomFpAz1ifFmzBO8y56xK8Nhm3WjnxgpAGIl1z5spAKmy3sf9Uv1MZCynTuZpfrByBiLwv7z2WAhstwf4pZ+ZgMue11y9faIdUckb584dmIBr8b0TLMwByWB+MMUXy8ENMnZri2UuKmlgqG28bvqU5/qnPUwW0UhdOYWeZQDHbpjKV0tloBfqU5/qnPUxX1Kc/wBU56mDrEViK96RegCestwIP9pWduWYBKLb76b0dYDyhkePxh7LAIPwhXSmpriKvfY4/jDeNe3GSA0SYs6ax/1K/Uxf6nTX+pX6mDxrvNg+UZAAQp7zW0WL36mz3+pX6mLizp87e0r9TDCwPCKwPCJ770QXblo1FAUfaVkEY5mAZ+gTspc6WQ8oKUrnmH0oZSR4Qs7xzL3rJqA95Q/jDOPkNpopo3JtKqrSFCZXggdTGC7UrWwbmV8vEwxZU6pds8u6PyjckRg73sgr1WpXv9S56mLC2rkCSBML25HJhpaR4RgsdMY84r6jRaTEZe9Fr0tIa3nlK365iUt6l3S/SG+zUrGB0MGfE9pJoBJG4MdPD5wOUNO3ICG5XuVXIDXYK/Qt2pIAUr8Yr6Gu39pX4wzUgczGWhPhCqvYYsBRruyMKV6GNNRot0pkHe0UrGPOGrpAO0c882HZRxChzBiV3vlsvQirQp9wLqjjLKjqB3gvFEu3vd9X4xVqJErfMxL9AT84ZaNwVRvkXPZQtPoO6juVn8Yr6Cun9tX4wzgkGK0iMFe0QV5oV0q2Ly/xjFdt3IUnVMrxjcZMNHIxyjBzdCvhBQympeCLxsQNFpFaNwvMtvqSoHfcwYfVi4tQV26yAd9zGC9Upe+x06lbxy8deJLlnMyjcr3n1qytAGe7vG2TmOGm0b42LPJlwh8ncLWuEqKzNL35DeKVbNbSQTMlKh0JMGVoVhiu27K1NhwKDjQJPgcbwiLyqF4VrjLN27S66uRl0NqwQgHqP5wn/Uv/AKmmF6Y5Wyi34GQi160sEid3PQExl9Vau4y4l2YUlZ5ZJ5RC2XY1+U2tNztQutU2wnctlCRmITj/AFm5JW76LSqPU1SftSdBKRnmrGYj9QlHvibV+nRvu4QkbWLfqEtdglFvEazsQfjBszaNQydUyoIxgEkwpHLQvam3DJTU7czjw1hQOgd7yg149Vmt0ewJZynTimJhx5pGsDPM4ja7Plw5OIb9LjO1Vwn2EqLUnU7e294cjkxsRZ80C5ibUVEjfJxC2oVkcSqpSmZ1N6OJD6QrHZp2hj3Sqs27wumVOzhcnmGSC9gZOx3hd5cuPJrRVuHGElXGW2+jd9TpsjBm1EKO5yYBq5bT9Irjam31DtF4Ks+cF36PtYnqzw6kpqoTKph9SRlShg8oFP0n56bpsjT5iSdLShMJ1EDOe8I3qzuK7MqvT5Tu9lLsNpezy5LIX7UoKI3JVzjoRZZ7TtRNq5YIyYWPEO7axJ2lbj8lOKaU+82l045g5h00Wd00GXmJl1IBZSpSicZ2jF5XKUmvgu/BlX5IRqyWm0ECacO2D3ooWSwkACbcODnGqAepcWhO8TZK2KMvUzqw6sDY4UI08Sa/c9nX1KVx2aW5RXVBDjYRsnY7/jALLThz+CL02yLUWtN+Bht2cx3j7S5g8u9yiNuGy5NVKeIfUtQRtlXWOS/eIMrT7SRNSb4XMTremXSnc5Vtn1gZpVq8QqvZrQerqpd94l0nSCQCOUSObNPcPBdXp3FbtloILKttp9hban9Ok8swUCzpNW4dVnG5zHmm3pW+XOIE5ajN0ONOsEEuaBv1j09w/pdVpVDbl6xPmcmBzWQBn0jT62dv3LwHnenLFSbn57RoTZkp1dV6xsRZ8kM99R28YKMRbG8V9RLZzAGrtmSa6W6Dk6RkbwL2LSpJRmmXVEdmcAZhuTaNcs4nxTjEKZJXSrhnEJ5LyfxEO0XymuJXgMeIc4tmnpl0K3cIB9YkbLZ9mo7aSACRkwnrrumpVOpssIYXlKhtjzgolLjrbEm20iWXkJA92LnjOMdEj5GrnzisgdYVwuS41cpdX7sX+nrmV/dKT/2wssbQSGjqHiItlPiIWArF0k7JP7kV9KXWcnB5fsRFjbZRJcSJlRmmJNK9lnlBXbCCzRWEkjITCOr1RuCoXEyFJKnEEYwmDBmcuxppLaE7AeENWY+q0tlLyNNJOM5EVqHiIWAqF3Yxp/CLfSt2p5jI/wCELLH/ANl7GhkeIjnqDnZyTygfdST+ELY1q6AN21H/ALY46xc9fl5N1LrasKSQe75QVeLuRZ32Ugz90zE4rfScZ+cM5Pu48BCKsC4Z+Tbee9jWrUrniDBu+5pAPaSDnpGmTjvZQxkcovnaF6niEcYVJOp+RjYniC3zVLOfumFljyRew7JOfnEbdTwYokwvOO5A19f5fA/sq/PaIG9L7ZmKW4whpaSsY3EFRiylMrZK8LJZTinJ5Q3UTvDBRmFTY12y1OoqUKZVqPlBAi/5UbKYVk9cRpkY83IqIcDlF4B/r9Kf5avSMvr7J49xR+UY/SzDDXBjkqr3YSTiz4QKfX6U/wApURtxX1KLpbqUpKVEbZEHTiTcimaOHjZmbknH1jICtvUwzU5PKE3w/ueTk3nnVpPfO5x5wZpvqR5gH0g78ae9ARWwz6RzuKUlvBI1dYFBfch1B9IyF7U5YwRz8oXeNPRopRi+xYcXqku774kbGkl5ltYM0QdsHIIPpG24+CtmUukF9FPJdUkAqCRjOIMKa5aUjWnqzLy/9seOVrUc9emeUc9/XRITFMSht0glQ2+cDXgNy2zqx9RlXGMYPUUKfhTVWuHl4TFJnXwzTpgamd9s5/kIKOHIevridO3K935OSOiXzy6gwRyVMtGs0+VXVpdLjraRpUDgwV2qLWoMqqWpiUstqOTvziW4biw7fU67U5pfd4Bn9IK33J22lViUymZp47ZsjntmFZxKupNe4WUSoPLKHWZjs3T4adIOY9JTFTos5LKl33W1trThSVb5ECr1mWJMSC5Isp7BSyvQV7ZJyYVniSlsmL6jCvjG1ePAH1biJYa7BXJCpyc072GjskqBVqxAnwtkp1qnMuO6kNPTKlMpPQE5H4Q15Lhzw7lnm5huSaK2zkZVkekRdwOyKbll2mC2hhtQ0pQAAPSG8DEkmyZHqVHtyhWm238gXc4KP0jKSFE59nXy/wC2Jn9K1SU2fIrdICQ8c55coZwoluzVal6460hU803pSsq5A846LnoNDuSSTKVNpD7STkAqjGWK9sGr1GCnBv8AxAO3OKFls2ezLvXBIsuolwkoLmD7sLjg5fNsUi97knJusyTDM3NKcbcWvAUDjlDfb4R2JpOKaCT/AL4xTwgskK/+KRgcsKjGGNOMtjFWbRGNia/IWHHm9rbuRVJl6RWGJpxD6SeyXn7wgyBU7LsuHKgJfr8YIpfhNZbLgeapiUqR3gSrkY55aUZFz+ypP2Ke7jyhrHx5Ln/sXnnwhGEIfDAv9FrCE1vUlQUZx07/APMxfizU3ryvuTsSTfT7MVdpODPRJ5ehhw23a9HoLTyaax2XbqK175yScmNNJtGh0ysvVaXlAZt4nU4s6j+PKF1VKMFEp+oQVsrWu/gAm+AlkhgAyWVBPMJG8BFqVJjhXf8AOW9NPqaprqVONKWe6MCPSDu5Axy5YMAnFuxpK5qFM9nJpen0sqDSwcEHBjO2qVenAPF9Q5z1kvaYlWLzoFx8W1VWr1WTRKSODLkr6gkflHJxluO2qu8xU6TWGVzMm6gp0r5jOf4QyOHHB2jMWmx9YqXidCftDq57eUaZHhnaszUZiVTS9SglWnv9cbRpXVPidb+o4ytSX4paDbg1eMnddrsPMTDbr6EAOgHcGFxWE/8A+TzHdVjsRv092CrgVZ1RtSfqzUxK9jLuvks4I5bQfPWtSHrjTX1yv9uSNIXnpjHKIq5fJyp5FdF83Hw0TkvnRjoOUZiMEjSnSIyT7sapaizjt9nBcRxSH/8AiYCOGA/9ymD/ALj+cG1wgmkP/wDEwEcMlEVOYTj7x/OHaXqhmbYyoqMQRFZHSE+QZlFjyi2T4/hFE+cTZCAvg4t94xB8KUYlHFecTF/K0268M/hEZwsTimlWeflDkf8ApAS8ht0+cVFjsmLwl3sJeCoqKOYtk5x5Rb8lgJxY2pjZ8FQS2irNDl8fsiBrixvS28j70ElngfQbGP2RDUv+mCTCOZjIRbMUM7wrEtF4wX+rMZDlGKx3DFx8ooVle/8AvlH/AD/jDQlf1CP+IhYV8f8A1wj/AJ/xEM+V/wCnR/xEM3fiiG8coqLD3YqF0EVApxN/+2X/AIGCuBTib/8AbL/wMa0fmin4L8Nf/txv5wUjlAtw1/8At5sfGCnkIl35sFFzFdIt1iukYLyGXgP4jpSmRbc/3p/OC88oEuJKAaMD4LT+caUvsEm7bVrpEuf9giTEQlmudpRGMnkgRNiJPySJeKixioEIxVyhW1D7DiCD44/jDRVyMK650qRd7Lw94qAzDOL5YIz5Y5l0HyjYOUaZT/pkfCNu8Ky/MhlFRUWHKKXgJGOMZhecQmwLkkXP9w/jDD55zAJxDSPpGWc6pOx9Y3x/JT8BjSla5NB/2iOxPKI23zqpjas7kbxIo2zkxnYvvBRl1jHrF8jxixO+3hASQYNcQ2+0oLg8o4+GDuullGeRiYu9sO0dxJGdjA7wpXmXeR+yraHYd0GfyHQ5xnGsHvRlv4Qnro0L5jFYCkEeMX3PSK6KEVHaIK6dUZHiF2g2ClY/GGayrLSD+0Mwtr+aMtcUrMgY1ODUfnDEkClUmyvO2gY9Iau7gmAdY5xRiyeUVzhX4CRbyixAKSIvv4RiScbjA8YpJ8tk+NCt4huIpdwNT7p0oAKifhAJbFFPEy6qzV6k32smgFiX1DIxkHIic/SempxMhLysiwta3FhKlJHIE4gx4K0NuiWPKIbR31sha/HMS5Ss7/R2MW2ONQ5x/ICuB1UmaJUajZ1QVoVLuqUwlXVJUT+UBF3MXFMceZ5q3JgNTJbUdSiccx4QZ8Y6LUqNfdMuyiS61latEwlAzkbDlAdWK1VKHxbXcrdEmpph5kgpSk7HI8vKEm9PR18aUYv31r7k/wD9jZ4YU7iRKz7irpnpWYltI0htSifxhc/pKCpG/bebpikIm1DDZc5A6/KCq3uMc/P1JmRFrzqO1VpKiDhI9Igf0hxUJa9aDV5SnvTiWUa1JSknB15i7duHQlgy9rK5S0Dl0zvEa2EylUuN9mZlG3OTRUcD5wSceauqqcJKfOSuNTkwxoKvHVA7xDu+tXzRG6JLW/MSgUoBxxxP9ImOJlHnW+C9PlpBhyaelphhSkJBJ2USY2sjKdA/CVbtjZNJM6rLpnGAyMk4xU5QSBQkhBUrOmGVxY9oTwzmhMkKf9n75RyzpMLW2+MVSplHYkDaU8pTDYSTg7/hBvcdXmrr4TTkyKc8w+ts/YkHPIxm0/ZRzbLNZUbGkkn8Ck4SSPFRy05RVv1CSbkykFCVqVkekR/F+R4iMyEu5dE8w82X0Y0KUfvDxh2fo5SExLcNpNmel1sOpQAUqG/KIP8ASbpk5N0SUblJdbuHkk6fDUIJVtpDlPqNcs5ySQC8RXALKtjtFHCZlvc/OCWfuSfvBqVtO2FLDCW0+2TCeSRjln4iIa6LVqV12xR6PKJU24hxPaeIG/pDq4c2XTrToqJWXYAd0DtFndRPXeLcXByX7LzcmiME13IRL1tyds8ZbekJJHeU2VOOHmrCxvD24oSVKqFnzMvVA2WezJyvoYVXEhK0/pAUJaUrIDShkIOANYjfxLer97XQ1aVPaflqeCA+7gjI+PyjOD1U46MJXe/bXZJ60LHhHVKfNcQWKbcMyXZWXUoSYdPd57Y+cewJdTRlQlr3QjbHLEJy/ODcku0GPoRvsajIpCm1pPeODk58Yn+CFwVadpKqXWpRxuZlBoUtQxqxtF4+1GUSeqXVZf8Acq+PgW1vLDX6SNTSUFOrG/yj00wAGx8OceZ5eTmZb9IycmnGVpbcICFEbchHpZk7JSdyBzjehcaxP1a6Nqhx+EbYoc8xcYix8I06OOWI5joYVvE2TLNVQ82n3wQcQ087YzAlf1PRNNsKUDkK/nDGPYoyBfgFLWlWqneLjhaToRnp5Qz25SVSnCWUeHKAThNKKUyZ1XM8zDDSBnPjGmZbJz6IkahKMjk0n0i5l2TsW0+kb8RbEKucv2Eaky7I5Np9I1zTbTcu4rQnZMdERV0TPstKeczgY5wVcpSYIA2wyZ+73nNIIQr+JhmtstaRlAPygC4Vta5ibmVffUcH5mGINhGt05eCJGrsWv2BFuwa/YTG+LYHhGHKRejSWGsfq0wIcSw01ShobTqJAg16Qu+KbxdDEsDjvjl8YYxnJzK3ok+H1Ol/oVC1sIKlDPKCQ02RV70q36Rz2swGKJLpH7AzEpAW2SlN9kI9VHp55SrfpGlVCpyv8M36RLgRRjP3ZJE0Qq7epZ5yqOXhADxHpEgzMSbLDKQXF4O3lDUUnr5Qr7ocM5eMsyk6g2vl6w1iWS3soJ6LadMTT2w4ynOB0ju+q9KKjmXTy22ialUAMpGOgjbjvRlO+blvZaiDirTpSj/06fSKFoUnGzSfSCXaMFbJOIF3T/ZAd+qNL/yUwM8QrdpcnQ1LS0kKztDHxkDeADiq9lDcqDurp6xtRdY5eSGiwrSpz9IS860O95QRfU2kHk0PSO20W+yocujGNt/SJlIGIG2+bk+yJaYL/Umk/wCUPSL/AFMpP+SPSCnEW28Yz96f7JKKl5BNVl0sb9n+EBXES3KdLhhtCMZWOnnDgIELLiM5qq0u1zOsfnDONbKUvJUoxa0SlBs6mLpjBWk5KByEdirJpfTUPlBBRQBTGNvuCOyMLLZOT2FDjH8UCP1Jpmdlr9BGP1Nksd1bnpBgEjwi+IFWstN/5dgUuz9KV9nMKAPIZhe1K3pn61JYDqic+Pxh6kDpC2bSXb9d5nGMephrGucWwOt712bGrXrKUAomlcvGLKoNyJ/VzKs9Dn+kMVkdwDyjPA8Ixd72XxQs10q8W/cmz+9/SNXY3wwcmYJH/L+kNDSIxKEcikH5RX1G12ipRbXQsXZq8G85WSMb7mBKXqdebuJZW0VL1dMw93mWuzUezTy8IAqew2u7XMtpxr8IapyI6fRWvu2zgTcVxox/Zl4x4GN6LtrSE/aSLhPU4MMRMrLY/Uo5fsiKMlKkfqG/3RGLyIN/iFGK4tP5F6i9qgPekF/umM0X88lILlOe1nmUoMHhp0mecu1+4I1qpUgrb2dv90RULa/8kVFNAQ9fmppSVSbm45lPKBq37vaRWHn1MrClHbAhpT1Fp4lXFezt7J/ZEAVrUWRfrb4UhOArwhmmdfF9ATjvwydavyRHNlwKA3ymNqb8px95Ch8olF2tSlnKmR8o1Ls6kK/uT6wrKde+ka17/wA+zkbvmmq904+Mbm70pZ95wCLmyaPjdtXrGBsajH7q/wB6L3Tx/wBlJPXZprV10p6lupRMJBKT1gT4cVymsVKYcXMpwVePnBBXLIpjNOeW2VZwdiYD7CtGQnKhMNqcWMHoo+MN0xq9hgDVTclIP+Ma/eEZpr9JP+Na/eEDZ4eyA9193P8AzMazYDA919394wlwrfyHsK01ylnlON+sZCs00f4xr96A5VhFPuzDv7xjUbGmcgomHNj1Jgvar15LTJW/apJLt9wNzLfMdY0cNp2Wbo6SuYb3GecCd5WjOylIW6qYWRnkSYxtC06m9R23WppaQRyyYbVNftfkBJ9jbRUJRTZPtLfPxjMT0qdg6k+YMLwWjXEp7s2rHz/nFvqtcid0zh/H+cJOqO/yLUuhjJmWlcnBF+2bJwFjlC4Fv3Yn3Zs/j/OMBRbwDgPtR5eH9YL2If8AInIlOKxQaMlQVnBMENnLSaLL8vdhSX1I3U3IgPvAozvlP9Yk7fYu9NLbMu7lOB0/rDMsZe1+ROQ4goZigoQr1G8UJyXCT8P6xiJm8E9Sf+3+sKxxv9l70NIGMVn7NUK72+7UnvJUfgP6xY1i6kJUCyo/KJHG78g8i9e/+90f8/4wzpT9Qj/iI8+1CqVgXKl15lXaFXLHnBrL3HcISlAll4xzxDN+L9q7JyGpFswsPrRXf9K56RY3RXsf9I4flCv0zXyFsaAxAvxJwbaf+BgaRdVcA3kXYhbuuarP0Z5t2TcSkjGTG1GM+a7Bcug94bn/ANibHxgpztCXs+5KrLyCGGZZSk454id+tdcxp9jXt5QN9H3+S4vaGWesXB2MLD60V0naUc9Io3TXQf8ApV+kZ/TNfJe+xnHrAtxG3oaj4KEDP1prp/wrnpENddcrT9PWh+XWlPwjSnFe/JWxg8PnSukIGeSRBPnzhH2fXa4zIBEswpQ8cRO/T9zH/Dr9Iu3F0/JUZDTBi+YVYrtzdGF+kX+mroP9yv0jL6Z/sLkNE40mF1erQTXpZY/bEcRrF1EEhlfLwgauibuJTrDrzStWvwhjGo032VseMkoeyI3+7G7IhVS07dSpdHZ6tOPCNntl3Yxv+7/WMpYv3eSbGlqEWKwAcmFcl+8FfeP7v9YyJvBSSNZ9P6xSxV/yL5DP1ADMBfENKVKZV4RCdjeKtu2Pp/WIK7JS6kyvaPukgHbI/rGtGMlL8inLoa9srSKO3v0iU7RvqYUlAkrrdp6VNTBCSNhj+sdyaXeZQMzJ5eH9YG3HipP7ikxmh1rxEYqeaz74ELUUi8SP+pPp/WLJod3kkmaV6H+cZOiOvyC2HtZUy7TXR2g90wE8MH0NTUw2V/fMcszQ7s9mUFTRxjfb+sCNsyFdFZcZZmClWTyH9Ycqoi63HkDsfZea1Z1jlFhMs/5ghbihXgdhNHT12/rGQt+7R/ij6f1hX2YL/ILkMcTLI37QesWE0wN+0ELk0C6sd6aV6f1i31eus+7NnHmD/OL9iGt8icjs4qKYW1LvJcGUqB/OCC1Kmw/RG8uglIA5wu7ute4RSlvPzeooGcY/rGiy6NX5ykdo1N4wojAHn8Ya9iEqd8vACe2ONU7KpOC6n1iwnpX/ADU+sAH1VuNZOqcV+P8AOMBatwBRHtivx/nCcaoSXkNvSGEZ+V/z0+sYmfldJIeSfLMAAtS4Acqnifkf5xf6pVwbicUSfj/OLVUf2DFtskeI6pGYpSla2lKSQdzyjosOpyn1bY1zKe4ADgwJXLaVXFIcW5Nkkcxv/OIuxrdqk5KKbbminT0Gf5w1DHrdTbkSU5N6+BvOTdNcTlbrRHMBRjUJmlKOVKYBzuYCxZdYPOcUfX+cZCyqqRvOL+Wf5wo6Kn8hqclJafQatTdJQslpxhHiraKcnqY5guvsqAGNSiICxZNTxj2xX4/zi/1IqHIzThz5mL9mrXkJTe9/JIXzMUz6GWmXeQk89aMRq4e1Onrpam35hLmTkBXlEPV7JnUU10qmFkY5EmIWxLYmJtp9KX1jCsbEw1XTU6WmwHO2WtvwNb2yjFQX2rCN98kRsNVpRTo9qaAxyyMGA5qxplWyplw7dVGM/qI8P8Q5+8YUlTB/bsL3JdbC1uqUtKcJm20JT3cZEctWqVJcklhx9p3AzuYHPqK91mHNz+0Ywm7GW3KrV7Q5y/aMFCqvaWwVLjJyRrs2qSCaw+45MNBJVlO/KDU1ml6MidbOT+0IUts2r21aeaLyxg4xkwXN2GcHL7nP9oxpfVXy3sqMpa7fZNTP1ZmKgmoP+zLmGRpQ4TuOsdrVSo7R1NzMtrVzIVvA4bBBH/UOfvGLCwE8xMOfvGMfbqXyae5Nx02FIrNK1ZE21q696NCajRUulxEywkn3sEQP/UFP+pc/eMYqsJOD9u5+8YkK6tvsz5TjviyEvmepybplZlhxoK6rB8xB7Tq5TjKNrXOt5UkHOqFVfNqCSfZ1OrOSNyT4wS0SyhMU9pYmHPcGO8YanVV7a0yc5OW/9B2K5S/9a16iLit0w7+2t+sB6rBP+oc/eMYiw1D/ABDv7xhZVVv5L2GX01TP9a36xzVCoUx9CQZpsgHI70ChsR7pMOfvGMHLDnFEBMysADxMEqa1/kTewnsWVEnRuyxiCFPupjnp7IYltIEbwQQNoUtluQSM8xUYxXMYgGRlQJcTpoM0FxoEalDaC3qMQuuJrheqMvJjfKs4+cbULcgSa4byQl6G27jClk5gtHuxE20wZeitoPhEqOUDZLci0XioqKjMsseULC+le0XOzLA/eG3zEM5ZwkkwrZ4Gd4hJA30w3ieWwH5GRSWyzINNnomOqMWxpQE+AjZCrlubCRYHaK2xFYitsQH+iGuYWENkws6Iz7XfkypW4RyPzMMKsr7Onuq8BmAqwkF2uzMzjYnH4w5R9sWwX5GEgaUj4RfIik4xyi/yxC4aKEUrlFtvGLHGOcQjLKOPSFneyzNXfKS/vDOCB8YZbpAZUc8kmFg1qnb61e92a8Rvj9MEY9PbDMi2gdAI7E7xqaThAOOkbEcowk9yLRlFZiotELLK90wr72T2l4S7fmPzENA8oWFyDtb7ZA6H+UM4v5APyMamp0ybafACOnrGqUGJdI8o29YXl+bCRXSKzFeEWgIlmKzhKiYX9CR2l7zCjvvz+Zg7nl6JVxXgkwEWh9rcTzv+7+MM1eGA/IfNjAjIxSeUUYwDRUYnrGcYnrFMhrmP1K/+JgFoKdd0Pnwcg5mTiXX/AMTATaffuScPg5G9X4sBhwBGaesWb92MgYw+Q14L4i2BFZi2SRE2TRz1LaRePXTALYQ11eZVzGo7wa1pzs6a8o9EmAjhcNbk0v8A/UP5mGan9jAfkYQx0i4BPWL7Zi8K97CRrVkHnF/nFHnyiKr9bptCljN1KZSyj/cYqK8tlJNs23CP/aXsc9JgH4YjFUmCojdR6+cR9wcXbXXLPMtTzZB7oOr+kY8Gq5TKrUHxJTLbis52+MM0WwlU0mXKtjbG0VFCKPLML6ZNFAjHlFdIwcUlCcqOBjJMCVw8QbbpBWl6pMhaNikqim0l2y0tl+J6v/pxQBPvDcfGOrh2lP1Yljz7o3ML65eI9uV2jltifa1awNAPPeGDw8U25a8qUZ0KQCN4ZTTq+1gOOmEgIBwMRYFJPnEfP1anU95tmanGmXnjpbSv70cFz3VQ7babdrVQZlQ4oJbCs5Wo8sYjCMJbC2tBBgRYYzjw5xxyk03Myrc1LOakOpCwTyAMdO6k8inqTEaaZXQHcVQhNJGw3iWslI+g2sJHIc4iOKaVGj6k40+JES9nOH6FaUcZwBtDjb9om1sm+zaVvpSTFdi2P7tMZYAXsd/CLjunG5z4wopMJ60YIZZ56ExiqXZKT9mn0jZlIBCtgdhGHNIJOACdvGJGUtg9CxuFDX1zbCW0adf8YZErLsezI+yR7o3xC3uvUq9JdKdLYznlz3hlyZT2LaFEZ0DaGrpS4om0V7MxjPYo9IuJaX/yUekbEkHKEnl49YpRKSAMZPLyhVzYXRrMtK6sFtOfDEDt/wApLi23ylpJOk42iZqVUkZGaYYm5htlTvulX5QO3fV6fMyM3T2H0qmGQdSAc7eMMYzlzQEtaMeGjDK6SCtpBIJ3gu9kYwPsEekCnC5YVSlJI31H84MkZ3B6RWRJ+4y4ro0eyMDkyj0ihKMH+5R6R0xUY82Q5vZJf/IR6RB3lJsKozxLKM48PjBIeURF0o1Uh/8A4H+MHVN8iNAzwuZbXJupU2ggGDb2SXH90n0gK4TqHYzCP95/OD2Cum+RUV0c/srHLs0+kV7MwP7tPpHRFRjzZejnEuyMns08vCBHiEwhLbC0oHv77Qa9IE+IG0q2fAxrTN8iaJahIbckG1htONMd/YI1fq0xG2krVR0nyETCBsIqc3yJowDSP8tI+UX7NHVAjZiKjPb/AGTRq7NOfcEDnEBAFBdWEJyBtBRA3fwzb73kI0qb5rsmujOySF0NklIzjeJ1KU42EDlgOaqOlPhBMj3Yl2+TKiiwAHSKwN9ovkeMXGIxWwtHPNpBYUMdIWVFT2F9rbwACTDQdHdMLKZ/s3EJoHqT/CHKG+LK0M9IwYokYiyVZRnxiydIThUKOST0QstxCBlZAHmYh6rc9Epi9MzPMNk+KxCO/SKum55C4GqbSZwy6Fqxq335+cAMhSZ6fmVKuSuZUpGpIUVeGY5uV6nCmXFm0KHLwep6jP02tW7MqkX230lB3QcwP8KndBmJLIICyR6wmuBlwvyl3zlvrmu0llZQg52xtDZsfTLXg/LpVtnPrmOxg3K/HckYzg4S0M4HBPKNU4+zJy6ph5SUoSMkk7CM9OB45IgK42Trcnw/qC/aOyUWiBvC7bhFsKPZy1fitakgHEpnZdxaM7BY5+sCtN48SL9VTKLklIZWvSHSkgesedbCpMnW6dNzK3i9NIWo4J+MSlZqDLdEbk25MoW0cKXttHFfqcvc4DHsaR7HmJmXq9vKmWMKStskEfCBfhcpSKhOMq0gJ6Z843cHnRNcO5bK9X2ZEcFoEyl6TbAPdWsg+sekoblUxWUdSGbgBPKLD4CMQrGc+70i6Tgc9gOUYaZfRWds4HrFwM4jEDCsfdVGY5jbpFLZRxVhsOU15O/umAThg52U7Msk/fO0MGe3k3f+JhaWK4W7odaPMqMN07cGiDQA72R4RlFk81ReFFvZNFjyHxjROJKpdwZ20mOgiNakhTKvnFxfZNC9tRXZ3k+0dtzDESdyBCy7U0/iEpStkrOPxhmNEKQFD7wzG98WkmUjNOMbxWRvFRX4Qt20EiorA8YqKIyMRIrRNAHxSZCpdt39lQ/OJ6xl9pQGV5z3REdxKRmjKWBnBG8b+Hav/puXCld4AHAhtpuoFLsKMjltFCNQOdRUpO+wx0jNgaWwknJHM+MK8WF0ZHPSLDI6xnGJEUtomyDYuijK29qTG9Nw0lRwJpGT5iBxdgyIH2aVAxyuWCcktuqT4Q77dL+QdsMm6xT18phHqI3Jn5VZwl5J+cAf1En0/q51Y+cYqs2vowWakpOD4mBlVV8MvbGCuZZ0lQcTsPGFpVXRUr5ZCVApQd8nzi05RLml2nFqqDigB4mBC35Wvv119xta3FIVjMM048VHlsFtofbBbRLJQFJ5DrG8KTjGoesKkqu5CNg4QD4GNiKndaRhTDhPjiF3i8n5CTGlqT4iL6k+IhXCtXQnYyznpFzWro/0znpE+lf7L2MqbcSmWWdQ2ELS3AH73ddKhgE7kxonaxcypVwKl3ACnc4gZthFwvz7sywlYOdziGacZRg3szk3sfTa0YPeHPxjBc0wj3nE+sLRuVu53u9u4gHfrGxu2rnmTlyoOD5mFvpodvkH3oYSqnJJ5voHzjQ5XaYj3plPqICk2VWFfrZ9avmYyTYL6t3ZlZ+cV7VS+StvRO3DcVLFJfImUY0EcxzgfsGuUyXlnFOzCAoqJ5+cRl3Wi3T6SSXFK1cwY6rKsyRmaWlbrahmGeFUYeQVthj9bqOP8UmMTeFHH+JER6bApPVBjamw6N1aMLtUh9nV9caR/npi/wBcaPg/2hPKOX6h0X/JMWNhUMjvMGB1UTs3TF40cy6gJgbpMB9qVymC4puYdeSE69j6RM3DZ1HYpi3WmtOkRC2RZtLmi66psnUecMwjSobQLbTDhu66RoP9qTjPjHQi56MR/wBUmIL6hU0A9xXOLKsKSPu5A8IxcKX3svbCEXLSDym0esXFwUo8ppHqIFl2Ex0UqNSrBH3H1j5xXt1fsm2GArdNUNphHrC7m5yWev1Kg6kp8cx3uWNNpbUUza+XjAam2ZxV29k3Mq1jrmGaK60m0wW2O9idldOA6n1jcmYZVycT6wuTaVwpJKagsb+JjE29dDQ7tQcPzMKuqDfTDTGWHGzyWn1itSf20+sLA0+7mNkzTi/WNajeDX+Yr5GIsbfhl/AxK64E0p85GyT1gS4ed6bfdJ2Kjj1gcq9SuhqnuCYbc0aDnIiMs2u1iWQVsyq1jUc4ENRxGoeQH5HokjEXyIWbd61xP6ymKx/xjcm/ZtCSXZBQxzOITePIPYxsiLEwvm+IIUe+wUx1MX5JHdwhPxMC8eeibDCd2lXCP2TATYpC69P+Tv8AAR0zV7Ul2TcxMJBI8YgrCr9MbqU465MoGpeRvG8KJqDZWhnjI2jIHaIVFx0lZTibb9Y6G6tT1jKZpG/nCrqkWSWYtkY6xztzkusZS8k/ONiXmznvCA4SJsjbqWEUWYVnmjaBfhI2RKzCj1WfzMTl7vhNEdwrbTEZwtSlNNWsdVfxhqEXGllfIapO5i+R4xj8ovt4Qonv4LWix3Meff0t3Jp+nS0pKuKSFK72Djwj0FvnGI83fpYzM3IrlVS7RWSrliFsptUyaNadchey1BojtrMSK0rVPaRknO5iW/RclJim8SJ6TWtQSkDCdX+4wK9vcCJUVdqScygauUTv6MVbTMcRZyrVV0MOHbSTjkoxwvSsp7e2N3VajtHspPuj4RWdoHzeFCA3nW/3opN4UAjPtrWP+UegV8G/yEXGX6Ou6nFNUSaUk4PZKwfkY8UtSq6hxAnJiqvLdlkunKSsgDePVV53xQjSZhlqcbUstqxhXkY8eyv0xWbuqcvT9Sm1rO6egzHP9SvjCptSGMepyktnTxDpUsxVJacoDqkMhadYCtuYj2LwbdUvh1TVqUVEtCPFNzydepM5K0x5C1NuOpJUR5iPbXB9oS3D2ltnoyAfjvF+l2OdPJPYORBKWhTfpPVduj3tbM/MuKQyy6ta0pUd+5ttGHDaRm+Kd7m8qmrVSJXaUlye6c4IJ88iN36TFOlajxBtSRnEIcamHnEKyNx3I4rfdqHBm+hSpxTi7bqKtTB5Bo7AD849JFx9v/YhJtMadrXs7MXtPWnUZFMiqXSDLqTkhwEkAb7chGi9+JKqBdkvQJGnKnnVtKcWEBR0gfCOPitLS7ErJ35Iupb9lAccUPvIxgfnEfw6cYCZ7iLXChpl79UpfROMH8oXceuRNvQFXnxkqs5Pim1S1X5GnqcKETC0OD57iDyiX+1TK7Sre7JstTbJX2q1YAxj+cI7jVeiLguVlUjdMlUKeHe5T21krJ32xyiWuegfWy+bcpIqb1O1Sqlf2delacBMdFQrdKM1OWx71riFJU+9pW3whh1pxIWXw7sncjfG0Adzcf5xiozKLYtpysSsurQ48UrSkEHBwQCDygDuLhxOUO+nKPT6zUKhNzMp2bRfc1HOr+kYcL7todAlpi370qMvbzMq8rtEauzU6So7nnn+sLxqr0FzkNqV41yszYjdeapzqZkOhp5l1CkaVEE7ZG8FN6XuaBZctXxLJcD6WyU5O2rH84FpumWhxEsaZkLOnZQ/eRMNHIUrGxOIVPEi0OKFCoUn9PXLKzVMZeQlLSNWcZAHOAqhCU9MjlJIPOIV3ewXRRO0ZQDUXUaiVbIBViDm5r/ZoNWo9Nl0y8ymdVo1Icyod3PIQkePVK+laladP7d5n2jQkOtHChleM5jKucOPqZflpThr8/Pa5pWpL7uoD7M+UOW11tJAxnId9o8Q2K5c9QpEw3LygklBJK3MajjI5xv4pXumzaIzVGJZua7ZWnZew69I8v1wWqviXcBrl4TVFfS6lTTaH9AX3B5RKVGqVSocKVJm5l+bk251aJZ5ZyVIAGDmFPp0mHzkNy/awzeValrNda9iXMS3tKJxCjraISFcvDf8IE7dnaXbtRmbSaq6qzVw1qfmiNueNOQSIh7/AJS65zifR2LYZdLr0khEw6BnSgoSD+EVLWfK2nxTMuy4XH3JIKeUrmVaucN41aUkC5SSHtwucCpFSTgKB3g4HkYX/Cs5Q9nfeD9JBztiEcxNWPRvU212ZDlFj1isiK2/ZhVJ6CLgjHOOCvJ1Ut8D9g/kY7R/xjmqm9PfBGfsz+Rgq/Je0A/CpWl+aST/AHh/OGICDC04bdyqzIx/enb5wyQduUbXrUikzLIis+UYgnPKL7wsXst4wK8Qf+gSfOCrriBi/wAaqUT4RrR+RNnRYa9dDRjoMGCAEDaBrh0rNCHygjO5MVZ1IozzFRbMVmMuSL2XiAvlJNvTH/ExPZiFvNJXQXgOojWmX3ooiOGrgVTtOeRMGKTtjwgB4VuEpea/ZUfzMHw5QV7+4tFusUBvF8RaMG1ospe4hYXWOxvhh08s4/EQz+kLHiAhTdxS7o/aH5wzjyXZTGNJKKpVJPhGTykoZU4s4SkZjTSVa6a0o9UiI28J1uWoE4O0wvs1Y38jGM+m2io9yPJH6T9yvT1/BqSOtEsrXkHzMRSbypVQkmC62ovNI0rxnwxAzc9TQ9cE41Mq7SZW6U788RM8Mrfpy6opuop2c5Ax5P1aVe+Ujs48euiS4fXBTlX7LLkh2ZCwV6tts+cPiRuOlyV2omDMJCVpSCfOFLUbGkaFXWalKt4bWrnjpB/LWvTpgtTik6soH5RnifyWrGq4ICzDc5bY5E3fQkta1TyNtiMiEv8ApOXVJz1LZp8hMBYd2Vg+USDduSZUE6Vd7cwI8UrPCKMubp7SnnkchjMY/wDqqqyXAkMBrsQ8tUalZtRdVJEqS9058466tNXPN0kTBl19hMe8oJ5D0jvoshMVF9TFRa0rSdtQ8IcthSUvWbfmaIppsltGAcRlk58ISU4oZdH2jQ/R5AHDeWbcdCnAncA5xFNEy3EAj9tedvjC84H1p627rmaHPPHQtRCEkwxq0EMX5KqJ0qcc5+W8e39MyI5FClBnFvjqWhkKcS1LdosgISnUSTCStviyqe46ztsKczT8lDS+hVkY3g64v3GLfsR99rCnnkhlAPiru/xhK1mxJug8NKTeEo0lNXl3UzMwoDcgZzn8IchBPyKylp9Hp/UjGoqGE75ztEBO35aUlOeyTNdkUPhWgpL6Nj6wDcQbwdPBJdZpL+HFMIDjiD7qjgK/OFfY3Dq3LyoMu9KSK6jOPp1zFScAWhKvjzzFKld7IpaXR6YqVYpsvSFTjs4yJZachwLGnHxzCko13WzI3yoP1eUbClHBLqf5xp4tWubX4CztKE5MTGhOO2UrOgZGw8hC9sThbZ9TlJZdQdE84+0VrmMglCuhzjpDeLTGUWDOySPVrFQkn5QTbU0yqX057QLGnHxiFZv60XagJFFdkS+TjT26OfrHk6tXVV6BT52zGKu6qkJm1tLnQs/ZtdBn5QeW9wht+4peUdpFOdl28BxdSUBl1XPKSIW+nitvZXvNHoWtXFRqLKpmqnPsS7K/dWtYAPqY46LeVs1lz2emVmUmXOqW3UqPoDCN/Scp8tRLGt2Sn0zNValpkJIUQVu4Sdt4A7Ret1fESjfVajTVt6Uf2hb+AHiQNhp8/wA4uOPFrYSuHhxTr9BotwMuTNSlmndWSkuJyBnwzB7R7poj1ts1UVFj2XAT2hWMZ2GOceT+NNMl6beNafueizc8/OqUqQOBhKMAbZ8466fMPN/o1palZfK255ZShYyR304ENW43KqL2B7z5HrmbqtPk5VMzMzTbbSvdUVDBjWzXKW9PJkm51pUwtAWEBY1YPLbMeU7qujihPW/SZK4LWMnS/aGiJlDRSNjtvmOy5ardVH4uSD1pUdVRnV09gBBRqA7p35wp9KlHew/ePULtcpbM8qScm20PpQVlBUM4HONtKqcjU5cvyUwh1sK05BHOPLlr1a66xxQqjl4UldPnRTpkpaCNP934Zjk4bXvxIt2hzrlPtwTNDYmluOTKmiSkbZ3z8In021sv30eieJVSpjFJ9gmJxlp93dCSsAnHzhSP3bcVvt+1WxL/AEqEDsnmUnJR1zgZMDnFavtXZV7Yq7bCm+0QvKR1IUMxC2Vd8/Q7yuGi0FpT9Un3lJZTz7Mkj+UO1Y79p7A9/Z6M4R1CpzNE11txP0g8orW0lWrs0k5GfDaD1vITg8xzjz5+jImut3NXkV6dXMTWUqWCT3ck7bx6CaJKASkpJ5gxzrkovo0g2zPEYnIMXJi2Yw6fk2SRcjMUEgRlFROytGOMxiUCNkW6ROyJERcqwxS3VgdIHOHkqO1mJkgHtF5xiJW/ZoNURaM7kj84ysFlLdDbcI3UMw1GUo1gtdk8GkYPdSflFIZb0+4n0jYOUXHKFVOTC+DX2TX+Uj90RYttYwGkegjdGlzVzBwOpi0pN+SHDWQ01T3ldk3jT4CBzhy0gtPLKUnWs7Y5bmFrxN4uy9O4pM2k05mXcSkLUDsFHOfyhn2NMSsvRFTbryWmic61HbeHVFxqewG9MLAlCBnQNh4Rds5GU8vhHBJVmlzkwGZSoMPLxySrJMZTtXp0i4pE7PMsEDkpWIT2/wBB7WjuJ33G3jF87Rx0+oSk+12klMtzCBz0HOI0zdYpMm4W5qfYbX+ypW8SKbKcloFeKjqW5VlG+pawAPnBJaDHs9CYSeqQYCeIVQl5icklpmG3JcOAlQOw3g9pz0q1R23XHkBkoBCydsQ1bFqtFRkiQOem5i48uccj1QkmJZLzkygNrUEpVnmTsI2PzctLNoW/MJQlRwCo84VaYXJG0KUR5+EXyQCc9dvOOZubly+ZdL7apjGSkHfEXnXmJdkuvuNoSgaipZ2ECosnJEHf0wpFvuBAGDzJOMRz8NkBuhNvcyvECfHysrlraQ7T5oL3CuzbO6wDmIngdedVuV9tAp71NkJdnQsPDBW5nYj5Q+qt1bAclsdqSdwcZ8IzAEa0YKu0BzkYMZo93blCHhhrtF8CK0xfeL4i9smjU8MMqPlC6pyUqvZSyMwxZvaWcPlC8t8dpeLh8DDNO+LKaGKlIBMZYHgIsnmYvmFu9lpGCm0E7pEV2SP2E+kXOYvF7f7LYM3+G2qE8rSnJGBt8Y4OGMo19B6ltoUSSd0xnxMdKKSUdFH+cdfDpGiho8xDW2q/ID8k6unyqxuyj0jnVRaeo7sJPyiSioV92aLId22qW5zl0/IRzrtCjLGDL/jBDiKxF+9MgDV+zqQ3TnXG2ykgeMCdkWnKT0xNaSpODgHMMu719nQ3iPCBnhZ3nJlWcZMOwvkqmQs5YAKk9nMrTj4xSbInU/q51QHTMMDJGN4tnfkYW+okQAhaVYQO5UFRdNBryAT9IKP/AGwe58jFj4eURXtkFJfMtW5akalvlaTsRiNNnCusUsJZyd8wYcUSU0EAHfJjusVkJozalJByIejk8antAtbYNpqlyoJJl1ERgu5LgZ96QWr1/lDICANwkCLKaZUMLQkwnHIX/EtRYt0XlWQD2lOUkAZzk/yhQccLldqk3IpelSn7QDcZj07M0+VeaWns0bjHKEB+kDSGJKep5QU5U6P4Qp6jbX9LJ/IdKamdglkCwl4aR+p27g8DAZw3tWWDrs7oKXFrO426w0KgyG7ISNO5a39IjbIlcUsFIxlRj4zZ6nZVOSgz0cYKUFs0qoUufvOfvGK+g5bSQVOfvGCX2fyi4lx1G0Jr1jI88jaNFTQJv2vT3m1nCydJ+8YFOH1DYp92ziWmhuTkn4w10y4wrSPumBW1ZYG7ZnXy1fxjer1O6+LUpAOuuPgV/HKZCLzpkshCUpKxnb4R6V4dVqnS9pyTTjyUqS2MiPOPG2RaXxGpqdWxX/KHnadjCZoUu72xAKBiPrX8ZUHhfcefypf3CSuyjWjcdbkKvPPH2iRXrbIX5Y8Yl60/a9ZlxLVANPoRhSdQGQR5xF/+n6eXtBihYOF6VPkoIwY7zUP2LSiDXFqScuGTplBpkwhunFYDwCx3kAcvwg2pM/bkhQ2KUQ0WGkBIQUggxGt8PGEJCe1cyk5BjemwWFbrc9w7ecaSlXKtIpx6Au96FYKNdQlKcwmaUoqK0pGx+ETlqz9raJeffQj2ttOEL0bpELa86jS5K/HrZ7UFZSFJGfvEn+UFtckqJathiqTugOHGM+cOOqMakZJaDScq9rTFQbqjiEmcZ3QsxBVxqwK1PqmKhSmn5hQGT2YAP4RCVerWpSOGEjdE1KNzT8ywCw1jOpXOAWRtTizdQ+m6dMMUqVWNTTBKkkp6dPCMIRr0XsctJuOg0WTTJUunoYaQnSEobxj0G8a6zdFMqsmWp6Q9oZQQQCOsAPDOvzMpc5s6+KW3LVAp0szGCA6M4zvz3jDiBc0zO3EuzOH9PSucSAXZpIOEE+Y8xEgociJpnXd9UlZ6sSUwuQymWIKCRgpwc7CCh24Wp72R6Yo3aqa3aUocjj4Qp5y2OJ9IrUua3UmJ5LndCtSjoJO3SOG5RxfolzU2im4pZX0i6Uy57RXcGCR08IbfBoF6QzKpT6DVKiubnbUQ5Mr5qI5/PEdzjra6U3STbSUyrRyhsDb8oLeFtEuCQtwM3VNtz08RnXkn84L0SzCUpSUISRCE71vRooixl6tUW1h1qihL4ASHMbgDpyiBrtOm52uuV9ynrEyW9BOT7ucw8EsMj7iY5aq037C7hKeUXVlaknonDYmbEq1XYfmES8spRB5fMwWCvXERq9iXv8f5Rnw2SE1qdQSk94/mYYaUIxjSmKybk5BQXEXX09cP+iX+MW+sdwIGPYVHH/nhDHLaP2RGJZaJ9xMYe9FrWg9bFx9bbgRzpqj6/wAoxmLzq3s7qXqcrBSRnfw+EMgy7B5tpjhqshLqkXj2aPdPTyg6ra99oHixNWjdTspVXj7OpWpeTtyg4av7Gy5ZQiJsymyUxXZhtxtBGvl84Oza9HUN5VHpDGTOvaKitEG1fkqr3m1D5R0N3zTfvqUn5RJG06KdvZkekal2XRFZzLJ9IW5VBGhF70Y7l5WPhEPd900mYpa0tvE7eETDtj0NQ0hhI+UQV12ZTJWkOutoGw8I0o9rmWbOH9zUtqjJQt7B2ztBL9aqMFlJmBy54gHsK0ZCeoodGxJGdoIFWDIqJOenhEujXzZRN/Wmkf54ihdNJJwHxEF9QJX9uMVWBLaSAveA4VfsgRfWalf6hPrHBXK/S5inuNJmE7iIj/0+b/zjGD1gNBpR7Y7DaDrhSpLshGcN6zISs/OIceCe8cH5mDxu5KXpH9oTCeotrgXO7KrdKQowbosBOCA+raNbq6W97Biwr+sdL/1Ii31kpX+pTAuOH6f88xX/AKfD/PML8Kv2aJhR9Y6Xj/qUwDX7Vac9NMupfHdUPziR/wDT4Y/XmB29bIblJFC+1OdafzjbHjSn5BYdU24aamktpMwBhsQJXBWZKdLjZf1JUCOcdNLsbt6U04HjkoGIgKlYcywVLLigkGI41baQK6ezzlxhthqmXGmuSzmpBXugD4xNU15nspSdlcEgJ1Y6coZd42G3UKM8hStagnbbrCktSWepi5ulTXvoUrTn4nEeO/kOLFxbR2fT7U3odz8uitWk2+O+pCNsRVjPrWwqVeSdSDgAmNHBebExSzTnjqUDjBiYlpRFOulwkaUK5D1j5TkScJNaOnKepaJtDODjEZexsrQpCxqB5gjMSbMuFICscxG1DLYGCmOL9RJT8FqxiQ4pURimzjc3JsaUqO+BjG8YcL5hqUrqRr2eIB3hp35RWp+3HwG8uJGRt8YRNJeVT6uwTspl3vR6fDu9+lxZOSaDDi3SF0WvSdxymUNpWkrI67iCtF1U+tTFKqfbjIAz8d4la7T27m4dlDgDmUZHoYRvDmW/+sDbriyEtrwAekfQv4TlJcqpnBy4fdsLeNdJrV88QZKkSVWVJU1LaVlYGoagkH84vNcKblmZFVPmOJTipZSdJbMuMY/ehuythZQl3tiHNIwryjJdgOkFSZtWeYMe79ytM5zr2LLgXRn5KkVm07km/aqbkhBWMasqO8a08JJ6l1At2xfLlPppVlLAbzgeGcw0Dw+VtpfKc+8R1jIWG/nuTqxt4xTsrbbB4gVxXkJel8GX6V7e5POue+tSiSSSMnnCwleHs65UZFulXO9Iy7zffRjVgHmOcPub4dKmZdbE6+Xmz0MLys0pqj3U1KuTnZt6ghJJxzMMYlkOLJZEMKbwutBFhu23MLRMKfBUt9R7ylHGT49IFKRwfr9Pm22ZO/nU01pezARjCc8s6oYbFmzq2m3m6irQU5CsxG0uhTNRnZhiXqyiWDhZCuUKya70wlGOuzVxS4cfW22qbTJOuiWXT1haXVpC9WxHU+cCls8DJqWrbE3WLrTNty41NoSwGzqxscg+McvEC8Za1Jo09uqTVSnEr0FmXUFFPniOSyOITVxzokZqozlLmidKEzpCc/CNIQbh5K+xBpO8MlPTNYrVZqiajNPNKTJhWAGs4wOfjAVYthTlSt5+1p6ZEq6JsvZG4I15H5Qf1yRnaPSVz1RrWmWRuFrX3D8IR8rxVUxczhlBUnka9HbsAFPPHONa6Pcj+RNQ1s9L3jaDVetWWpAnw0GXW1qWEg5Kc+kR9I4epk79auRyoagzKtspRj9kEZhS3TxanLedaCm6jMSy0a1rbAJEdfD7ibWLtqhkaexVG0rAKHHwNOD8Iw+me9cgU4MaVV4fCcvWYuRFRShx6Vdl9GAcBacZhbs8ArkbXMSrd8rRTn3CtbAZGDnn1g6cYu5A1JLp9Ysly70J3S6fkYpUyS/IP2okPcvCGWbZpL0pP9mmmtqGjGdZOCTz8o3cHLLpNPuWpVtxptyefWTrUAcco66jOXQZRSXWHMaT0MQNkVGvNTM0lqUcWoqI5HbzhmFUvZf3Ae3FMLOG9qVai3rWqlONIRLzRBRhWephltbpyTuee8LQXDdLaf8AoXXCjoUmMvrZcae8uluJKtyNJjnSolI0j0MvbxihgecLhF61tHvUtz0MZi+al96SUk+GIz+mkHsY8VGnt2v8wesUH2j/AHgjLiyG6MVcow7Zv9sRZTzYHvj1i1FkAPifMLDsvLIPvqGRBTabCmaM02ockjEBF6LE3d0qyHNgRtDGkAhuVQgKGwhixSjBIiOnG0WEW1p/aHrFak45iFVFhF8xAX1XZe3bWnqpMr0BDatOf2sHETuodTC74zWtX7xpUrS6XNIZlC+25MJUrBISrJHLwgorTKkhA1myFVrhzUb8mwv6VedW+w4CRhBwQMfMwwLWrdv3DwXZlq9Puy/eS24GXShZOSOm8G960yXpVkSlDabR2SEdmsdDtChHA27Jp5yoUmpS7CNaXZdvtMJBG++3jHTjJe3tizjJsh2pehWXfFJftSrVYrcmg24ibddcCk4PLVHdx4foL/FiTRc9SqTUiuVQtTcq+42SdAP3Ylalw/4pP1mjT9zzyZ4S84CWmDrSkYO+yQYnOLXCu8Lkutiu0GYlUhEuhsomF6dwkDwjJTipbKlGWgH4XXG3QZy5Ju1ahOP0mXZW4y3NuKWoKAGN1c4KrP4Tt39TV3Rc1dqDk3MKUUCWm1tIQOndScdY7eGvBWuy9Qm5u8ZpktuMlnsZZWpKgep2Ea3uGvFa3JiYlLLuVtulLJUlt10JKcnfbSYllsW9RQMVL5Ffc0vW7cr1UstqovVBlhpamFaiVgJHiTk84L3uMdtt8JDba5qcbqjbKW1BSF5Ctge98omuHVhP0e9XJy5p1VVqTpKVE4KQDjOCMQy744a0OsWzMydOpEk3OPDKXFZGDnMaW2xjFKSDSYsOJdWmpHgNQ6ky5MOOGZYXhKzqX3ztAzeHFavV+n0WlPWzPUtAdCQ+p89/bnyhvXDw6q9SsGlUFmZaQ9JvtOHUrYpSvJ6RI8RrGm7htmnSMr2aXpVXfJ21DGNtoy5V7RdcW0J+t31VrN4yLdlqXOVfXKN4aQ6cJ+zGfGCK9+JzN4cIK6puXfplSk2la2NZ1Dl1GPGM7x4Z8SDeor1oVOVlcsJbOpzHJIB6HwjKS4OXK9aVaXVaol+uVMKS4rI0jODkHHjBv2doGKYBcRqw3TmLOm5t91xktZW3qO50p5+Md9Due46txPo2iUEjRVLSGUNoCO032JxjMTle4dJqddt6QqzqXEyIAWAc6jgfyg2vK1Ztu9LZNLkyJCR0g6E7ABRMbTtrUeIOnsbLIBaBzjCRG5JGnY4jW2NLIwADjfMbACY4705DcfBcEeMZZjHG8X2iul8hGqdP9kc/4wA2sjNzvLHiYPJ8/wBid/4wGWOgOVCZdPRcNUP7GC2HKORjKMQekZQq32EYxUXPKLHrE47ZNgNxUX/Y2UDqoD8YnbLaS1RmkgfdBgZ4rLIXKI8XB+cGNuI0UtkDqgQ1JJVldEliL4ior5wqWUBFlbReLHlE+CaB++jpt54xBcKkYlXHOpMS/ENWm3XPj/GOPhg2BR0r8d4cgtUgPyGBJxkRkOUY8xGQ5Qk/IUfBeMSN8xlFjzi30XoBeLKimkIA8YnrOQBQ2BvukRAcWv8A4lH/ACghs/8A+DY/4CHH/wBIF+SZT4eEX0jniLJ5mMukJplo1uEIQonliED+kQ8l+tUxA3w6P4Q9qq6GpNw+UeeeLDntdxSAV0eEc31Xf0sjWn8g8rQH1NQCkfqo5bGltVISoftGJO5UpbtFAH+VGFgt5oSSPEx8Xza2uWjtVT6O0SvewTiLpkySQT8I5Ljuai0BRVUJgJx5iOe3Lzt+tvBElMJUonAAI/nCMMC323JmvvIk0yoSFA/smBC2G0puybCgeZ/OGAG0dmpwHPdMBVuN9pdsyAPvfxjXBrcXozlNMU/GdvVxJpYAONY/hHqGxcfViUA6NiPM3HJXs3EilDHNY/hHpmxd7YlFeLYj7Z/H1xwUcW/TmTYHWLYG/nGQ+9Fo6/yYssRlOCTGiYcCWFuL7unwjojgqzT7lInGpRQD7rSkoKtsKIIEFHyT4PF1/SUxUL8rl5surK6dNrTgZwpKVcsfODS+3X+JVNlaDSX1ezS8mp+YKT95KdQGR84IEWPO0ShTkjWnG35ifmFrWQc84NuEnDaUtK255Dag9MTyFd48wCCMfjHYnco1pC7WxEJnVO2pZrc3kyMhNoYfKuScJO5j1tb70q/SJVySW2pnsk6SjGDsITli8PTUabcdp3BT1JkHJpZl3Qk5TsBkRHp4dcZLeC6fa11NqpQJDSXXgFIB8gmErJxkugIxZl+kKZec4jWvKU1X/uSXkrUWzkpTqPPEav0aX2JS8q/I1UoFUU4SFLABKdZxjMGHCrhRMUSqLuO6Z9VTrju5cWQQjyBAEaeKXCh+r1hFz2hOqpNbawNQwlK+m5OYr3YuKiHwZO8RkaarIADUNYVjPnAJxSCTxcsxWN+3GBjr2ZiGdofFmnXLT5i768zOyaVABDbuojf/AIiGFdVkVKv3pbdel30plpFwLUM7+4RGvLjFNk4NjUl0jsU/8RG3SnHIRg0nShKSeQxGyOe5bGEWAHlHNUkpVKLSRsRHVGidGZdUFW/uRH4F1w2P/wBRz2eijj1MMpI5wtOHvduaeH+8/mYZieUa3dsFF8eUWwPCL5ioX0gyxAjmqX/QPAdUmOqOedGqTcH+0wUElIpi1sk6LqfT/v8A4w0AMCFZax0Xo4kdXP4w0x7ohjJik0VEvgZisRW+YvCvEIxxEHeiQbef/wCJid8YhbxH/wBPzA/2xpV+aQL8EFwlP/shHgYNUgBRxAPwmOKUsecHHiYPJ6sJEzxFYiooGMdBaKAjBwApIMbBGt79Wo+Ai4rsH4FjUAG77b0bZPSGcyPswfKFfMK7a/EDwMNFv3APAQzkaSWiomUUBtFusX6QoGY4gU4iICqWgnotP5wWwK8Q/wD4lP8AzT+caUrsFknbKiqjMA9EDEc91OBEoUADfntG61R/7Sz/AMBEVdrxLmjMSb4yKitg3jWnQoAjrtHnziQlNL4hF/TpZdAT88R6EV3W1K8BCe/SBonayDE+2MKbUFEj4wh6jX7tQ3iy4zNvCmfVJXQkEjS7DIvhssTcvOI2CiMmEZaNSKVyc4nxAJj0LVW0Vi0WX/vIRn8I+VepYTjZLR2LJ9bRM0hSZintuJPMCOvSASBzAiAsB0O0hLeclvAiUuapsUOkvT755J2jz30k+XSMnZpGqp1GnNKMm+8gOOpI0kx56vuQNPrsypCT31HT6xE164a1VOJNNnkuOCUcdAwDtjUIZXGGTZYTJzCW/wBYgEnHlHpMXA+lSb+S6LNsLOD0/wC22yqVUdSkoIIPmDCymqIqh8cZd4JKUTT2/qYIOBtWDFQdl1nZwjETXGCXblrkkK2AAJcjJ9Y7Holvs5b10hfOj+h2yQHs7Z66E/lG9KRpGOQ5RFWlOJqFBlpkffQPyiWQMIwY+hwly7OXrRWkRWN8RlFusW97K0aXu6wtXUDaPI36Sc/PzFwSstTCoTnapdQlJ3wlUetakookXT/tMeXZSUeuD9ICXaXKrcYl0r1ukHGcgiOjh6SbYFnaGhad9qa4MuVaZI9skmezcQSM6xjO3zhQ8H7rrlOTdyqkpxL8yhTrSVHcDSojHhBRXbBrqeKX0NKl76vzr3bzIA27xORy8hGV10OUpfGtin5DbFQkVsoGMD3An+MHBwba/Yuk2TX6Ndr0ictkXVUpdE5UqiQ6pTw16c9N84iZ472VRZuzJiqMyjEpPSn2jTzKAjGN98c+UANuXFcnBidmaJWKVN1Ch9qfZXmGysgdBtgchGV18Qa7xVbRbFrUOoSks8tPtTz7SkaU5+fnGT3GW99F8QVNfqF6yll2zVnnEyrrSVzC0rKe07xHSG1YltUOUuN6SYpUs5LNoSAFNpJ678ogeJPCiapFi0ibt0D6RoqBuPvgEn+MC9g8aEUyqFVYoNSVOd1pfZMFQ2OM84bU06m4k4jd460imM8LaiW5CVQpLZAX2KcjY9cRIcDZCnp4eUp5qUlw52CcrDQCuQ64jl4uTJrXB2cmpWXd+3Z1BtxOFDY8xEtwXaXLcPKWy4yWldgjYjyEc/b4PYUYLYaBtGMaRiKLaCPdHpGY5RY8oX5M30tEdV2mzIOkoTsk9IB+G6EqrU8NIxk9PODavr7OmOn/AGmA3hcNVRnHPFRhyttVMHS2H/s7WR3E/IRj7JLkklpJ+IjoA3i45mFeT/YejkVT5Q82UekaV0qRUreXRy8IkYxiOya8MoWKqFciR3Zp0/8Acf5xpNKupJ7rzh+f9YaYQn/wRfSn9kekb/UL9FisEjdic99fr/WLOMXYltSsq2G//mYaekeA9I4qs4hmRcXgcueIOvITl4K+BFMt16duQLBJWgwbtrutIwEkgeX9Yrh00mauCddUM4UcbeZhlNoSE40j0jXIyUutFRFwH7rHNs+n9YyTM3WNw2fT+sMbQg/dHpGIQB90ekKxyFrwWxfJnrrG3Yfh/WM0T91BaViVJ232/rB+EJx7g9IxUkFORtv4RfvJvwX8CQvmp16Y0yz8uQvXsIJKPVbiYpjLaJI4CdthGN4hMzejMqknpsB8YYtMaQ1IttlI2TzxDN1qVa0CkBKrguRhouuSJ0pOSSBGmnXTWJ5pT0tLdo2CRnbnBBxNnk0mw6pPAgFtgkHEJ39FK65melqhRKvrS6h5bzZcGNSSoq28doxglKtsuWtDCmbqrUu80w7LhK3Dp0kDJHjHPcV9zNAkXJyrpRKy+nu6h3lGFZxBvqcmf0gqZKSylClSswJZ5QGxVqz+Udbsu3xR4xzklPvrNJpLDa0scgsnIP5RvVWuKbQry0yLpPGiizN5doHCntcgEggD8IdUpdNVek0PNtIcbKAptxOMH4wBJ4b2nWa7NUtylNNNhCkILecpPQwD0G7KpY9Iu611uakU9GZVwnJALmkfhG9yhNaDUhkXTxzo9vTiZWfeSJnB1BKc6fSLI48URVvqrXa6pRBKchBBBHXlF+C3C2gKt1uuV1oVGoz47V1ToyE+Q+UH6eHlooQ4kUhjs1A4RjaFZSpT8BVv7RYSP6SFqTE0iWQ4t51SgAEJIwSeu0MBF6TTjKX0SilNrGQRCw4G2nb81el0ImaVLuIYmUBrP3efKHdPs0elUx1T6GmmEDbJ5Rc7KItdFV9sUybgefuxUy437p2GOUHzF5LDSS41qxywIQdavmYcvKYZtuSTMIQTk7+fxgosDinIP1v6IuORRLv6sDnj8YxnnYrfE29pjZTfEuRlTStozTf1O+8FJPhErI0qhTrKX5dhCkrGQRFLtajrJJlU5MX7lL+Cn0cCL8pB95REb0XpRl97tD6xkuz6QrOJdIjjdsinlvSkaT5RaVDJtnVO3TS3JF3Q8M6dhmILh3VJPMwtTgGpZ5nzMcd12fKSNMceS+tOE9IirIs0zVPUtqddTlXh5xvGqv224+AexssT8o5kh5PPxjamZYPJwH5wvV2PUkEhupO4+UaV2zcEuPs59xULezFvphIZIfa6OD1jPtGyPehXCRuxg91xTnxP9IzE5eMuMBjV8z/KC+mX7Js6uKBKp+SSkjBWOnnBzRklFOZSSPcH5QkL0rFfM3Krm5fSpCx1Pj8IK5C9KozKo1yZ2QPGNbMZ8FplbGiCIog45wAMX6AftWFD5GO1i/aWpQS5qST5Qo8aRoGPqYuCc8oG2byoy9u1I+IjsYuGmPqCUPjzztGf080QiOJzmLfUgKwSR+cdHDhrs7cZJ6pEQXEyoSr0ilDbyVZUOR84I7Hdl025KpDic6BkEw1KLVQD8hEAMRQ5RilxsjZafWMkkY5wlp7CReLERbUBzMWK04IyMxemWBXFhGaEFeBMStivB2itb8kxxcSdLlvlJ57xjwzcCqIQVDKT4w3/APiBYYCMhsmNKHEYzrHrGRcRhR1p5eMJJrRaIS65rRLlpPMiEReQLl1SYO/2g2hvXRMEzhSlQIx4wnLnUtd6Saf94hH1DvHkaVP7hpXcjFqoH/6cWsJCvq+nHnGy7trbSkn+7jZYOPoJHxMfKcypbZ0Yy6E5NWjVLr4nTDVSU57E0onSScEbGI67KRKWjxDpjdEdUlDjoC0JOw5wxuJV+yFtuOS9OZDlSc2ISMnfaBbhtZlauK5frLcWoJJC2knpv/WHq4/2e18AqQ7JVIVINvcstDI+UBlrIxeE5vjvmDwt6GFtjkhGAPlAFbiyL0mT/vI/GOTTRqZpFis/SJRo4lUcn9sfwj0tYhza8nj/ACxHm39JH/8A2JRSP2x/CPR9gqSLWk8kfqxH1r0Rawkcy38yfiwixUn9oRQUnlqGY6iRi/JlGKgMY84uCD1iwwdW+YrT2E/As+Iy+0r7LQ6429YYFDTilsZG+kQvrwSHLzl0f7h/GGNTAEyTY8BDl2/bQEVs3pSBkgAZO8UEpAxgRQMVrSOah6wnFsNxRfG8UQCNxGBeaBwVp9YsZhgc3UesXGD3sHYAcUQEzUn5rH5wZ2+ofRrX/AQG8Un5dT0mUrSrCxnB84KbfnJUU5vLyNkDrDk03WibJlJjLBjgNUkE/wB+j1jWqtU5IOZhHrCvtP8ARZJ7xonNXs6uu0Rqrhpif79J+ccs5dFM7FSe2G/hB11S5eCwV4egfWae2Pvnr5mGYk46QobArlMla9POuOq7yzjI8zB0bwoyTu8rfy/rG11Ut+AYhLnyi2YGvrnRf81XpFjetEG3arz/AMf6xh7UmGE0ankgsuA5OQYHhetF/wAxf7sa3r0pCmVaXFekSFE+QL8AzRh2XEFSdJAKvHzMNAZ08jCVYuamovsPFa9IUCe78YYSL0o2kfaL/d/rDWTTLaJEKOvIxXy/GBr650bOzqvSNiLvpCv74wp7Ey9hAcDmYibtGaG+B+zGhNz0pfuvA+RjmuKs096ivhLyc6eWY0qrkpopvoieFGRJKGYPRtC44VzrCWXAXUJGdsmD/wBql1AYfbPzg8qD9wqJ1RXWNSX2TycT6xmlaTyIMLaDM41zGzK/hGeR4xzVJ0NyjivKLiuyn4FpRU9vfLi+elX84aSN0wtOHrYfuOefX0UcephktqToHeHKN8l+AYmfWKxtGOtAOSoesV2rYHvphUMzgT4jZFHSAfvp/OCRcw2M/aJ9YDuI82yKc2NYPfT+ca0LbBCC1AU0Zkq/YEDdyvBycUkHkYlabUmG7faCVDV2YxA1MLLz63DEtg32SPTNK8ltQ8oG+JlPbqFqzQG6ktbD5QSAEjJ233jmqUuibpz7JHvIIGeu0ZOO4aChLUjzFYrrzMrMSr47zK9sx6d4YzTdUslaFHKgkp3jzStC6ff87TljSlef4Q7+BlQShx6nqPd3MfPfWMfVsmdv8q0wjsJfstYmacCcgk7mFnxvvhxy5GqI+VtyyF4XgHBEMZhxuUvx1xBKdaiN9h0gnqlm21VnEzM/S2XXVnOoxx6HCD3JC8/B5kvi67VbqdBZpeR2LiO1wMffBPSG/wARwzXbFZq0glRaQ3t5bRCcVOFUjN3HS36NS222WXEl7STuNQP5Qyq7S5RqwXZCUaKG+ywEY5GHsq+FkIqINMnyENZE+uSuaS+6kk5x8RDT47BUxYDk3LDKgjVkQmkuGUqAWoYU0sj4bw6w83XeGakrGoqaxFV/2royQ3fDmjp4I3gX7Pl5ZQypoEHMHYuQ490R564J1FMvV5ynKUEhC1YBPmYbJebyftE+sfScCErKFJI4l32sLPrKf2Yv9ZO7nTAj7Qz/AJqPWLKfaKdnU+sNwok14BUlonLnufRS1YGMgwO8MpiTYU/NuS7ZdWSdekaj84iL2mEimYS4M+GY32qlDdMRhY1HGRmHIVOMHtGe02MZFeZUvUEJ18skRFz/ANBVWptVCclW1TMv+rWQMj4GIfu5UArp0i+FBOUAeeY50VNz2GooJp2pU2cbSmalWZhsHYOJCt/nG2lztGlCoyspLy5V7xbQE59IElEE53+EUnfkTFvk3oviFN2VuTRQ5gJX7yCOcDvDGh0eZlHZl+nyri1LJ1KbBPOBO9ZhYbbl0OEa+e8T1rOzMhTm221Y1DMPKPChgcexnuS8s9LKl1tNqZIwUFIII+EbWGW2WktNNpQhOyUpGAICWKzNNHBXqx5xJS9xqA74jnxfNMNRCrfEYq90xDsV2VUNzHQmrSqzpCxvFJdkZy3evsqK+sn7v8DA3wnaPYOvE+91js4h1Rj6CcQlYySNo08NpiWYoDa1KAJAzDseqmD8h0BtFY3iOVWJRA98RzO3BKp5EQoGTUYFXnAzMXIAe5EdN3G8kBQ6mDhByZTDoRUXHKLRmyyogL0eSxQJg55JidB6dRzgL4nzIRSSyk95cbY8fvRT8HNwqliJZyaP3lHHrB8nrA1w/Y7K3mcDnuYJE53gch7mDEyMVFRXSM/AZUaplWllSvAZjYeUclUcDci8pRxhs/lF1rsFi4lT7fxBS8NwlYH5wzmxpbCYW3DpozNYmJnGdLpwT8YZmDiGL32kSPgVf6TU6ZbhtMSiQrVN5ZGPhmF/e1u1e17Rodz24yszYZQy8Ejf7RITn8Y9B1ujSFZlwxUJdLzYOQD0MbnJGXdk0SrjCFNIAAQRkbcoCNvFaAktnm+8LRXQ+F1Prj4SaoZtE1NrUN8gHP8ACOaqKrFg3FK3zS5MTlHqMo2iZLSd0EJyTv5mPRNzW5T7hoy6TPNAyyhjaI+rUim0uzV0sSyFy7TeEoXv+fwjavIlJ8Qfb+RC0jjhasvOzUzT1qmqg4gpalwe/rPLPTnEjZfDGr3LaderNeYVL1GrpJaQ4OQ16kwbcLLOtxxRqBpEv2iV5TlA2PpDWS32TeAkAdMDkPhBXW8WUo7POvDzi9L2LTvqtxABkZiUJQ0tQx2ifHrDjsG96BelOcnqFNJmJZJKdQ6K8IkKzbFvVp9KqhTJaYdQNlKbGfyjqodDplFllS9NlGpZpRyUIAAz4wtKyMu0g41qAoP0fwRxCvFJQpIS+jTnrsYmv0iafWJu0HXqY4pJSk6kDqIY9OpFPkX335SVQy7MEFxQ+9iIu/ZqWl7emEv4UOzwMjnGV1sH2aQim9o8XcM64qlTzyS3qmgtSVA8+ZiYuX6MWiark84hicBKkDrmBG65ZVPuScqsksBRWcJB25mJbh1ai7yddmKxOKSnOyM848llpY93vNnWqrbiPv8ARUvp25KW9IPu61MqISSemYfiMY2OY8eUaQneGVwMztMTiTWsBYBztHqe0LgkK9SmZmUeSorQCRncR3MHOryYrT7EbqXB7J3MY4zFA52iwO58oe3JMX2CfE90NUQjO5zG/h1L9nRklQ97eIXis8VNtS4O6jygutVoNUZgAfdEPy3Gn/uWSmN+cUBFJB3zGUJRZNGOlPXEYqQgjlGyKi+RBb8VZdHaSrimgRrG/wA4J6NTpCbpzKly6T3B0iD4sA+zMb/eB5ecTtnvJVRWjrGyRzhtyftgPydC7epK9lSbf7scUxZ9IcVtKtjzAiTmapKtDvq5eERU1cQST2IyBC6vkizgmbEpyjlCg3Ee/ZLDfu1IoztsTHTNVuaeJwMD4xxLmXlqyVnPTeNYZMm9Mv8A7ALe9GckZhLYn1qGRjvGO6lmsNSLfs0wspA6mNd8Fa1IWtW4IiaoB10pkk/d8I6EshKsBcjnYrlxsbYUv/z4x0ou25G9lS6sDy/rHbgJ5Y9IpQChvj0hBXpvtF8WcLl7VYe+2rMa2r9n0rUpbShHYZZhR76En5RgqRlCSC0N/KNYyjImmQVz3qZynqSvVkjlmMLJvBErKLbC9OTHZXqVIewrAYAOOcQlqUSUmpd5RyMGHa41+09orYZovFs4Sl/n5x1N3LrTgTAGfOBX6rME57ZSTiNLtsrHuTStvOFfYq14JsKlzKHla1vJUecLStuIevyWCVjIUInBQp1CiEzSuXjABLsTUvxDbQ85qwodfjHF9cq44ra8G2O1KWh3Xm+U0RCTuNHOJSxhi2kKQNyDA7eMwE0dvXyKcDEENjulNutACPlEp9M6jhpCCu+272Y4iTFbYpZnGSvKQU5/MwbWlcfEw1KWlp2iIYkSQCQ2AUj1hwJcRuVIQok8iBFFbfalQbRy225RrLO5Q0Yqtm8KUZTUsaVFPehdUQpTe85oVlOs/nB886OycIVnKYWtvTAN3ToA37QnMY0S2mzaEHsWX6R8wocQaSsn3VD+ENq1rxRLUKXaLg2QOsJr9IkdtfdLSTzV/KGJbltNv0lhxTqh3BsI+r/x2uM8Ts5eRFqwLnL+ZTzc/GNf/qGyAdJJPxiJbtqVRsQVR0y1AkkHJZEdyUK4+DLR0I4iOa+6lRi//qPNlxemWVjPlF26ZIt7JlkmKXIyaUODsk6ufKAhx32U4sF5u7ZqbulEwGMrSQQD84MmbzrHYJSiVHp/WAmQYaXdHdSnTqx+cGqGWkgAIEa3ShpEjFo2i5rheHdl+nQf1ikztyzOcIUn/wA+MXJx7hCfON0vOPs8l5+UKK+CYXFs5lSd1PbpWqMU0W6FnLkytI+cSrNamm1f0jvYuJZThaBBxyO+i9a8iyvOkVNEww29NOalLG+T4wU0qzam5IpUKm4kFA6mI+76w3OV2VbzgJWCRjzhlUupyZlG0pXsEAHaGLsn7FoHiCKbAnz71Tc9TG1HD9z79QWfmYOG5tlfuuJ9Y3BaCMhafWEvqZk0Ao4ft/enV+pjCYsOXZl1rEwpRA6mD0KH7SfWOapqAkXd0+74wVeRPkiaFBZFpy83WppCnc6Sf4wcIsKRxuoKxETw1KPrBOkftHr5mGQlSMe8PWNL8ieyRBBNhyA8IyFjU0c0A+cFmtI+8PWK7VsDOtPrCyyZhAqLIpo+4PSKXZVMCCOzTBKqbZTzWn1jkmanLNsOEubgQcMixvopioctuQ+vjcsEDSpQB/GDr6k00oGlIgPp9Ul3b4MyVZSlexx5mD1y4WQn7ON7757RUVs4FWLT1bHb4Rq+oMhvpdUPnHU9crgOEpjkcuCaXnCsQv8AVSXyFo1fUOUSSfa1JOPGIm4LOblqU84J9RwD1MSKqtNuKKS4c4iLrs3MKo7wU8TsY2oyNy8lSitAtZtHcWFBqoLT8zE0/I1KUCtNRcV/3GIuxnHC2o6sQUDJGCdWfGN7slAwiQrczcLByJhSvmY62LkuJhQ7ilY8f/zHf8UxQA6pHpGH1UH/AIl8ZGn67V5v3pYen9Y4a3f9TVILS7L6RjmBEm42yRu2IhbpYYTSnD2YBxB0WwlNbiTUiLsu8PYVvPOAp1n+cFTN/S7gCe1wT5wPW/RZN2mpW82MqPSOmYtmTcWQkaMeBhi/2pMvTQRt3EXxqRNj4ZjI1OYXuma+WYC37XcaOpiaWPLMc5p9Zl/1SivHUq5xgqISXQLbQd+2zfVzVA5esy85LISpZ99P5xD/AEvWJPZ6XJHlvEXV7g9pKW3QQdQJyPONKcWWvtK5jCprilU5kFRxoGY26h0iEpVdkPY2wHBskAxlNXRTmU7qyfIZjGWHe5eCvdj8k3904ycxivUUAkbAGBCYvNgK+yCuf7MRsxeM6tJS2jO+0bx9KvkvAP1VcRccSmBK8S/aiMBxf8YPOETnY1tzb3gIVvFqozjlWlZxxvT3wcjwzB3wznuzqcu8ojStKQPSPnf8ow50Tez0GBYrq1oYt3qMvX5V/GzigfxhjS8wFScvjqkflC44gOgolX8e5uT84LranRM0Rl4HIxgR4uyfKsKdf3aJhSzGmaHbSrjR+8nEYreBHONYdzt4wtXP7tlwr0zzZdEqWq9PJPVe0MnhdMh62FSi99KMGAvinLuStwApTjtCfziR4SzykzkxLLOw2jpym3HkvgcS6AeecmaJxEeTJq09orp84MVzlUWAVTK0nG+DAlxTaXJcSZVSCAlwjrDBkqRMPMpcGMKEfb/4XZXbiJTPDer32VWsh+2qBO8256mLpfnwcicc26ZMEKKC6s6cjIjYKAsIyCMx691YyZx3lzfYLTbs/NJ0LdWrHnHXLVOpSreEE7RLPUOZG6VCONymTTW5GY2+nxprQUc6cS0vc9TbyVJJIjravSeScLZMRypV4DPZnbyiOqU9IyBSJ11LJXyztC0vSqG+jaHqM2FzF575W1j4x0sXrJBagtKskfdMLuSrdDm5z2VibQ46TgAkAZjum2ktSDz6VBKkpJEY/wBIpZqvUZImZmtSc/XEqcLnZJ33PWDCTuGndklIdSnAwMx5qpbt8Vmbm3aY+yllpzT3ikZ284krVn7nTdKqTXH0pKUBYKCCMb+HwjK30qLWkbRz9no1FWk9Iw8k+YjoZnJZ0fr0wj5m4KbLoCnapjJxsf6x3SNREzLGYlaiFNjmdXL8YSXoSZqs8c5dZHJ4RmiZwMpcHlCMbvCV9q9mTVB2ucAFWP4x21C7V0tAM3OBKVcjq5xivRGjVZsBg3tOqKm2u1zqIzExb6+wpTaNfPeE27cTc+hM6Z1stJ31FYjppl+Im3PZpKaQ4pJ041DnBv0ibjpFfWQHV2pUPejDKd84MKx26KgwQHVpRnllWMxrmrwnZctpdXpLiglIzuYV/oNu/ISzYaGvrQOoEQN11JEslpCFjJOT+MBprdUXnvcgDsYjJ92enlBanSCOhhzH9Dsj5Zm86CPWudotmBL69Ur/AHekbWrypa9gvHxjznsT/Q/sJxzV5wuuJ7muclpYH3lY/OCL620so1dqBmAK5a3Jz91S5Do0Nr8efOGMeie96KcloZtrslijMtnoIlEczA/J3FTEMIQHk7JHXyjZ9aKWB+uT6wvZVNy3opE9FZgeVdlLB2dHrGBu+lD+9EV7Fj+AuSCPO0D97TPs1FeXnpj840KvKlDkuBLiHeFPmKOptpWSpY/ONqcebfgFtEzwpY0Sbryh76tQg7HKFvZ910qn0hptZIVoHSJoX3S+gV6GLtpm5eCJhdiLQIqvymD7i/Qxj9fKZ+w56GMfYn+i9oLyIFuIz5Zoyhn39o51X9TQCOzc/dMCPEG8ZOdlGmUpWk6v2TvG+Nj2c96KlLoKLAdYpdrmam3EtoSMkn5wrr64y1d2svU+1UF9SNu7HBxauGddsBEnSO2bVo+0IB25wrOFlWZpTL828lTszuFKUnO+fOOL6zkTqb0MY9akMbg9xors1eho1ypU2tSiAVH+senWXEOsh0EaCMgx4erz8sFrr7SkNTKDqGnmf/MQzuHHEm4K3a4l20KyBp1E7xz6PWYQp5WdG88Vy8D7r1z0qjsqU++lasbJB3hS3bck7dKlysmlTcuo7RxMU2am3lTM7MrcUTukkxMyMq00kFLYSPIR5f1L+TrUvbHcb0562xC8SLIqlOYMxLFToUrKsfGKtgTUjTpWZllFDzQHaJHWH87JMTLK232g4lQ2yOULq8rWmKW57bIp1Mkd5AEcuv1f6uvjYzoxqjBE3QpyQuqkuMPhPa6dO/QxCWhVqtw1uksTjy3JB5eASdgOUDlAnV0qpIebUUIJ76IadSpsheVtDRp7bTlJ6gxpiZ0sS1NPoWyKVJDst6pylWpbU5JOpcQsAnESCevnHmjhfdk/ZVyfV+razKKVhLijsN49IScy1NSyHmlAhQ1bGPpGHmQya1OPZwbqnBi8vzVM3NLywPIjb1hh0ZHZ05lHgkQuKiVTfEVtIOQFgY9YZssNDCRjkI7N7+yKMovZtBi2YoRzzM0ywgqWsbdITiui9nQN8xpmJxhgZWsQO1Kv5BSwOXM5gfmZyYfUSpw4i4x/ZF2YcUak3MSg7M+51jgtOpzK6RhCzgCOW5W+2pTpycpEcdjOK+jlpO2D/GH4xThpAy6CNTzjmdZVGHI7RWpQ5xzTE/LMJUXHUgDnvCddcpvSROSXk6cK32zFZCR7m8DNRu2WYyhk6jA/OXbUHFENJ2jqUelXWf4mM8iEVvYS3qltVM7QKAUDGq26zLM0ltDjycgeMBMzO1GfSpDzh0npHOzJrQnBeUPnHaq9F+3UkJy9RivAyXrpprXvEKiNmLyk9SuzTt0gOEsn7yiYyRKI6IJjeHoNXyLy9TCJ28d+4gxiq8ZgnKURBolTyDJ9I6W6a6Uag3j5RtH0bHj8mT9Rk/B0T1zz000prQQFDGY4aNWajItuIGe8cx0tU2YUCAn8I3/Q0ye9oxG0cHGhHRn9fYWVdNUUMYIwIwVclTPjG1NEmsZxz8opyjTSc938IuOHi60V9fYaRcNWUSUnpvAXSJ96b4hpL5yQR/GCqYZVLu4c22gEoM5LtcStKnBgEH848t/LcWFWC2jp+lXzss2O673gaW2k8hjEE9lu4oTfhiAG8qnKvSTKWnE5OMjPKDGy32/q+33uQ5iPz9ZFpNnsdbQT9qnxixcSQRmOAOJ8YuHEE7qwIT3FIPh0dbiwmXWc/dMLi3XMXVNk9VH84N5p/wDsDi07AJPMwsKDVZdm5JtS3AvCjsDDOM9wegV9r2AX6Qi3PrzTFI3IV/KDWhXNOS1LZa0k4SIXvGKpsT1+09Las6Ty9IM5Zhz2ZGEbafCPuf8ADMWu3EUZPs8r6plShZsnReM2OaDGabwexkpiB7NQO6PwjEtt9R+Ee3/otG97OQvUZsIRebg5pjNd5oLSwpG5EDQab/YiwZQpOCiBj6JTvYa9RkjtolcYaq/tDydirMFrV2UxR5iAMyzZHuiLeyoB2/OKu9Dql4DXqTGK3ctNXsFDMdLFZkHOTyU/OFkmX07hwiMVMufdmFCEn/HYvwax9TQ2mp2VczpmU+sXDrWlWHQR5QpG0zTaspmV+pjobn6m2khDpPzjGX8flF9I1WfB9thDNqEzdGgDOlXODdguttAJJ5QoZedqbE77Ue8ecTTF3zqP1iDC+T6NZx+1G0cyt/IyUzEy3uFqjoaqcynYqPrC7lr1bz9olWPhEmxeNPXhKsjPlHMfp18f8TZXwfyG6atMge+fWOao1iZ9lWnWdxA8zcVPd5OD5mLzlSlHJRZDydh4xVeLYpdoPkmjlsWeeaqk0tKjkk/xgyFZmQn3jC+st9hM++pTqe8T1+MFXtDBJHaJwOuYl9Mv0WiVNVmlfeMaVz80rP2h9YjHp+UbG76PWOVyuSKBu6kn4wvHFsfwTnEmTMzB37U+sc0+8puQdWVnODEOq5JAfeHrEZXbolVSS0N75HSGsfCt3+JnK6C+TG0W1P1J5452VzgxSnELe2Lll5JD2sElXlEqu9mBkJSr0hm70+2TX2gfUQXyGYODunMXwD9zEAir01e4k58xGpd4TJHdTAR9Gukt8S/qYfsPyCkHSiOCuq7OkO6kbkQELu+o5wlEctQuGqTkupopwCI3p9Es3toCWXX+wosY4kys4AMEa3WgAe0EKamz9TlmVNhexjeqp1NWxcPrDM/Q5yXSM1nVR+Rp+0NY3fT6xgqZlEglUyn1hVqmqir3nVD5xqKp1fOZXv5mKj/HZ/LJL1GP7Gg5VJFCt30+sQF0VyUcZLSVhQPhAYpqYVzmVRf2JROpS1GGqvQlF7bMP6ithtSLjp0vTkNqIymKevKnhZ0bwFtyZJPvEGMkSLaQQWlZjeXote9tgy9QYTPXogk9mjMaF3hNEYQ3t0iFYkFE91o+kbk050q3bPpG8PSqIrpmEs+R1zFyTryTlkRAT7Lk4vVjTE4KZMqThKI2tUWaXsRiGqaKKl2YPPm/AONSa2047dXrG5uWTvqcKoI5egOk98co1z9GeYRrSM+UaxdHIxlkzn5IVLLY6RmhKU8kxc6k7OD5RbV4Z9IcSil0jNykwI4sNJVItuFG6eX4xs4fTSlOSiivABAjs4iM9rQXXFD3B4QDW1U1NssJQrQrtMDfzj5N/PMZSi5JHs/47dxjqR6TutSV0AOrWCEI2iU4eTqX7fbKFglJO0KtM3U6lMt0tx7Q3pwSTF6FV6hQLqbpiVdowFDKgdusfHfZkovZ35J+5t+B5F8dDGBmFEEAfOORD7RbSoH3gN4spwnUOW2xjlOfE1jHfgXPGRhKpqXdA5czApZtRZp9eKS6Ehw75PODvitLl2huzAPeQIQlqvmo3Q1LvOKTvsQesdzBg7KWXKaigu4wVOTdr0tOsMF0tFOVD5Q0eHlblK1QGSxjWlI1DzgDp71KZYqFPqUop95Sfs1lPxgd4R1iYod2Tcm+lwMLc7gIPLaPov8AFM729VtnmfWMZ2x2keghp05xjfBi5QkHEQ4rjCUFJacUTuDpMazXRjIlnf3TH0ZNT72eWWNNLWic0/7Y19ilXvIEQ6K06rlLOgf8TF11SaJITLOY8dJi1NJ9Mn00v0Sq5VkpI7Ib+UJ3jZTKS/d9Hl55ZaYUlRUByOCIYC7lDLpaeacSroCk7wHX20qvXdTi/IOuyjbSwpQBHPEae5KPewljyS8A/e9v2JTqQ1O0GabbntXd7PGpZxyhg06nSsxaTSJpbaZkyylaFcz3cxD0azLQkKkmpNSs24sHOl1xSkg/A7QQO02jTVa+lHe3SsN9mlCXCEgYxy5RcL3LwwJVSXwCXBqkNzMlVA4pJCZnBA6bRHzVKQjizNtJeHZiUTt/2qhk2xKUihS76ZQFIeXqcKlZyfGNb9Jortamasj/AKlUvpHe57GNPqJIFVSEtYNuWjU3agiuTCQ6Hu6HDyGIi7glWpCqzspakw45INtjtSg7DfeGJalhUutUyaVWkuMvBzuqbdKMj5QeW7aVuUOlmmykslTcwCHVOHUSOfMxFlT+Ca0JK3LWtypsMvF5htIUCZh73858REzfdtScxWKFT8JmZZbgTrIyhQwecHDHCe0m6qJ5v2vuq1BsPqCM58OUE87bNLm5yTmXWlAyagpoAkAdPnBfVTK1/sRnEe2JS35uQkSyWaa8NTnZjCCoEYESdoWlQhPtzjD8owvm201sonzhyXHbtJuCl/R1SZLjHMYOFD4HnEHbHDW3KBNqmZNMytROwcfUrHrE+pkV/wCReXtS52uVj6NpUwVJk0B1RSeuM4/CB666jNuSNLm5ctqqDRDbiF9FZJh/UW3qbS3n3mkEuvk61E5232ger3C62azNuuzTb6Q472mG3SjB+UD78t+S1pfIH8M6vOVyqO0yqMttvpQkhTY2hjIt0EalHJMa7Msei2qt1dObdK3BjW64VkD5wTJyBjME8mXwzNpP5DZ6yaSsbMgfKOf6hU3Oxx8oMwIrSNzHhlfJo9c0AzthSQaJ7QjAJgEptqS87dTzHanS2vnDnqroZknFk47pgE4bpD1en5lQzlRwT8YboukoNg67O1FgyoGRMK5eUZp4fyenPbqPpBsBvgxkAAIUlfJl6Af/ANP5Lq8o+kZJsGQxu4T8oNcAxWwBi1kS15JoCvqDTv2jAPeNsyjdaYkGtwojb5w61kBpSj0EK2ZIqXEJvclKM8j8IYx75LZeicpVj0wyLZcbGtIwNo7kWZTQPcHpBMynQgJxG0ACMZZMm32VoGEWhTQf1ST8oy+qNM/yU+kEuB4RWB4QPvy/ZNA4i1aYlJHs6D8oAr7o9OFYlpdttA7wyBDfOAfDaFZUwJu/UskakpII/GGMe+SbLaWianrWorlF7B1tsBbfeJHOPKfF2i1SzJ+Ym6PLdrJqJyAI9cXKiYDI27oGwAgDvWjMVeguS7zAUopPSOfl0K99mlU+J5x4TUWTu7MzUZzAzuyTDLlpJdpT6PZWtMoVdB0hI06Zn+HnEJbK0OJlFuHny3j0fSn5K6rdCmVpcUtO2Dyj5167VZjy6/E7WFNT8k7TX2p6WS6yRlXMR3oaKO7jKcQFW65M0OrGSmlfYq5ZEMKUCC2FJwpBPOPDZG4Pk/DOl7nF6RrZbPQYjY9JomJdTTyAps7EGOhtskKUdkjlHQ2yv2cqSckjIEc1XTjPcfBU5Jie4j2WqTPt0ig9lzIAiFsW4naPU0NqcUGlH3SeUPybkmZ2SMq833VDfMIviPaT1GnxNMIUWCdiOm8ejw82GQlXJdmLkn0MG8rdkLpoQqkglJmkDVlPPMaOEXEP2JTlv15womEApSpZ8IgODl2CVmlUueXqS5snPTeN/G2xX3Jdy4qEC26BqJR/T4R6r0LPli5Krs/FnLy6toPLZmG5y81PpdSpIczqz8YZr84ywzqU4k7eMeUeEdaqc5LqbaeUmcYP2gVzVB89cFwNpImcrSOgEfVZVRvipwfRx0nEac7cR1KQ1t5iIGan35lZ1KOIC5S6ABmZYWnpvEvJVyRmBgOBHxhX6eUWEmSRAGcHnzigkaY0LmpQJ1CYSfnEPVrlkpNspSdavIxpViWWS8FNqK3skq0tIpbqSQARzgTt+tydO7RDy87xFVavzlSSppo6EHyiLYlC2CpZK1GPS4fo0mtsQtz4x6Caq3c+5lEgknMD0w/UJxeqYeUknpmOqXknHldxvT8BErK0F5WFL5R04YmPV8HMnlTkDzUqgbrSVGOyWkHF5KGjy8ILpSjNIR3k5+Md7Eoy0NkD0jZ5VcFqKFnZN+QQYo0ysbJxHU1b7x98wVhCRyGIogE7xg8yYOtkFL0FsDvCO1qksIGAgYiRxgbGKGYxeTOXyVFJeTmbkJdI/Vj0jamXZSMaRGeCc9+Mik6c5jN2TC2jW2y0kHCRGWlOMRXmRyi4UOggU5MotjGPjFOpQpB+EXKsDJwI1OrRpV3xnEXFMJRbAW83Cyh1xP3UGFBw6lEVLiG5NTzhQylWCT8TDVvtX9jmAg6laTjEKG1LkpMlMzUrNNqD5JwQcdTHA/l8ZywtbO16NB+4NLiExJCYQ3R5guYIyRDA4dLcboiG3Tq26wmqJdFElJR4vNuqeUdis5hr8Op32ui9sNkq5bR8IyYSqrez3EIdBj245RRmI5C8gDn+EUH0YyT+EcZWbQworRruN9SaHMKSvQNJG3wMJ+0WpWSrD0zVXVaHj3SYZt4OFNBfKFEpAzj1hPT93UGZlG5OZl3Evs81JOP4R1sGLnBqKMJRWwd4pssm95SepoK2wpOSIetpyzc5b8s84galIGYRNcuKjqdYl5NhZeUsbrOesPqwgsWzLFwaCUDYx9n/AIlzrpR471pJSZ2Lo8ur7ojQ5QJcgkAZiZwPGLY3xHt1kTXyebWmDyrfG+gxzKoDoBwYK8hP3T6xQHWNI5k0U0BT1Emk5O8a/omaxyMHJAIwQIx7NGMaRGizpA6ANVOmEc0k/KNS5V8Z+zMH/YNZ9wGLGWYP92PSDWcycRfBl0e+2R8otoUOhEHrkiwr7ifSNC6TLKzlHpGsc9a7K4S30BHeHPlGOlJ+5mDQ0KWWDt+Mc7lusA90q9YNZlbDipoENDRz3UxiZdBHT5QVqoCeiY1fQDoOw2gvdol5LVtiBcy4+6spjBTD5SQmZWc9MwUqoLp5CNX0BME7RnrG8hrKtQMyjU3JrKkPK3847DN1ApP26h84nUUB77xjP6vuHmYzlXjNmn1loLK9sdJ1TK/WMvZl6e88o+MFSbfONhGxNBRqTk9NxBJ40F0gHkWvwCKZcdVKMZJlWiMaSqDZqhSoaUsp2HUmIGvVO36O06FvoU4kbJCt4ys9QopW9F1q+xkSiVQM6GB8cRmJbn9kIGTez7LwmjIL9j1e9jpDNtiYp9WpSJxlKV6uYHSMqfWaLekjadV0F2DSZRZOAxn4CN7dPeI/UH0g6bk5Zo7oTkjwi4TLjIwkfKNHmtvSQs52bAdFLeP90R8o2ilTONkn0gy1S6Un3IsH5QDvOIEWs2SXgmrGCDVGmyScERtTQZonJzBSmbk079okj4xiqoS6DrBBT4CBefZ+glTNg99APk7xvboGE96JT6VYHJJMaV1ttP8AcLIHlGTypfsJUTZztW4wd1KjeiiMJGkYMcz9wqH6qWc9I5zXZ5YIbkXSfhGbyW/LD+lkyXYpTCPupjaKfLcyhEC07cNUl1pSqVWkq8RG9s3RONhbTJCV8u7ElcuPcg44U2EyWZRA2CBGOuSQTrUgRAfVu63yFZUnPlF1WHdD689qrB+P84x+prS7kbxwH8ks7Uac0SA4n5RpNek0EqzsI1yvDSvI77rutPhHc3w5qbgKVgBJHhGTzKn/AJGiwER7d1SC1KSDFLrMtMpKERF1Szpqi1VtDuza1bkiDil8Pm5mXQ8lXdUM7GKlmV19phrBQvKhLuKdK21gA+cRzjc2k4DohxMcMZdWS484N/2jFpzhfJJaK2XV5HiowX9dS6NFgIRF0ys4/b80FEKToMJWnCYcCgkKSqXdKtvjHrivWSz9HvyxcVkg43Mef6jR2aDV5iUcRu6SBn5x5P8AkWdHJr0db0/H4SJeQuCRnqUy8ZrsZlAAWoHfMSLVeoTS2il0zE2cb7QPUy05MSLj8wtaUncgKxEnYFBpUxWu2WvU22dgY+cWU801FHopJaHbbk0ZqiNuuJIVgc47lOqWMZ6RDtVWTlZcNNJ7qRtgRzqrzHeIaX8o8xZgZLf4msLIJG690dvbUw2T0/gY84mWfodSFTY3Wk5Ah7V2vSz1Lea7NeSk9fKE/TJlNQrTkq6kJbbOTqHSO16bTkRjxlHoBzhKRaeuyshAqC5JIwnfOd4kODFQeu2+Uzk6wlpltWk+fKNdwoRVaoxRKc1qUvCTpG0Mzh/YrVpzEq3NoKO2SFKI26x7j0DE4z5M5HqU1rSG2y1bAIbW00Sgc43IetkH9S16R0Slo099oPtqXhQ5646U2ZTwOa/3o9TK5KWtnLjBcds4/bLYQNmGj8ouKpbSW9mW9/KOz6m07xX6xQs2m4xhXrGfux3+RWogJfjFFfQJySZR2iBkACOi1axQJqRDUzLtIeb7pyINDZ9O06SkkeZgBvW0xSpxM7KgpQVDUBy5w5XkRlHhspqJPupthQ2lm9I8B1jkdkbbd5NhPyibtyjU2qU5t9CTuMq36xLC1ZDGAk+sZ/Ve3LWyKqDAN6h266cdrpGOW0cDlAoZClNTKkqT8IZJtOQ2yk7HPOMVWjTlZ7p354MEvUtPWynRAUVapTUtLKXJPq7o5CImhPTU0FpdeKFpPdyYdy7MpytQIUQo8swCXzZiKY6mcktaWwe9gw9R6jB9MyeNAgixWGd0TIPzjND9XSO8+nPxg1tu16fU6S3MCYcKzz75jud4cyi8n2l3BHLUYqXqUE+zL6KLF+mdnU/rX0+sZpqoRut4K8swZO8NpfHdmHPmoxzOcNk9HSr5mCj6jWwXgIEnLnkmtlo+cUzdMg4ciCGc4ZKdQQIGa7w9n6PLKmJUagNzkZjaGbVIB4KOxNelFnc4jemsSp91ScREUC16hWWD2KkoWnntHavhrXSdSHsAxr9TR8szeBvwPuLdItFZ2MeMTS6O0Q14qKaE+pPQfzge4Wy+iWU8ea9zE1eytFDeGrn/AFjVw6aCKC2ojcgbw3GSjW0UE3WL7RUVC20UVFsbReLdecV0Xs5qkvRKLI8DC4sVgzVzPzJ30KIg4ut8sUh1Q2ODvA7wvlihuYdUndasgmGq2lBlhwCCrT4CM/nGKRg5xvjeL5hUhfEViLAxeK/8EOedc7KVWvwELS10+23486rfT/WGHXlaKY+rwTANw3ZK6vMTWPvEZ+Zhqt6gzPvYwJiWZmUYcGQIGrlpjbTBcbT3YLBgjAEcNYlg9JqTjpyhfbTCEFxJ4eU24pJx1DCe3I2UBvmEjZ9w1XhxdaqRU1q9lU5gajyGf6R6ueSUOLbVkYMKnjPw9l7mpzs7KNpE22jKSBuTHP8AUMKGVW00b0XOthS7Lylz0VuoyJBd05BEZ2fVXJZ36LqOzgO2YT3BK8Zy36z9XKspadKtIKzDwuujpmWU1anY7QDVlMfJPVcKWPY4S7R2q71OOwpZZSWiM89xGxISy0C45pSBjMQNk1lM/LplZlWl5GxzzMElQkkTcsphatKD1EebdEoz/wBFuzoXvEbiLSrcYShuZS46pWMAwRUdqWu6zGZmYaBEw1q3HI7wruOvDqmSdvLqrcw4t1LgI1KJxuIafB4E8P6ckjbshHp44lVePGyC+4WVz5CQuqgTlp1xSgCEqXltX4w3uHF0yNxUM02cUlSinSQfhEvxGtlmt0lw6El1CcpONxCApE5M2pXSFa04XyjoY8lOG35Rq2rFon78oM3Y90isUtOiVWvUsDkRvDFtycla1SGppISpeBqEapqakr0tFTatKngjkYUFCuqdsquv0WZCy0tXdUrpHs/4/wCqWW/2W+zm5FDguQ56jTqa4NTiUoHhAZX/AKOlVESz3e8BHA/W52pK1pWoNnlg845uw1LyvvqPjH1n0/0xuKlYzz92aoPWjSiaqDxKUuLSnMbWpZZOXFFavOJKQpjrxykECCOn0RpCQtwDPnHUcKKOtHMtyrJvp9A5I0x9447LSDE/T6ChPeeOYm2WW20BKUjbriNsYTypa1How1vyc7Umw0O6gRuA2wmL5Bi4wBvyhXny+SkmWOdO5iyR1zFyoBOdseccMzU5NoFCnQCdtjA8dsNQk+tHfFDxiANfS6otSiC6pPPEbpaXr1Q70vLuIzyyIF2Qj02bwxZslnHWU+8rEajNSqR+uHwjdTbLr8x3pxWlPwidkeHssrd51errvCtmbTDwxqPp8pAouqSyDt3o43q6hsqWmXXpHlDKYsGmN7q73xjjuyiUumUVSgwjOMZxGMfU65PRvH0/XkXEnWJupPKTKSq9vIx3pk7hf2Q0pMGfCykSrck48ppKtatiRB2iUlk8mkD4CMbvVOL0kbRwYiWaty6nzjJx5n+kdTdl3IrOtfTx/pDjS2hPupAi+24hR+p2b6No4laPP1dsiphRQ+rVqEIOr2nK03iAW30Zzgn8Y9nXOHVTRSlOxHMdI888U7RrCq8moyqMknniEPU77syn20N4ajjz3oG6lQ6chlLobQlAI5w0LJnafL0FttD7aAB4wO27w2um4JJtU0tKGTg+6YalvcIKdL0xtqYfcKwN8KxHh7vQLboODO7POjFb0Q/0lJn/ABKPWNZqkklX/Ut+sF44UUgf3737/wDSMHeFdHS2pQdcyBtlX9I56/ikkvJmvUY/oDp+p09+TcaXMNkKQds+UJyVpNPmK9OOBDbiUqIxmHNOWBJdq60iYXncDcwGq4bVSUqji5FZIXzz1joY38enVHSfYMM6PLbQqbvlafJ3dIJalhuoe6PhD4t6qiXpjbRllJAAxkQE29w5q1X4hMuziApqXUMjEelm7SpJkkNlhAUE4JxHuPR5yw4cZI5PqUYZL6FvLVSWc986Y6kzEuo5S4DBi9YFLdScZT5iIapWC40g+wuqJHLJj0VfqVcnpnDl6c0uiLCgr3VCMoi5yj3BSyS42paR4CNMnWVIPZzTZb81CG42wkumJWYs4E1FbRol32XR9mvUD1zG0YGwJzGvEWcWvKMooRW+N8YioiKZY/GLgecWAijyia7ImyuR2EXznmmLb+MXidIv7iwI5Rc5xGICT3gYyGvmCnHwitfop7RYZ6xQwTg7RclKBuMk+cR1QrFLkEEzU2hCh0JgJXRgvuYcISk+kSGnPhFijqeXjAJW+JUhKoUiVbMyrkOziCart7VxWadKONNK5ak/1jlZnrePjR3KQ3V6fZYxnzM/ISo+2mQj4mISpXtRJI6RNNLV4ZGYHpPh9dtU+0q02ptB54yP4x1I4U0CTdMxUJ9az1ys/wAo8tlfzimH/T7Orj+j2PyRF1cUmU0x1iQlFuLIOCkGFBa5Xc1deVVnXkPFRKWzD7dkLJpaSltDTpHjg/whNcT5qTka8mq0RsNEHkgYzvHGs/k1md9sOjrU+mujyg5nJqWFrrohpwS4lOErKTEDwruCq0yvuUFlxLnaHup1cv8AzMQjlfr1VoxmjLlASjdQG5hg/oqWQ5Wppy4Z3vLQ5zVz5/0hn0PJyIWNyls0y6INb0MliiXW+kqAG/n/AEjqlrOuZ3dxWPn/AEhxMsNNI0oQPSMj13xHsH6pZy6OSsSDexRM2PVXHuzfmdJI2AMdzHDhwai/MqIgY4j8Sl27xypFHDp9mfR2TgzsklXOD7ixeDNrcPpmtdsnPZgt4+8T4esaSzb3p78kVVaegNuuyFyEuiZl3nFIHv4ETln2lSanTEvB1S1gbiODhbdzFx8GxWqxMJbw19qpZ5DeBCxONNnUmvu0uYnFNsOL0oe308/hF/U3zi9MtQrQ42LHpSOaQflHSi0aQn/Dp+YiVp9Qk52npnpOYS6w4ApK+mI56HXqZWFzCZGabeLDhaWEnkRHPeTc/k1cIL4NLVs0pByJVs/KOpui01HKTa9IFb84nWpZboYq87pe6ISST+AjVw/4rWneS1y9KqCUzH+WvIOfmIF22vyyuMC3EmiSqZD2tmXQnQRnbziYsJcnN0KXPYoKkpAO0BXFnizalAnHrdqfaKmkoSe7uNxnliOHg7f9CnKXUp5iZy1LAqUkn3UgeENLnOsilEdKWmh/dJAHlFBKB7oTvEPaVxU65KUmfpqy4wpaka88iOccVWvWi0u45ehTT2mcfSSgDkcHEJNST0wtpk+malu2LAdSXPDMZMvNTLeWHUnB3xCPvOp3DXa6/NcOp9lUxLKLc2lxJUlAGxOMjrBtwenpf6JNJ9v9snZY/bugkgq5mC9ppb2CrFvRL8QqOalS1rbR9qhOxEcnDaql+VVIvHvtHTBisB1CkqHdIxiFdMJct699QJSy6rkOUa1PlFxDY1QANsxbBwQACIwlXEuspcHJQyI2gQrLplpg7c1LS+jtG2+9jfEJS/OGE1W6iiblkEKSegj0YsJKcKAjWmXaSCQhPpGdlUZrtBwnKL2hC0bhLOTEt2c0ohKxuI5qFYchblxliZB7JR8I9CaQAANvhAXxHpXtDAnGRpU2ckiJi4dKfcTSWRY/kyYsCjrQFYyCM8o6E2HRUtlHZJyfKOyxp9U5R2w4TrSMEkxPpwVGKtxIQfHiB7838i8neGkg48vSkaSPCBl3gnILfcWjDalnGQIdmQIx2VsYGNMIrXEnuz/YtLS4R0Oh1BufKQ6+jqRE5f1ETMyBmWE/aNjbA5QYYGY1TLaXWVNkZ1bbxvjL2ZbRU5Oa7Bnh7UvaJH2R0nW3tBXgEQrg69b156VEhl0jbp1hnSzgdZStBBBEb3w2+X7M0tLRmEiKwIvFZEK8UX0YqGxiNuCQan6c4y4nJxkRKAecWUkFODiCrlwltE4pgBY0+KfPuUpzkk7QfJxsfEQsbzl3aTcrc+0dKHFaTiGHR3xNSLT2rPdGYZvhy+9E0kdhGTFaYujmYvC3TK0jDTuVeEcNZkm5+nOMOp1agcRI4ixG2MQUJaJoXFlzS6RXHKU/gNgnG8MRBydWRg8oXXEKnuylRbqkvkBCgVEdd4MrZn0VKkMTAO+BkQxdFNckUkyW3PQRQHiMRQ25RXOFUwtltuUaJ6UammFNOJBSoY3joixGds8jFwlp+SMWDi37YuMIxpl3DDKkXmpiWQ6hQKVDIgX4k032qkKeQnvt756xjw4qPtVJ7FSslkAbmG5/fBMpdBgCD1ilFOkjIhZG660n/BO+kW+tNaV/gXfnGccbci9k5xDmtMslgH3iNombPQGqGwk7d0c4Td1XFWKhVGW0y6kqSRtiCaSrdxtyrbSZVYAHPENTxtQ0Bvsa+U+MVkeMK76ZuhXusr9IoVO7Ff3a/SFvpf8AYexo5HjGOQFQshN3crklfpFwu8FnYrBiLF18lbCbiBNJRRFgEZJjpstpDNKZUMZUMmFJdz1zLeEk8tWpRghpSLsYpzaUFfIQy8dKHknIbCCCDk9YvkeMK8T93Nk5StWByxGTdw3Ix+tlVq+ULRx3LwTkM7UB1EVkwt274n2T9vT1kfCO6Wv9hez7Bb+MU8Sx+CcgmuZQFGmN/uGB/hm0BTnnCNy4fzjjuG7qbNUtxKHkJyMYJiQsCckzSdKHEklROxjX2pwr7B+QwGwMYPjW0oZ6RSClRyFE56Zi6gcHTgfGE3tMNC9q4W3UXNQHwjidALZCU8+YiUuRs/SRWQYjEpUSvBglpdMoSnGux1JfFdpCCh9vvK0Dn1/hBH+j/wARGazJJoNUWEzTeAQs4J9YYM4wxOS62XU5SoaTHnXiVbFRsi603HRUK7PXqJA+Med9Z9HhkQbS7GKrXFj/ALko4os/9KygV2ZIJCRBXbtRZqNNafQcnA1CBjhldlPvKz22nXErmCjS4M9QI4qe+/alzKZmCRJOr7meWI+b5Hp/sz1IejZtGf6RACuH7mEgd8fmInuDw/8A7fU0Y5tD+MS1dpNOuajBqZAUydxHVR5OVo1PakZYANMp0pEMSklWombi2+jtcCOzWlW4I3hJ8Z7SUt76TkkZHUJHKG9MTOVE5iLqjbM3KOMuHuuDEY1Xe3LQ1TBiAsa5X6BUQ0+SptRwfKJPitbLVfpyalIJCXgNeR6xB3xRXaRXnUYIaUcpMTFlXRLN012Uqbg1JHdBPTeOtTY6LI3VvwNW1KdbQMcP6y48g0qZ7j7XdwrYmGhR6Lsl13cGE9cNIqU3W3K/bjSihs5WUiD3hXfbdVl/o+oLDc00rSQT5x9n9B/k0crHUJPTPCeoYMoTbGKzLstJCUJA8Y2jAGPyi+pJUVgf1jEuttglWEx3ozcls5HtvZkMBPgPOKJxziLmqvLtLKUqLih0EZSMlWq05lhtTSOhMBK2MV2bQxpM6H56XYBy4jPhmI1yqzLrnZy8u4oqOAQk4guo3DtLhDlQcJV5wWSNHo9LSlGlGR4xz7M+C6h5OjXh68iykLbuKqkKJLbZ8do7a3ZbVNpK5ibdJdA236wy/pWlspwX2kAecLviXcsnMTbUo1NJUkqwQDC9WVfOf+h2NMIo6OFNrSyWVzrzWrUTjUPOGUxKy7Y0tsoSB4CASh3dT6bSm5ZA1qA6RuXxCZBIblFk+WISyFZZYzRcUHYATtn8IokeULhy+Z11WGpF30EaXrluB3ZmVWCehEAsdrywuQztQA5j1gJ4oTaE0nsARkrSOfnEOKhdi06i0U/KBO6E3LPVQSr52UoEbGNsfFW9tk5sbFkpblqFLkqSMoBO8TS56WScKdQPiqFpIUG7DKNpTM9m2lIHWOg2xcjnvzfe6HeAnVDl5LTbGAajJg959sf9wjAVan4/6lvP/IQBi0a4vuuzW/iMxdqx6knczZ3+MD7UP2TsNXJ6kurOt1onGeYgJ4mTFKMowWVt5KsZBEbU2TPbEzZCicE78oFr9tp2U9nDkyHEhZ1p6jPIxvj1UuX3SLSnPpDEs6bkZajttKeaBCR94ZidTUpEjuzKPhkQtaPZk8qntj2whwjuEGOz6mVlCconPiTmKsoo5dSK3NdMYQnpU8n0esZh5lwYCwcwuPqrcKVdyfB9Yxeo14sjDU3t4jMYvHr/AGXxkg9dpck44VEDUfCOebpEq2ytzONIyMCAoqu+WVpJKyBzwY5ZyuXPLyrntDKikdQIleKpSWmU5NI7eHyCbonCncZO5HxhlJ5YxCKsi6pqQqEy65LKVqO+3xg8luIDOhPayykqI8oO/Fmn0SO2He3LEWUnIxygZk7zprx76gg+ZiSl67THzhE0hSj0zCkse1eQvB3OssOpwtCV/EQPV2zaXU0KKmw2rxSIIWphhw6UFMbQQCQcbwcbLK30U4JrtCBuel1G3qoliTWVNk8iekb5CqOtgCeaUgnqRBVenZru1ltwZAI29YIahakjVqa2QkJXp2jtwzuKXMStxozT0BbLjbqdbasgxtEcFVoNWoLqlIClsZxgRemT6Jn7PVpWOYh+vIjYvtONZiyi+ztO0V84urOMYzGJIUAMco0T30YylroyiuY2ilFKEnlvzzA9cl2UmhsntphGv9kGMLL6qvyYdVU7PBPOrbaZy4oJHxgcr950emJ7MPpWvwScmAB+v3Nd1RLNHZW1KqONZH8oMrL4QNl5M7XZjtl5zvyjzPqX8mqxov23s62P6VOXkhl3BclxhTVDlXWxyClJI/MRuo/Ci4q4oruCbcSk9EmGomete1WBLN9nqG20ENDqrNTku2Y9zG2I+fZ/8nyMltQejuU+mxrW2gNtrhZblBYGG/anRudYggWmRkpYpYkEJ0jYpTAzf3FWk25URJstmZmMYUEkbRps3ibTLjmxT1SxYdJ04VjePK51mbetzl0OUqEX4IK8rzrEu+qVlGynwztAPNz9bqBUqcmygHmAqGZxKoMxM7yLB7VXIgQL0zhpXXUJM48oJPMHMYY86K4fe+zrUzggNDMmCQ/OKUfj/WA2+lMrnGkMNFTYUMkDzj0BJ8MaeyNUyQpXWN07w7oCmR9gnI8oYx/VaKn0a2yi/Ak5qaIttqUlJZWVo0kpTHov9GCmKptlkLxlxWT6mB36qUqXkyy2yOXhEpwyriqFU1UiaOhlZ7uY9V6B6tVdPo52dXyjtDpzuN9sxrcWEtLUobAc4pBQttK0KBQRHOXpaaS7KIfySCk78sx7hcZNM4WmjzXULdTfHEy8JlCdbtPDiJVY+6vAIx6xjTZmf4oKlbUm2VpYpAWJonOF4TgfimHrZtl0q2Z2pzcktbrk+92jus5wcAY/CN9It+3qFOTc3KNJZemv1pHXcn+MOxsaWjD20+zypOzc5S7DrtDYadalJSpNIdQ0CdTQSdWfCJXhrRrUuOal0TL8jKUlSUjs1uJCyevM5hv06xKXT7prdSnKjKzFKqiitbC8kpOMeGPGFkeF1ly97lwVOYbl1u6m2kLwgbk+EP0S5JoxnU9jV4gV6k2Xw2RTqPPS5L2GGVdqOSiRkb9IXfDqoM8P7rk25msys1K1ltPbEPhWhw5JOx8o28WbGpdy3DQZKXm+xpEqwpLnZHBzqzA9efCG22aUHaBPVKanmTloKcB39IwhSjSTYS8NRbVQ4g19+8nWTOl1JlvaVDQUYPLJxyxGPFRm1pLiJb79nqa+k/aE9umTVqSUb89J8Y33Dbdp3BRZJNWl5mVnmm0oLjBCVkgARvsSg21aEyZ2Rp8xOTWMpdmMKX6xHSk9grbWgI4lVepUrjVNOylEp9TcckmtTc492YH2e++DA9YFQcbqtzl5hiTmplhaiwy5rbSMAbGGLfViyF33I5WZhmrS024kAFtaQnAEQjHDtugsvJYbmFLmU6FuuHK9/OH6HDjoB0tENYdV4hUK0F1iSumQ+i2ZteZNTzYWe94c4MH7gVX+KlpVl8JaL8g4paCdgrtBEZR+AvarafYm5xLOvtChxXdUTv4QdJ4T1Caq0nUFLEuZJottJAI2zmFrI1p9suEWmK+g1mvzd3XLa1vFUsZqYdL0zyASVk7E7dIYH6LrctQxWqbMzvbKamU4dWrcnGTBJRuFz0gp92XX2b0wtRcX8d402Nwkm6HUJ59+fLiZh0K5nwjGfta1s0UHvY01VqnBZBmmckdFiAziHP019puZbUlS21DdO/WJhmyJQHClZwcxjV7OpxpbwRq1BJ/IwtU4RmbrejnoF5yZprad1aUgbCOp295ZA2ZcPwSYE+HtMkROOyLo1KSc4MMFq3qckn7EbjwjS6NcWQgHr9bA7ko8fggxyLv19QOiRf8A/wCWYMWqJT0JwlhJ+IjcilySeUuj0jHnX8IrsAxedVUhSkST2By7h/lHLULkq01JqYVJu98b9w/yhlCRlQMBhHpF/YpYgjsUekFC+MXvROxI29dlTpc6uTUyvnsCDBa3d9US2CZN7Od+4Y577pzNNrbE8hruBQzt5wdUISM9T25hDaVakjMM3WwkuWiRBBN8TqPeknj/ANhjY1f7me/IP/8A8swbmnSRH/To9I1rpEirYy6PkIV92t/AXegUbv1J5ybw/wCwxuRfUurIVLODw7hghVRJA/4dPpGtVv05Z3YA+UVyhsDsXN+1uWnmW5xtlSXEH9kxOWZe0q5Sm23CStKd4mavbEg9JPAND3TjaAiwqVJCsTUk4kDCsCGt1zhr9FrYfNXVIKRusA+cdKbip6ubqR845RadNOcoEa1WfTVclq9YUft/BZJJr1MO5mW/3hGX01TVIyJprn+0IhF2PIHcOK9Y0OWMwB3HlesTjB/JOzRxGekJyk9q2+2VN94YUI2cOK7KuUcIdmEZScbqjiqNjrXLLQHlEKGN4B6Fb86xcS6Y0+UgmHIV1zr1sF7Hk1UZEjImG9/9wjMTsqeTyT84XarPrIUQ1NnA+MXFr3I37s2rHzhV0wXyFHwMZMyyRstPrGQeQRsR6wtjQLuSTomvhzi30ZeqOUx+Bivaj+yBndMmioUh1oEZIyIFOGdQMtNvUl9WC2ru5jkMveWdKlnHI7GAyrs3JQ7hRNFW7iueDDVFMZwa2WegQtP7QiitI+8IVsmq8puXQ82vunyMblSd7OqyHsDHgYWeOk9bKGUXWx99PrGJmWEgkuJ2HjC4TSLyX70x+BjI25dTiDrmyPhmBWPBPyQOqjMScxKOMrdbwpJ5qEK6i1FFFq82wl4BChkb+YiXTaVwLbw5Nk+sCV02TU2JgOrmCSo46w3RXX42WPFMrL4yWUfuiMXJeXSgq7FsDH7IjpAwnEcFdf8AZ6Y85nGlGYQi25aKYuGZVufvVxDaE4QdxiGaxKsBsJ7JGAPCF9w1bMzWpqecGdSsAwykJxvG99jfRUYmsSzA5NJ9IrsGujafSN8VC3JhaNPYN/sj0jFxCW0FQSnbntG+OadJEq8fBJi4t7KYtKvipX4yhG7aSNW3xhlysuhtlKQkbDwhbWc0qavB55W4Qr+JhojkI2um0kikjV2DZUSW07+UYqlGFe80k/KOgReF1J/svicDlMklpIUwgj4RGTVrUyZJ1NBPwghMVGkbZr5JxFVf1nSEvIamQrJ/3RyW9atVFODkjMlA6ZMGnEUf+3iOuyNJo6c4hxZM1X2TSAkv3bSFfa5eSnwGYk6ffbiE6J+VWk+ODB8plCwdSEkecQlbpNHeSfaEJQfGMVbCT+5E7BWq12RnXdQcAPnHK24lYJbcBHxjiuGgyJcJp6lAwOvs1qQWCglaE8x4wXs1W9xZO0GiSlHdxlJ6wOcQKe1UbamWHUJOpJCSY1SVzlH2U432fmYq4K5TXaS4hL6VLI2AMXHEnyS1tFO1ISHDSoz9hXkJZ8qEk+4e8eQyY9D3E3LXDRUzDDgVp7yCIRl4s/S9JWhpvRMtK1JUBvziU4JXs6lSqFVHD2zZ0jV1jx/8q9AnQvqEuhvCvhZLTY3bAuQ4cpE6rS437ueu8F8y+nGoHY+EKi4mFSk6mqMK075OOsFtvVpNRkG1tHUvTuPCPnM17keUfCOr7WpdeCcffGnZUcDryVAhStk8o55l7clXveEcUw+cbGEefJ/cN1V9EJxAprdVpjjmn7VCNsR59rU43T63qmFKbbHdP5R6RcKnEKTnnCO442sptaZ6XbKm1nvFI5HMdn0m73J8J+CWritol7Su5NPpypCVlw8y/wA14zA5c7NPo7ia3KTQbeU4CpCT5wM0aZrFHlkSbI1tODIV4R1XDb0w5TW5iYdWorWFY+cep9PaoyU4voSysT36m/kd1oXk3PW+28tX2iQBy5xg/cExUZsMNpUBnniN/COx2HrLTUXHMhKOUHViWfT5xbkw4gaUqIzjzj61TnVqhM8n9Coy7IegrkJEBb8ut53r3Sd4n0XLUFo0SVNU2kcjo/pBvKWvTGF60tBR8xEqzIyiE4SwgY8o5t+bGbGq6lEWyHrtntkHRmNqLauaaWDMTOAeYzDJSy0j3UARsA2hWWT+kbNJi2YsKZcCjNTK/kuB1+05M3M2331hCsEkkw6Fkdio+AMKur1yRoNQnqxPOENy+VpSD7xzyg4ZM9NkrodkkkFspaFJbQlWnJwNjHfL0CnMjuspz5iE6L84lVpSZ23LebTIHJCnkqyQPDBgl4acSpmp1U2/cMg5I1FPdAWMaz4jflCv1E2x14E4xcl3oZAk5OXYU4mWbJQM8hAnaN8US5K/UKTJy/2ki5odUUY3xmC+oL0STwT/AJZ/KPKVtXlLWhdd2zDqx7S9M/Zf8tOwhK3JnCQ36b6ZLLU+K8IfV38RKDblUYpS0F6afUEpbbRqI+OOUC0zdtOneKzFGSghzTqIIx4H+MR/B+zn6xPO3vcOXp1/vNJVySnOR+BgAuGv023/ANIVU/UtAbShYwn4CN1kuK6GasCqbdaX3LyerFONtSpWU91IzgQMWPfVNuqo1CRlEL1SSwhwkEb7/wAoDZvjpZLkgptE2tKiMAAiB/8ARfnGKlc9yTcopS2HXkqBPwMX7q5JbFI4D9mdklrQ/wBTiG0FRGwGYh7euikVqZmJeRmUurl1aXAOhziBzjPdJtq03vZlf2t5JQykHmqEzY7NT4dXNJ1OZmC/KVhWp/f3FK3H4qjCV7VnH4CxfS53VOf78f8Ag9E3tcMrbNAmavOBXYsIKzpGTtCF4hVatzs3LXbQkrm5ObCU9kdsYH9YYvHuYDvCWputrJCpdWfhgwvqZWJajcLabNvOgNJ3ShR944EaQknY4jOJicMd2JfdvQR2XWqxQ5Z24LwmUy/tK0hiUSQSnIxj1EFnEDihSrQp1OnJ1l1wT5w2lCSr7uekee+IE1ctxT1Muad1ytNE02hhg/eBP9INON4S5LWchKQUqmBrB6DRGKsfOX+huz02vULLPD34CX/+oCjkEpotTO2ciVcP8ImLJ4y0S57gbozUpMszDuDh1tSMA/EQZUahU36GYUmTa7zQyceUJMS7LH6S0vLsgNoShBwOXNUaSsnHs51VGPbzS30mNZviLQV3ou2XUqbmUjmtBAPwJ5xI3/UKbR7Wmp18IS2EEgmALjvZTs1JtXHRGyioyiwslI3UkHJ/AQuqhdNW4mS0vQJdOlqXbCp3yPIiLpyJOWl5Do9MhkQVkH0vIyeDtSpFapc1U3mkolkKVlbg08ifGOG7OJtkyU8uUlqfMz5QDqXLsqWB5d0HMA91zL0jTKbZtJWZdU6vQvTtkAjMOnhzw9olu0NhhEmhbwSC46pO6jGrybZS0n2VkYdGOuW9p+ALtS4bCueYEsRNSUys91D4U3n97EFs1ZIbZU7Jzam0gZBK+nrERxk4fU+epDlWp7Alp6WHaIdQN9oCJziRVHuEkm0w+VVJ5aZVTmd9SsjMB/ULK3xmDX6fDJUZVf8Ak7LzvAWiwtluroemUjkFA4/GM7G4uuVCUabfmmxME5CVEDIzHBW+F9IpvCqcrVTSqoVFxgOrdWMlKiQTGqyuGVErnCaWqzEqlqpstqW3Mgd4kEn+AgYZM5T29aOg8TB9ny971v8A2ENVu1Tt0tPvy6tO2+D5w0qJdVNeYaSp0NnHI7Qh+GE1M1up/RlXKXX5dfZlXXAh5fUmlOsIVoKV46COxbbVOCPO5mJLHtcWTT01TJ5otlbbgV5iFzeFrrknFT9M7yScneJx+z55pX9hmVNjO0KnjHd90WZKiVcWtaFnSCTGdV8aPuTErKlYtMlZW5pOWWpmoPpaWg6SCY2vXXQkIUUTzZIGeYhN2ZTJu8bjVN1yaKGV7pBPSOO8rYbpd1MsycwtyWKgFAeEJZP8tpqbj8oxh6TGT2GF03zUqi8qQoLK3N9OsCM7W4aztSWKjcMwcK30lcENFRbdApaJhoN69O4MQtZveoT6lM0pBQBtkR4f1L+SXZUml4O9hekxivAfsz1t2zK9i2G1qSOQECVw8RKjPuKlqYgst8uUCKkFSDM1KYVq8CYzkUzdQeTL0uVUoLONYEeeU2+5PZ2YY9da+42zDkxMvJdqEyoqJGwOYenDFYct9MujUnujvEQG2Zw0de0zdWX54MNelSUpS5Mol04QgbkdYysnH/HyJZFsPERQUWx2pS8KjXLkUFS2olsq3HMwOO+wTvF2Sct4pUwhY7XRy5wzWrmoV4TU9a8wlLWnIyefWFVSqczZnF1mnSCg4y87qOOm+IcacqOxDXZ6JKEKR30ApCE7kdYwf2TgHl5R0YUrCyO6pAjSU6E4IO/WPD5NFnuPQ3W38HC+kdnqIzEc8kqyI7p6blZRJ9oeSkeBMDNSuqmspV7Oe0V0xGFNE0+xuMv2b5lKhlBHOBa8uyk5IVIrCXWTnY/+eEc09cVWm3CJWVWAeSgOUDd00i4K3Rnh7QtKgCdPrHpfSY+zanvQVzU4dFHjXW6kwmkUxlYUBpDhGBmI+u1y/bMUxXJqeDzTxBUlJBwD/wDmFpbc7UqNXPombGlYXstUH1cng5JKRXp5C5cIykE+Ue/XqF0JxjE5MqI6HDZVy1+8aU3MyU4jKk5IGARBELWuWaSFvTpx4ZhE/oy12bdvx6SpaVqpwOCemdo9gNk6E7DfnHr6cmftrZzJVpN6FhULRnJWnzE7OTCiGWyvTq2wIX1uMyVxTyJlqZLiEvFvA2wRzhvcaqi5S+G9VfQrC1NKQn4kGPMvBaYnrWuFuTrTpSzNpEy2pX+7vR1sK1zi9i9jaHnUZC2qVWZGkOrV7ZNDUAXDyzgxHcSqxallLEsmXen6o8nDDDRUST05ZhSXTVKvVuK8ne6XF/RrUyiWYT0IUoDPqIOuGTbNwcd6zN1dKe1k0BUtq6DWQCIz7UeWyctkZLX7d9McbmazYam6UN1OJWVqA+GnMOWyq9adxWz9PSRbRLpRlzXgFHxB5QXTstLzUm5LTKErZUggpPUYjx/cM5M2+q/KTQdX0drcyhPJJyNoxjN2p7+Ct68DNrvGOpTVUdlLEtL6abliUOOqy2kdNjg55RyXFfV3TFjGcctDsakh0JLOrbGDvnEMngdSaVTbAkHKWy2ntmwtwp+8ogE/jE9ezAcocwG9OsJPPpEhPU9Ivba7EDw94z3zWJxNIkbPQ6GVgPr7b3BnHhHpmQU67KNvPI0uFG6c8jHnr9FUuJuy5m06VYUMk/8ANUej28adjGeUtS0iVLsxSDk52GOUXSnAJAjOLjlCgyajqIyRgxi4nKVA8iNxG48jGG5ESK09lMVzhNIvxSj3W1+A84Z7KwtpCh95IIhdcS5f2apS84kY1LwT6wdUNwP0xhwHPcH5Rvb90dsh2oEVp8oujrGULQ8FmITtyitPlGUVFkBu+6embobpCdS08vxiL4YTwckVSRJ1tHvA9IL51oPSzjShsUmFxaTpp93TEtySteB6w3V91bQOhm6R0ikjPKLtnKAYyAhRLTIY4PjFbiM4rMXoI0PN621p/aEK+YT9E360Bsla9z84ahELXiQ0WKxLzaRghW5+cMY/baYLGO2pK06hyIjPG3KI+gOl+ltOk80iJEcowmtMiLYOOcVg+MZRUA+wjWoHG4BHWFhcYNLvVqZQnAWQMw0le6YAeKctoaZnEJ7yFCGcd6egWw1kVB6WQ5ndQyY6OUQdkzZm6I0snJwMxO9IztXGTREY4z0i3ZiMxyi8ZxbL0aQ0jc6fhAbxMpImKSuaQj7RoahvBuOUcNclRN011ojmmNabHCXRPghrAmUTNDQnHuDBgjCEZwBAPw8c7GbmZFRxhWw9YOkbQVm9g7LaAOkXAI6RnFRi9h6MSdohbkp5nWm8JB0q/nE0fhFgkHnF1ylF7K0X8YG+IEyGKBMj7ykYEEuwzC/4qPlKGmEn9YcYjWlbkVI6+GMrpo3aHZRVnPzg0STmISzGBL0VpGNyMxNNnYjwgbpfcXHwbIqKioAsqOKrEinvkH7hjtjiqo1SLw/2GCh5KAHhkCuqTyydwo//AMUMkcvlC24YqDdYnkH9o/8A8UMke6IO/wAgw8Fx1i/SLeMUDgRigygcmLDeLFaBzIEcs1UZZhBJWCYshA8QkFVMOOkZWZMtM0MKcUBg8sxF3hW25inOoQNwNjAva9QeelHG1LOATtnzhnzWkBx7GBUq602FBjc+OYHJ+femydajjyjlOSM5jU9MsMp+0WkfExhCmUmXySNwKjzI9I4ajOycshTjq05SOsD1eupDQUiV3PLaBGam5uoLK3VqCDzEd3B9Hna9voTvy0kSF01WWnVlDDO/7QMD8rIqypbjitxtkx3NMtoTkCNmk4ztiPX42FCiPFrZxbs5vowSw1tlIO2D5wB3nTHaTUhXKeSkpOogCGAI0T0szNybjLyQpKk4xGPqnptedjSpkvJWNlSrmmddnXTIV61SZpwdqgaSCd4G3Loq1u1Ja5OVcck1K2X0AhezTU5a1f8As1KEq6vcdOcOCWuO237NTIql0LeWjGojkd/OPz16v6N/TLnW10fQcPLV1KCi2LkYrdN7VKwHMb5iTyequcKqRXK2y2HfaRpeOQkH5wyqY+J2mtzKTzAjxmdiuEuSOrVJaOrfWUq2HjEZcVPFSpDrBbSUAZAIyesSLikganFgDERLlWMw+ZWltqdd5EARPTse6y5OHguyyCWpCTqAEnPGSebwpKtoIapLTVVpkvKU5kuLOBgCGEvg1P3FOIqk2Sy4TlScf0hq2Nw7pVutpcdQl10DqI+i4Hpk+SnI5N+fr7YglYkpP2/w2TKTyClxYAwfhB7w2bKaMtKhuVE5+cRnFN1LctLMN7BaxgD5wT2nLCXpDScYJSDHs+HGlHHlLlLZMDblFiM84vFQpHtkRbEX5AkCKigekW1tlaOabUG5VzO2Ek5+UedOMEnPVGkPvSwUppp8qdAGe7iH9c7wbozzoVggEfnAXYErL1GXm2ZxAcZeGlaSNiIYVbdb0M4t6psUmdfDm47ffsuU7CalmQ20ELSpaQQQMGFzVX5evcbKY5QSF+xqHbuJ904VnET9c4E29PTy35SaepzROool0jCvHnBlYdiUK05LsqcwkPOe+6RhSj4mEoVT32dH36IKUoy25EnOVulmaepPtjap0M6i0Dvggx5qtqzZK7rsu2SWFB/2rUyrPIhG0PxXD6jpu9252yUzam+zIwMciP4xD8NOHk1at31irTE4l1qfcK0JyO7sBiM5Y0pS7NfTs+GFXZwl210CXCC75ygzr9lXLhl5jKWHCMBYzgfgIDmpWTqP6SBl5tpDzbjbhAUkK6CHfxA4c0e6Hmp54iXmWTqDyAM8vOBCybIk2+IX007NuLmGkKQMgeA/lG1OM2uzSjPqhuzf3Ndh3OWVbiac4U0iT1af8lOfyhYfo5lqTue5ygIbl2nhsBgDAMPoI+wKCpSgoYziAagcN6bRTVfY514GpEqdOkbc/wCcZypfLYnj5+6p1zfTFZeUjN8Wr6mKXKTapeQpqipDickKUDjp5GL3DwKqzdLXMC4npkyyA4hs6uYGfHyhx8OrGp1ny76JJ5b6n161LWAD+HwgqWEqaVqGQoaSPLlAvHb7NH6tODjCrwjzgq5XapwEqdMnVj2+QaLDoVzUcE8vnArYlIrVzN04Vtks0yWUOzaxjWdt/wAoea+E1DVcE7US6Q3OkqWxpGkk9fwjGvyLFPmpOTYSG2mSAhI69I3xcaTs2NL1aunHnCHbfYJfpESbcnb9DaYQhDYnmcAAD7xiG42/q7L85ncD732cM3ipZD94yNOZYLafZ3kOqJPgcxvuHhvI3AxSRPzTjS6aoKSUAHJ046xj7bU5GVfqK9iKm+1v/wDoX01YTRmAP8oYHyhDPqA/SZZxvlCNW243VHoBiXDEqhkKWpLaQkEjnAa/w8pq78TdomXUzQSAEBI6Z/nGkkpIRxMmFXJP5TBzjjfv0ZT00GkJExVJshsIAzpB2JPrCQnrVufhwW6+8S7Lzm80EDGD1/KPRVI4Y0yTu1y4Zyben5tZyntkjufDEd3FyQkp2zpmVmWmnEKSRhXSAqx5KSaHsb1KvGj7cO4vyJC6GF1Oh0i8aWPaEyS9SwgbgEjIh2cPb+oVw0FiYRONMuJSAtpxYSpJ8N+cRPBuypGjWwtCZp2YlnycsKA0jP8A+Y4bn4HW1VJ8zkm+5S1qHeQwkYJ8d4KyDjLcfIORlY+SuEukvDNvGO/6dKUFykST6Zmemx2baGjnn8IAJzhzU2OE0nONy6vpOXWiZLY6FOTy6wyrK4QW5bswJp3VUnxulx5Iyk/KGOltst9mpIUBtjwjP2efc/IFfqMMVKFP77/2ec6/xJplT4UTNJqRXK1JDXZuNFJGSMbxrsXiRSaRwnap0qpczUVNqbQylJ5kn+kMniLwsodyys0tmQZanljuvBPXMc/DLhLRLYk2HZyRamJ5AOXSPOM1RZz18Dv1eL7G/ne9f7F/wcok/T6+KhUG1Nvz69aknoDvy6R6SlgA0gDw6ws5kJPEttKB2aQEgDodzDOaAShPwjqzrUIpHBysx5E3Jl8bKPUGEb+lzINvWa3NBKe0bVnGPOHlnY4PWFH+kgEzNrKaQNZ6gQnfH7GY1PbPOHDqbRUaf3p0Sj7XdB8olancNGp8u6JjVOTgGEkHGIDZalFLiRKrU24Vd4CCddvUuRkDNzYDswpOwI6x4bIrr96TZ3cel8UzktZ+drWt6ccUlkHITnG0T5fRLYYk2i6eWwjksWjVKrJUzLtFlvPh0huWvZclT0IXNJC3epIjjZGVXXNrQ4rXBApaVnT9ZmEzFRy21z0EQ3bboFMpbOhiXSCBzIjbJ4bGhpASPKOxvZQyraOfPI34FbpWTJBsYRjp4COlghadGdvDEcbOojCTkRk5OS8mgrmHktj4xnBSb2KyilHsVt7cLKlM1lyqW/O+zTCzkqGcfnGywuGszSar9L3DNiZmArVkn+sFVUvUa1StOYU8o7ZSMxx0+SuKquKdfecYaJ3Qo846MrJe3oXXkmapc9Okkrbbd7VYGAkdIGH7irNVcU3KSq2xnYkRNi3KLTVGbnlISsbkqiLrV/W/S2lMyi231p2CUneObLGnLtDMIyf4nOm2qtODtahNjSfuj/8AMbjQ6FTWu0mHBkeKoBKpxErE88pEkwphJOxORA/VKzPzCCifntuo1RVXpts5dIfrr0vuGFU7podPbUiXW0vbYACBOoX12jpRLypAI8OcL+cq1AlnCXXFOuDkMc45RdE8+o/RtHUtKeStJju4/od2uZHdXBaIe/252o19DzaOyWV7BIwesY3FRJz6LlROzCypakjGo+Ijvp71YqNeS/NSC0EHYYMMiicNq1dk9KzD4U3LtLBwfIx6WjCsTjv4FLrK+A1P0arMp1FtRudSyO2cAyojcw4dOExH2zTGqRRpentAfZICTiJPG2I9TFaikcOTTb0LPj/IVaq2i1IUyTVMFyYQF4VjA3hccX7Fm5qgUJiQ+xqLKEIUoDppAxHo50AqTqxpHj4wE36hXt8m7nGHefyh3GscTGcdgDxJs9NL4M02XYaK35N5laihO5OonpEVWLKuJctSeIVlOluotS6C/LuJz2mByIO3Mw/mGJd+nhDjaVtqA7qhtG+XaSygNobDbaRsBygZXtdA+2ee5m++MFZYVRZe0DIOuJ0Km1LSob7E4gu4f8JmJKx6hTq457TP1VJM071JOM48OUNtLac6kgekWIGsHBJEZ+7xXRFWebKa1xO4TPP0mkUhdfpi3CpnvgFsE55qzDOs2vXFdFrTrlxUJVKdScJQVglQxz2hjYSVb7/ERzVFKTIvZA2SSIuM9yTLcdCJ/Rop9QkbzuRc1L9m04vCD499Uegm9k+ELThwvs63ONuYGtZx6mGYnlB5P5hwjovFBQiorlC4ZX3YxznaKUpOCMiMCpA32i9FMDOKrJXTW3AR3V5/CJOwXy/RUHOwGIwv5pt6hvE4JCSRHBwtdT9DqbOAQo/nDXHdWyg1RnEX3jBKkgYBT6xWseI9YUUdFo2CLH4xhqT/ALYrKT4ROJZR3ChjpzhXVVJlL4ZXyC3f5w0VKSE7kQt+IzaWa/IzDaQMOZJ+RjfHXwUMSXJMujHURvHPMcFIeDlPaUVD3fGOxtW57wMZSjpso2gxbEY5J5ERcZHMwIReAzidKh2kh0bKQofxgz+cQl3ywmaM6k74GY0qepAyNFiv9rQ2UnoIIQYEOG7mZN1on3D/ABgu1CKn5JEuTFZ2iiRFZGIz+Qix6xBXpKJmqM9kbpGRE4ojl5xy1RAdpzqPEQdb1MBg3wydBpKmjsQdhBclQxABZD6ma5MSXIJVyg+B22jS6O5BR8GfSKzFgoY6RRWnxELqJZWekYqGUKBIO0UCPARY9ng4xmCUdMpiyk5hVPvZwK7qVqhnNqykKGNxC04iNNytdl5lpH3hkj4iD2iTTczT2nQR7ohi2D4poFeSRBOIocowLiAPeTGtUy0D+sSPnCyhIM3bRjnpHOqflk83kesa/pSSBIL6B84JVSBfR1qIA6wt+JKlP12QZB7vaD8jEg3fjB2W3iAy7Lol3q/KPkdxDmSfWG8bGl8gykhx0prs5FoeCBHUNuWIDafe9KLCUreAwkR2tXlRFAf2lOcf+dYwnRJPsuMloJ0k9TFaoghdNGVymk+o/nHUxXKa77kwk584H25foLkSYMaJ0Ayro8UmMPb5Qpz2ox8Y5ZyqSSWVp7UEkYioVy2C5IArJWGLsmmRyUo/mYZ6T3ckiE39JNyF7hSDss/zgymrgdWjDe20MXwetki9ha7Nstg6ljIiMm67LtZAOTAi7OTDqiVLMaN1Kyskwp0g+LZNT1fcdBQ2RiId6YfdUStRxGvqdO2IsVJCCpxYAEXBSs6iivBz1Ia5JxOOYgWtadblZx5p9ekZOMnziWrVwyMqwtAWFKxC2nHpqbnVPN5SgnmI7uD6bZclFi1uTGPQe1u6paUyhg6l/HaBGoVSoVJeS5pQfDaOZiXyR2nfV5xKyFNfmHAAnSmPSU+l04y3Ls5F2c/hkaxLJJxpUpXmcxMSlIfcbypOx8oIKfR2Gk5cA1fCJJpCWxpCfhBTzVF6ghFzlIBpymvtbBO3wjjKVpTjSdoYrsu04nCxEXOyEmASohMaxzuS0zNU82BgyR1EY6koVqW4nbpEjV3pNgFpka1HwiFZp1RmndaZZWgHPWGHnVxj2xinElvsH77pKazKgyzZU4jfIECK6kiRkk0gsqE2O6FHxh00pC5ZCwqRKiRjcGF7fFoVhdZbrLEkQ2k5WMHbf4R84/k+HHLXOK20er9MTren4IKn0KqTKEzlQmFKSg5CcnAhv2vWZJNDDIdBWkDAEBNOqCJ6UVIst6pjGNI8YKeHXDCvvr9rmUrbQTkAx86h6TPLt4zWkj0NuXCuHQSUql1O43Uhs9myTgnyhoWxalGoTCXFdmp/G6iQYh6baFYlW0oYmezT1wREj9VKq4AVz6jjzEeuwvRMXFS0cW7Lla9hOqqSDO3apTgdDGtdfpiB35hMDqrNmlj7SaJ+cV9TEZ+0cUrAjswqp15FG22DXEKu06ZqstpfCkIWDt8YLZC8KOxKNILu+gflADV7ak3LrblN8czt5wfyNlUb2ZCnGiogeEb3xhGtIi2zWu+6eB3Mq8xHM5f7Y9xhR+UTbdoUVCe7LjHwjei2KWkbMp9IXjOpeUTsGDfzxHckHD6RrN9VLBKKU4fSDFuiU1HusD0jpTT5RKcJaT6QPu18vAT2Kq6rtqzlJdQqnOISrxxEfZVSrzVPSuWk1FKhnlBvxKSw1TezShIJI5CJPh/Kspt5hWgZKR0hz6iEa+kB3sEV1G6XDkSzg+H/AOYsqYu1zcNLTjw//MNHsW/2R6RQaR+yD8oVWTFfBIw4+BW9pd37Cz/58Yuhy7QhYU2tQJzv/wDmGl2bf7Aig2gA90ekV9TH9Fpa8CsM3dKUK1sLIIwR/wCGBylVKuy1fcWiWUpRO4h4zSGxLKOgcvCAG3ezeuhwadsnpDVGTDi/tLe29nOm6bgl8FdNdUOvKOhi9aiN3KW4MeQhgKYZUNPZp9I0qp0qsYU0n0hb3q5eURbAkX24gd+RWkRuZvyWWR2jSk4gmXQqa4cKYSflHO5a1Hc95hOfhF86/wBEW4+COYvWkLVl1wJ+IgUuOvUuar7DiZgFCVAwZvWbRlcmB6Qvrpt+mytcabylAyI1o9vbaYMul0MqQr9JVLJAmBuOeY7WarTncBL6TjxMBiLcpypZC2p9CTjlqG0bmbb7ROmWnklXkoRhOuqTemaLetsNUzMu4nAcHrGaFMjva0n5wFG1KygZRPH1Ecz1CuVGcTZIHTVAKuL8Aa72H5UgnOtPrAnxMCFUB3YEY3xEDMyl1tHDbijj/d/SBq9Z24pejuidJCANyTDNFC5rsproZ3D5SFW60QAlI5YgiSlKxqI5wjbSvWdlaWhptBWgc+cEMlxCqK8NoklK894ytoXN6ZrFcY7Q09A043xFglOPDeF6m+aknZyQV+MZ/XuYA78moeOxjJ48m+wVp9h+UpJJBjFSQAok5OOXSARu/wBIPflz6GOpN9yBQpa0lOfKLVM9lNLyQzhDnEdskbhQ/jDNZ3bBPhCZauOnKvhMyp0BGQT+MMli56QtlOmZT6/1hjJpmtaRSaR112ZdlZRS2yPLaF/cDZqrDjcwnXqB2g1nqnTJ2VUlL6TtmBdtntn1divKQYSlTbJa0Epa8HmC6JeaoV3vtiUUphRJSccoJbboE1Xw3MzOfZgdgNoe1SsSQq0o69MoR2yhhJIEAVLQqhVZ2iO7JzlMeJ/kGLZSnOK0dvCy9pQ2TtBp0rTZcMy7YTgYJA5xLsqOcK3iLQ8hpGp1elHjEZUrzotN7pmUk/H+seDUZ3PvydOcklthg13jlKtPkY6UrQhslxWnHUmAwXnS3af28q4HXcbARHtzdduBJSAphpW2c9INVOD7FZ2OXgJa5eDEn/ZpJCn3jt3TEZK02u19QdmnS2yTko3z+cWkpSk0BszE+8nth1ViIaucSFhfY05rKQffTnGIdrW1pIy9pyXYfSUpQrXa9omXU5xvrVk5gcuPitJMBxmnJDmRsR0hRXPci5p4vVWoFDfRGYFJi4XlvBqkSSnU9FYO8dvD9HyMlfagXCqtblIPKxclaqq1uzk4WWDySSf5wLzFcpFPUpSl9u/0wesc7dGrtdbCpp0spH3cxJUmxZFlaXpglxY8RHsvTv4VfZrmtI513rtNHUUD8tctWrNRMnJypRnYHTBRROEtyVN1M3NVIho7lJz/ADiYbpbMliYkW0IcTB/Z1w+0tIlphSW1gYxmPQX/AMUWLBNIWXrLvfTAqc4XUin0/t5rU46Oe/ODKwqDTGJI4lG9IG2Uj+USN7qKqSlIA3PMGOm0Wz7AlA6wEcaEamtEc5N+Tqp9sU6Zng8iTbCweiRDKokgzJSaW220p+AjgtinBpntVDmIIAEhOAYU4pfBHKWtFJ23EXz0jX2raAcrAjjmatIS3619I+cFGEn2BF9HcQNeCMjnAdxBT9rLqB5L6/CJGYu+jNAn2lJwICL7u6VmG2iwNfe/hDWNS3InJDJoaw5TWtRzgCO7UnUQT8oVdGvWoimpEvIqWfnG9dw3LN6giQWjI2O/8olmK1Lsgzdbf7QHziyltgbrSPnCwbF2TSt9SPn/AEjuYolzP7OThA/5RnKlL5IHbk5LNg6nUj5xHz9Xpzcs7qeScp8YHUWrVHB9rOKPzi7tnOdgsOPqO0FGEOa7AewWtauSEncsw646NBVsPmYNnb3piUfZL1EdIXNGtyVN0ql3cqGrfaGbK2dRW9wwCfMQ3lRrjJNki2Q7nEJIUQ3KrXHK9e9XeyGKY4PSC+XtumsqylhHpHazTpVv3W0+kLc6l8Bdi7VXLmeB0yTic9cco1+03XMbBKk/L+sM8MoHuoT6RkEJH3Ej5RTvil+JBRVuTulylv8AaunSU7jB/nEJYsvcel1qWfIwo88+Pxh2V1CPomY7o93wgF4anFVmEKAA1H8zDVWQnU+itGgU+7BzmVZPgD/OKMjdv+oV6H+cM7SkE7D0i4Sk8kiFPqI/ovTFd7HdoH69Xof5xgW7sTt2ivx/nDT0p6gRWhH7I9Ir6iP6JpiqU7dqV4yrblsf5wNXs9XlKZcmkqJSem0Pjs0FROhMBnEqXSZHWEDujoIYoyI71opgxQqvcgpzeiWUpIG2BEgmvXGkf9A5BhZjbSqI33Ry6iJrsmsY0pPygLMiPLwXHehbC5rhb509yM0XfXEjBprh+Qhidgz+wn0jEyzBP6pPpAe/X/xJ2AAvWsDnS3PQRpnbyqT8q62aY4MpOc4hiexy55tp9I0TchLLl3B2SeXPEFC2tPtFvehP2beM9IzcwyZBZ1E7beMFgviok4FMc9BETSpZqWvZTDicpWrlj4wyUSEmoZ7JPpGt8q13oCHLvYGm+KiDj6OcPpFvrxUsbUxz8IMFytNQrC0JBHlGbMlIL3QlPpC6uqfwG4WJProCzfFUAyaW7ty2Eal3rVloKU0twAjqBB4ZKVGU9mn0ijIyp2DaQfhBq2r9AxW115EjLXNU5W7HZj6PcSVnJG0GCLtrq0akU1zfxAjTeEk3JXLLvnASTjGPOGJTm5dUm0QhOCkdPKN7rIKKeikptAD9ZbjWMJpznxwIwXW7lUO7JrB+EMMqlW1FPc+GI2NoYUCoIB+ULPIhJdI0dckti1NUulQ/UL9P6xrVNXasd1C0+ZH9YZgelAcEt/hGY7NY7mgjyiLJg1+JbjKK7QlbtlLjdk1PPZOnkcf1jbaCbkm6Y2hh9QAAzz/nDWuKUTNUt1oIGSk9IEeGLvZTk1IrxltUNQvi6m9GcV+zi+h7tcXp9sKR8/5xmLXuhznUD+P84ZmEc9MUkJOcDEKPK/SCFqmza+v36gfU/wA4zTY9WI708rPxP84ZIEVA/VSRNbIH6r0gpP8AZm/QQG8RbXprNNVMttJToGTgRJGtTRCgHVekR1ZemajTlsLcJ1DGDGlNslLWwZRM7MotBnKMFOhsqHMmOubt63mz9nozjoP6QCWjPzEvOvSa16QDsCYLStSjlOc46mNLpyhLZIx6OWoUOTOfZ3MfCIpyj1BB/s00pI+Jif3PvHEUMAc/UwKyU/gviCr8vcMuO7OOKHxMcqalXZZC+2bW5vzMGJKc94IPzjFYaVsvs9PmRGkLu/BXFC1qFYeFbYmH2SnBGTiDWn1+RebGt1KdoibylpBcvrTo1A9DHC1KUoSIWl/SrHjD7xnfHpAOaiHMvMNvNnsnEqB6xmThBK1JAHWFlNVN2RH9mf1AdAY511+qTaezSpScwMPQpyfZnLKUUH1QuCQk8o7UKV5GBCt3FNzSy3LakpPUGIhuWfcdKnFFS+u8SkhS3nTgpwnxxHcxfSq8dbkcu/PafREiXedXl4lRPjEnIUx9zCUoOIJJChNtAKWdWd8xKIZZYGE6RDssqEFxrRz3dKxkPIUIICVuhPpEzLsMtJwgcvCNTs9LMk9ooEjoI4Xaq64dMmwtXwSYRsvnL8mHHHcyVzg5BAHnHFN1SVYVhS9Sh0TGMlb1frKvtAtlJgtofD+XlkhycV2ik7nMIWZtcGPV4mwCmK48uaDDDSiV8sxM0qyqvVkh2ZcW2knON46pKmy87emiXbAQyd8CGzLoShIDYwAMYxCOV6k0tRH6sOKewPpHD+lSyEmZabdX4lMTrFu0xlGlEu2B/wAYlyR0G8XSSRkgD5xyp5VsvkbVcUDk1asi44FttoTjoBENe8zbluUF76VLYC07BXWDl1YbQpZ5AR5Y/SVuF2q3PLUtrKmG14XoOcDPXEKZWVbCvkvg1rg5vSIm2Los6QvYz7rSUS2vOcDHXyj0FanEy0Kw+zJUyeZK1DAQD/SEY/I2bMWw1KCW/tOkZIG+YXUrNSFr8VZFUupbbJUBsTjmI4mF6vDIscUtMatraj2e8U6cgjJydo2ERF2xNtz1Gl5ptzUlaQQYlY7q00JNL4LYjFXdSQFD5xcgnYKxCw4ycS2rPYbl5Rvtppw6QnO8DKUKlthKOzN9SJniOppLqcpz+cMpkgS4xvgY2jyo3fV4SNcFxTFI+xdORueXp5QwOH3G1u4bjTR5iX7FwgZG8W8yNqSiyOLQ8MxaMGXEuNpWk7EbRnF62gS45RXSLRf7qovrYQvOKa8vyrSTjUoZHjvBZaDfZUdtGMACAviSvXXpJsb98bfMQwaU2G5NtI/ZhufVaQKXZ14+EUAIreK3hXSC0ViLY3i+8WJwcRNImjmnziReOeQMAVh/bVuZc54Ud4M7he7GlPKB6GA/hUgrcmnVDms4MM1LUGwRgoGwMZxik7ARltCvyy9FsDwixx4Rlt4xY4iE0YHltHlb9Keq1SUrksxIzC2VrUBlBxHqnYR5J/SbQ1MXm0XHezS0QoE7CMrnONbcQq4cpHJIWlfjlsqqzdxPpATqwXFeEX/R5uq5Hb6ep1UqqnkoOMKUT1MctK4hgUgUhU1paUnTnyjHgYmURxUcMs+HdZBJHxMee9Oyr55DUh6ylKHR7LYOWknyEZkDEa2CkMp3HIRmVADnHpU3+xDRiUJJ5DlHnP8AS6qk7KtyclJTBY7YaTjODz8I9GnGNWRyjzX+l8lLkxTznSRjfw5xnfdKFbcfIUI8noCLdsW7nLOVUWq4pKdJVspUY8Bq7WjxJNHqc6qZQlzTuSR08Y10K+nJSiJozk4kIUnHOL8LBIJ4ryjkq8HFOLBWR45jhen5uRPI1IatqSgev/ouTUx32UZON8Riuh0xXOXSfkIkWd2kjH3RGxB23j0vuvloSS0QqrZpKv8ADJ9BHO/alIUypPs7f7sEO/ifSMTnCwRtBRslyKYlnrap7l9CWCQlKiBgD4wYuWEwWx2Lun4RGascSEpKR7w/MwzGtmxmHL8icdaKS2LxdhzgyGp1SfmY5F2ZXZQlTE8sjyJhn5GrG8Vv+yMRisqwtQFYuQuqWIIdccxyGTAFfchcMvOpqbsqvu7qUBviPRywnbUgb+UR1fpzVQpkxKLaSdaNtoVy3DKrdckaUv25bPKk/cS62HpZmcLS2wRpyYk6dbdFnrLdcqEwkzQzg53hecQ5CetTiAtgt/2dayCUnpmJhyoU9iUadRPnSd1JBz/GPnGZgLHtfE7VdjtR0cM5dFOrLqZ9R9jydKlmDyu33IyLRkaMntlp5EQorkuhNQW3IU9stNoI1LIxneKbrDTaQxT2VPTWMZAJyYFYTtlvRvCyMV2Tlcqsw8tU7VJxSUc+zUo4gQnrpm5pwytIlSUk+8BBXQ+Glaut4TVTdW01nOg7QcS3DOXpsqGZdCcpHPG8ew9G9Bp2pW+BDKztJqIq6DZc3UXBN1V9TiTvoWcgQdUmiyEggIl2kYHXHKOp+mz9Md0rQrQPKNjDgeVoQN+oj6v6Zg4VVe60eMz55M5bT6MihKdkY+UbWGHXdkpMSlKo63FalpOD4iCOSpzLIHdBIjoWZagtI5e+tS8geabNAE9mfSI5xtyXmu3aBBSekMwtIUnSEiICq0nOstJ/CMHkrIXGRtVbxfREzlwJmqc3LOnvnYZg+s0pRKsrUBp2zmFPUpFSSNiFpO0SkpdUxJS6ZMJV4ZwY5Wf6X1yh4OzjZW12ehfpmmy8oFGYQnA5ZgaqV9NFapeRaU45yBEL6kyk7VUpfdmSGzvgGGDakvSZMJS60kuftGPOSrjV+R0lLkiIC7sqzhICmEE4HP8AnHbLWPU5ga52oKOehJg/lzLKQC2E+WI6ACRy2jD3/wDiRRA2SsSnNjLxDh656xHXjbtLlJEFDKE45YEMTlyECXEZWmQ2A5wVF7UycTZY9OlBRW1dkgnxxBKiXZSMBCfSIWx04obe8TwIziMrrG5Flg2gfdHpF8JHICMoqMpN6Ii2BiNT+7K/hG6NTw+yV8IqO+SJoV8kOzv0DkCf5w00bJhYOjRfzXx/nDPRunPlDmVttAxL9IrA8IrEXAhPTLLYisRlGJ5RUnpBaOOsD/254f7YXnD1RFxTCSfvHH4wxarvIOfCFxYm12TA8z/GHaNe0ytDRAi8WT1ioTbRCsDyisDyi8VFbRejAczAtxCb1UZxQ6JgqxgHED19JCrff5e5G1L7BaMrEP8A7C3k5MTbiko3O2DEDYCf/ZEZMB/6Q1yT1CtEMU7KX510sJXnGnbOfwgLmkzaivnJRCap39alMmTLz1blmXUnBSon+UTVIqspVJRE3JTTb7Lg1IUg7YhR2twhtyaozE1V23J2bmGwtbhcPMjP8YibdlJjh3xYl6LKTLjtKqIwhsqJ7PJxGcX+x2WNDTUX2j0CMFWkE7b5iBvest0O2J2fWv8AVNkjJ5nBiabWAjOcYEJTjbVX65dVMsuQXlL57R/SeQCsHPyMBbLWtGeDj+7ck/C8glwtvdy4LqKpzU2pDpUCo7lOTiHLxGveVtG11T2UrfcATLoPNROw/GElxKtwWFdVIrUonTJrKWnQkdQncx28Ypz6SrlqvqOqQKkE590HWOZi53Nx0zuWYVORcpw/AkKda3EW/wBj6cn649SEPJHZsMqUjA8diYwnlX/wvmROzM4ur0pa0h1ayVFHTmT8YfNFDCaYz7MEFOgYwdseUQfE5MgLOnzOBBa7JWQo9cHEZcOK8nOryFK723H7dm6kXRJVWzxXZdf2Ra1g56QNcF79auwz8q65/aJZ9acE741ED8oXNj1F+m8BqnNvOYYwewyeSMDAgfsViYsWp026suGUn3FJfABx3jsT6xlC5pjsPTKpV2OPnfQ2f0iqg3RraNRDgDo7qfHO8dlgVupXFw1bmaasJmigoSpe++AIXPGyd+vlTFGkV6paTaLzy0HIyDy/GCD9FSeUq2JinFeUy8w4O9scasQzC52bizOeEqsTm/yIys8O77YknarM3q8h9CS4pCXFhAI6Ygm4IXjVK3bE9LVFwOzMprR2yeRwcZ3iuNFs31VlKNBqiWZPs1BTJIGonzMQf6P9SZRR6pbs3L9jUpLWp/A2VvjOfiIXW4yJVCFmNyfb2BNnUi7L2rtTU3d03LIlnylKQ8sAjn0h0cLbJr1tzzsxUrjeqTbnJLjilafhmEbw2ol51Ot1dVtVZMihuYIVyOfWPRXC+lXRSqctu5KgmdcUcpUMbekbUSWivWuEGlHxpBe+NaFA/smFnSXTTr8fQRpDq/4wz8bmFtfbQkLnlJtH3lDJHzjo48k04/s87JfKGS2rOPMCNgxHHSXxMSDbo/ZEdTZynPjC8koshkBF4sIvApplpCNXddMA2cHrHMu8JFOcOZ8swF+zs/sn1i4lWCfdx55j3sfQqYnFfqJ0z1bbZqwmmk7KPSJsXmUgAIKjiBsSwUe83sORjNMqVK2RiNv6TRrTA/qDXaJ1y9Hsd1kxyru+edH2bKhHCmSc0k9kfSNrdNmFJylGATttAx9JxomcvUZlLuGpuHYqTGhypVR4n7dQHxjuYpMwskdny5xvbo6lHfSNuQVvBrCxoGSzpsgXxNTAIemyfnFm5dxDRWtRLQ2RmMJquU1uqqpUm269NIICkhs7QO33NzTtdcp7c57KywjljfVjI2jXnXWvtBlkTkFbNO7ROQ2pRxk4Ec1JmWqszNsyLjXtUslWEjnkA/yju4VylRk7XXM1SaSXXVHsgvGSnpsYD6DbswpieuOjLW3MJfOtsrOFjJz+UZvKk1sDcpEla98ykrJuM1GmvPzksvTMFIGE45neGbQavTqhTEzsopKmVe8k9IS8rL3LP1ec+jZRDTc8Cl9JQDgk+MMa3bLqFFtlSX1KSVHUTnxMJ2ZMZPtjNWI5hI/WGdXZSxK1AbJEYSlPrtYd0IYW0nxxBHwsthh6T9qm0a1AjBMM2VkpeXThttI+Ajj5HqXtycYnRqwYpdi2ofDx7WHJ5zXnc5gzpls0yRA7NhJPjiJwDA2EX6bxx7c2yfyOwphE1NtNtDugCOOvTPslKmH+WlGYkcbbwJ8SJ32eiPM5/WIwIzqTlPYUkQfDRku1abnCNlqhjJGMDwECnDaUDNES6tOFK5wVp5kHxg8l8paLj4MsRXXBihGKiMY6wvv4COepoW5IPNte+UHEeHuJ87cFp31OvT8kXmphZLeR05R7hn5lqVk3Jp1WlKEk7x5PvJ9PELiSG0NBUvKrKScbHfMIeozrrpbmzfHg3IV1Lv6alpjt3qXkEnAKYvLJFxtPVhxoByXOtO3hvDa4jUag06giUZlG0zOMAgc9oUVqyNUarZpzCFKZeODgbYjyWPkVOLnV1o6yo5RPS/6OXEWUnrYTIz7oStk6QCfhDnlarIzKctTKPhmPO1r2QzS6fhpRadWNRweRiS+hamhX2FScT8z/ADhur+UV60/gWfp7a2h9zU4wxLqeW8kJSMnePInFR6euniMqZklhTMqrcDy//EHsxI15cu5LLqbh1p0jc/zhEV+3Lkkbpdaps444pZyrBjefrNWXXx2ZwxZ1saD1yT1VkmaV7PhLA0q25wC2rPIonGaXcdQEhwpTn1iAqLV4UFl6ZfSpIxnVnnGFuS05WJmRqWoqmw9y+cZemR42ck9mttf2dn0Cpi0PU9lxHIpBEdUD9hCaRbkmJtOF9kMxP522j1kXzRynHTM4sesXixxgwa8EYsLv+1vKVT/u/iIZUqAlpKfKFrdw7O8ZVR6q/iIZUsctpV5Q7f8AhEA3ZisxbMXhLYZWYsobGLxic5ivKID98udjb7pPUGIbhSCZBSj4xIcSzi3F4jXw1bDdGBxzh2K/9uZ/IWpGIyjECMsCE0ujQseUWjLaLHeJohomX0MNKW4do8kfpXSqKlVWEMO6SpXQx6au14pa0pURtyjzNxvCXqnLhedQUMRLdQqlL/QcPyAiU4Tzz1vGpInsBLeTuY0cC5ao0C7X3WQqZUlXTfqYd1ElSjh2pKgSVN77+RiO4Z28zKvuTraU6iTnPxj5lL16dE7Ejtwp5QDBN93OEgCQVsP2Yum+7nyMyCx8o7Oy/wBifSLFBxskZ+EIf+rLjVYMDj+vd0dn/wBG5sfCFnxzcrl1U4OvSy0aOuIbCW1asd3T17sQ92yvaUh5KlJCQP2YOr+U3zlon0UF2hCUPhLPT9JNRcn1J0pJxkwUfoyWyhm/31PLLy5d3AJ+UM2gy2i23mxyLasHHkYgf0ZmOxv+tdrvl06fQR6D+O+pWZNz5COZVxiem0fqwB4Rm3yEYJzlIA+MbE7R7lJeTkx8FjyjWs7EeUbDyjAjf5Ra8lMWM0rTxKaB8v4wzkbhJ8oWNUTp4jsq6ZA/OGaxu2g+UNX+ESJs8YuIxHMxkDCgRirxjW6sIbWpWwxFTDqWkFajsIGKzXApam2TtjeLekik1s89cemmnbmmnHm9CSTpWesL21rcadbW86Q62onGYcPG2kGqUZT6N3Ak5x84W1j0GvPyqGEMqDeojOY87nYFs3ySOziZEIRB6p0d6q1pNJpiOzJOCQIc/DzhxIUCUbdnEB2aGDnHIxI2BwzXIzonV/aOHfJENylW+Ed50Zz0MdLBxOEOxK/I5PoG5aSc0JTLtkDyiUZoMy4jWoHOILWpNhpACGxmOlKUjoI6EHroTQDVG0xNSyu2TuAekJ6q0Wap9wudg2ShKuQEel3sdmvI5JMK2Xbbm75dStIKQrGCI7Hpua6otC90OSIKj1FDjQZcToWOhiVBAQSU84lrxsxJQZ2Q7qwOQgRpk+8w6ZKeSUOJOneOpRkxuWzjX4rh2S6QCjKYtjIIMUCAduvKL/ehnWuxJpohKtSA/qWkd7pAlPU9xpxQWg7QyF6RzjjnJJl1KkqQCojbaG6smWuMvBE+L2BdFrczS3Ql0ks8gIPqPV5WeQlwOjXjlmAarU1bK1AoyM7RFNqmpNfasOHY8sxhmel13x5Q8nVxc/8AxY7ZKpzLK8BZ0wR0yuNLIQ45v5mE/a90peAYmjpWDjeCxt1CyHGVZz4GPJX4M6G9o61c1LsaDTqHUhSFAgjaBLiOcSzKSPvRwyFVeYeSnWcARyXfVkTbku3q31dYXxU5S7CkGNot6KI2PKJjHKOC3wE01tORyESBO8VPywkXihFCKHOARCusYrHdPwjLrGKuRiR8lMWNY+z4hy+euPyMM1g/ZD4Qs7qIRf8AKq6bflDKlyCyn4Qzd+KBibcxWYsTiKBhXYZfMWxF4tkRTa12Q5KttIOnyhd2F3rnmVf7j/GGFWSPox4+CYX/AA3GuuzSgPvH8zDuO17TAYzU8ouRGKCIyJ84Tei14KxFYi2YrMTaL2W8Ygb3TqoD3/GJ3OciIe8ADb7/AJIMFVJ8ijlsE/8AsSR4H+MRXF+0Bd1sOyTZxMoythX7K+WYlLCyKMEnx/jBCvvJKSNjtmJdBtmtVjrkpI8/067OIlryyKLM2pPVEsJ0pfYbynHIczElw9tq5a5dn1wupksFA/ssvggpGc7+eYdIaaWTqZSMciRnMZpGnYBOPADlC6qn+x2WdyT1FLYspmvXlL3lNyi6Q4ulpYCm1pT1wf6QPcFrarFQu6qXZccqtqYcdIl0rG4SRv8AiIdjiQTlKE5PMkRZprQMoQlJ8hiLjU09yewVmuMWorW0Lvj5Qm6xY77IRl1AKkEDrtC9sK3J+8OGCqLV5V+VmpZQ7B10bkjJEPC8pX2qjuskbEHeIDhatBk3WypPdVsMQxKlTj4LxvUZQrcBZ0uucSrKZTSZu3Z2rstjS28yjVt8zGM6zxA4lPplZunzVDpiVAuIfGnWPlmPQDrDLhK1hCjjGDF222mxsUJHhtGPsLwEs1LvXYmOLFpTUnw4kbYoUmVsrIbc0Dbkd4JKlZPtvDBuiqaw4iXSUjH3gkH84YeZdR+07NWOWSNoyS60MpLjZHQZED7EV8AL1KyOtfD2JvhfYU3QrHqTlTCPa5sE6lDdKcYxCx4XKr0tXLipFCdImSdTe5375Mep6othUg62HWxqTjYjaFvY/sEreMySllt3qQkDI36wzHEc4dfAxV6nNcnNctgqm++I8jIfRk7ac/NzQGkTCEZSo+O5iV4NWRXJFdWuKuIU3N1BCsNL5jcnH4w3TNU0DKlME+JxGP0tIp2L6CBy3EYfSyfRUvUdx1XBRPNNk1C9bKrFUCLPn32nnyoFLY3/ABhscPb7uiuVkSdRtadkmDjLjiAAkePODZVXoqSQpTPLmQDGpNw0VpRUHG0nG+AIKrEsiVl5/wBSvwSf7J4HrATxTkyaSZtPNs5iYVdtHTze/CIO77no85RXmA6SSNu7DdNU1NHJ5NInrDmA/bzJJySMGJ5GAMDpCvsi8KbJS3s7rhAGcYTBAq/qUk4BWT/wMXfRLkwVIMjy5xQIHIwEqv8AkT7qV/uGNC79ZB7rSyP+JgI405eAuQvEW6gHcx0N0CX5KAI8MRMrGhWlR36YikFK1EIyrAyeke1eRNryePUURbVHlh3XBnHJOIxmWqRINa55MuwPFWxEdVYM39CTKpFSfaAhRQSPAGFHw/t5V3zM3MXFUplx5h0oUwh1SMH4Axm7Jv5DjGI0KFU6LWkurp0w3NMs91YzkDpHFXrot6iaWn3UuKxlKG99oAKfJs2lxAm6Ew443IzzBDYye6rSevxMY8KGKdLXJVqVcLqXptpZS2XznKcDcZgU5fsPSC+vXxTXLTmJ+kPJ7dOE4J3G+IBbScuWo3ZLrlqzMPNIGqcAVlCd+XpG6dotNrF/z1GoyyZR1hPalBOlCt/4xuoFmXrQJJ+kSDzaWX1YMwUAqKeXPOYvX+yJJEm8lFt8VZaohxbsnVMMahyCgCoxs4mWBM1mqt3FS1MuTOoKKHTz38vhBZSbVlZelyUtP6ph+XV2iXCScKI3O8EQ2KSrGEjwgNNMifekLOk2/ck7VJeduGZTJysokdm02o6VY+MEVvUZT2adRmTpUvK1AbHeJGY9prdVRTmt0lWnaGraFDYo1PS3pT2h5nG8K5mY6Y8V5Onh4/NbZF2hY8pTUdtMNIU8TknEcfEp5KW2pGWSAVKAwIO3H2kbKdSnbqYV96T8qq6WMugoSRneOFGVlkts6sa4wQfWbJ+yUKXRjCikExN9IG5S5aUxKoQXk7DlmKN4UhJ7zwEZTqm23oLaYR4ioGVXvRE/4gRpXftET/e5+cZ+zP8AREkFm2DC74qOlTkswAe+rGI7neIVK+6vb4wDX3d0lO1OTW2vZC8mG8XFs3toqTQ2bUY9no7LZTju5iUzk8oX8jf9PQwykK91G8bm+IlO0qyd9XjGVmPZz8FxaDrbwitgc435QDjiJTPH8YocRKUCSteABGSx5xf3Im9s5eOVXVIWe600sped7oAMLXhjQGqZRXao+kdtMJ7TJG8RvEu7lXbxAkabTVFyXBGsDlyguvx9NDsn2ZrCXgkJGPnHzv8Ak+RN2eymdfCgmKa7512p1lxxKioNKxj8IYPDq1JSVp6J15hKnjuCRC8taWXUq8w0hJ+0UC4TvHoKRkTLyCGk4GkDfEeQzch008YPTOtHSI9xlWokjG20YGXUBmJTslEHUnJHKMA2QdhnMcFWubS+QlNxXQP1pQlqc86ThWnb4wMWfSVPTLlRmAFKJOMxKX24448iQZV3irfHhEvJSaJKjgrPuo1EjbpHXotcFx32VzTFnxddMyz9HBCQpXh4QK8C6e5McQm6YcKaQQryzv8AyjvvGfQ7VZmacWezSk4yYIf0d1UuQnnq3NBSllRA9Y+gfxyqyaXJCGZJRR6nkW+xlW2se6MbR0BUBqr+oyDp1K28jGJ4hUj/AHeke7WNNLpHAlLsNcxbnzEBR4h0jpr9DFv/AFEpXgv44P8AKIsezXgrmiJv9PZ3VJKI21fxEMWQUlcskjwhNX/d0nN1CWmGUqAQRuRz3goo/ECQRJISQonHhDdlE5VroFSWxiYA6RfIgEVxDkBnuL9IxHEOS6IX6Qt9NP8AQe0HuRFs78oA/wD1DkRzSr0jBfEKUJwlKvSKeNNLwTkiT4n5+r68DrHRw/AFEbwOkAl63sxOUZbQQpPmRGdmX3KS1LS2rUrHXEOLHn7GtA77G4TvF9v2YADxFp6SCoK38oy/9SKZ4K9ITWPP9B7QfDHhFt94AxxIpOMkq9IzRxHo2CStUX9PP9FbOy71LCwAOseb+M60/TsqhfVYhzXDfFMnMFrUcc4RfFSfl6jcsj2ee84IXzq5V48pP9B1STl0NenSuLEVgbdnt6GMOH8uoSjmRtk/nE0212NipaCf7rOflGuwkBVNVhONzHwbNv1bM9BVP7NEiGdjtFksczgxKBoAe7mLhtGCMc/KOP7z/RupkYloY5RD3Y0BR3dukFXYADYZiHu9gfQjnQ4g6L3y2kTl0RlDYD1vLKRybP5QIcDF9jxKqbY2y6f4QxLXaR9XFYGMoUPwhYWBU5OicU572hQGp0/wj3n8PscrntHPzm3E9Pt7gGNggYbvKi4CQ+nl4xmLxowG0wk/OPqqqn+jippIJIwVygfF40f/AFCfWMhddIUMCZR6wSpnvwRtAhch7K+2V/7h/GGRJqCpds+IhSXrWZJVxsTTTqVJyM4Pxg9pdyUsyDJMwgEJ5Zhq2qfFdFRaCTPexFxyMQzdyUteT7QgfOMk3BTDymEesKe1P9BbR11RsrlF4O+IXz6CiYXqOd4M5it05bKwH0bjxgaaVJPzilqmEBOYCVM9ppA8E/kGbklu3o7xLeUgeES/CejsKpKXeyT7x5iJC55mlNW7MNtuIUrT0i3C2dk2qEAt1KTqPWH5p+1riTWvDDeWlGJdOEIAjcnlgCOH6VkT/fp9YuKpJ9Hk+sJKuSXgPo7orpHI3UJVR2dSfnG1Mw0rkoesAoNdsEvNHDDh/wBphZW2ntb3mVeDv8oZE+6gSbitQ2SesL2w0h+6J5zPJ7b0EN46UYSbKaYyVIStGhQBGIBr9tBE8yZyTSEPI32HODsZEWUnUMK3yIwoyJQl0VKtTWmI2nTpQ/7HNd2YQcAGJQpz3gYkOIlrqZeVVpTGsbkARA0acEwwok95JwQY9VjXK6G0cPKx3F9EgMKODFgVBsJAyonnFgCACBknkIgb1uSTt2hqmHXQp5YKGkDYlR2/ON9/AguyYel23gpshLhBwrHSBesUnsXFGXR8doB7emb+pknMXLNIL0q8rtOx2ylPrDOterM3FQkT7TeCcpWknkRzjai6Vb2Thx/ECX5ZSVnSrQoc4k6DcU3TnQy+VKa8SYm6pSG1IU611645mBuck3G2iHUdeXWHJ01ZUW/kYpyZx8jHpFTlKihKmXAVafGIS43HFVRhvVjC4DJJ+Zpr+uWWrTjYZjsl60Zupt+0gpKSNyY8/f6XOqTcUderKjJeRyUWsvsyyUOE4wILKdUWJllOVjVC5k30OywUlQVsOUdkpMOM95KyMdI87atS0Px7QyU4IyDtF084GqLXG1pDThwfEwQsupUnUkgjxgOLRZtjFR7pjBT7ac6lJHxMcz1Rk0JUVPoGPOJGEmymxf3gnF7SivMflDGk8GWQfKFXelZkRdcs52qSBjkfKCpm+KQzKIBWSoDkBDttE3WugItbDDOYrH+4wBv39LrJDDS1eG0cn12qayQ3KK9BGH00wtoY+MDJJPlFhgjOMQvUXFcTw+zlFb8thGaJ66Hk4MupPpFPHeuyckF9dcSilv5WPd8YCOGzjf0hNOFaQNR3+ZjRXJa41011SyoAjcQqahc67XpMzNTE32atRGkHfmYaqqhGp7ZR6dM3Kgbvo9Y0uVWRb2VMN+sebeGt7M3Y52LtScZcKsJ1KIyIbDFkPvsh01JSkq5YUf5xjGul/wCROwwcuKlt5Bmm9vOOZd3UdJOX0n5xBN8Pk6RrnFE9ckxubsKXTze1esThT+yaZIG9qMCodvnHnEJdl60d2jPNocUVKTgRKM2PTkHJAVmOS5rUpjNGeUGEkpTkHEHUqVLyTshrSveRl6akAqO8S67/AGN9CFneMbJt+luU5JMsg7+A8YKW7epIz/ZEegi75VKZWmwQcv1R9xpcaTfU8ThuXcV8oOE0KmDlKt/uiM00anjlLN/uiM/dq/ROD/YCfXSrK9yTc9DF/rXcSk5bkV+Wxg/TTJJI7su3+6IumQlkk/ZJ9ItXVL/EiTTFtP1+6ZiUUkSC8EHoYEbSq1xSdTclWJZRJJ23h8LlWuxUlLaeXhCzpzSJS/exwMKJhnHyIOLXEp7Vm14MzMXg6M+zuJz13jEtXivYlwfMwz0pSdsDbyjPQPAekLPK7/Etx22Kr6Ou1fvOOD5mMkUS51nd9wfOGn2Y8B6RRR4AekV9V/8AUNfaLEWzcCx351afLMBi6BU5S6tKp1aFOYGc/GPQBSOeOULXiEyqVrUrM4GCschG+Nlbb2gJJ8lJMqWsapKZSV1NZzz3joRYUzjKqiv1g4pjiXpBtQ5YEdOnugQrLIkpsjTlLbYBfUHOypgxccPms7vmD1KVDqIy0nERZVhfGS/yAVuwZVPNwn5Rm7Y1P7FQWkL26iDbEYvIy0oeIiRyp7JxTFNaFv0z6bmZVbKSUnbI+MHDNo0gJyqVRn/jAmjNPvkJycLO+8M5vBQCOog7rpvstRRCt2zR0D/okH5RtTb1JH+Cb9Il4rHnC/vSfyXpCKuWuyNvUczk2VJZZUElTYznMA7l33dVUrqlCpuuQbOpKlEgrT8MQZ3vSWq5a89JFCd0FSEgdQDiFvZF/Ip1sO0RdJmXZqSHYENEAHG3KPZHlOKGFZNxy9zUkzQb9nfbyh1B2weXWAyVULZ4uqbSCmUqgzqA27Qn+QiS4f2/UXKHUHZ1K5N6eWFJCTpwN/D4wTyFuSTUvJCbPtMxKYKFqOSCPHMWTSSIPihb87WG5KfpgSJqXeSSoHcp1DP4QK3paRmb7p028y4pM2kIecbTnBJ6w4093kOnKMFNNkDUgHHIkbiIByIa2bao9BZKadL9m4v9atQwpXhEylSlD7RCx4bRn97UdzjG8WGwA1KOPExS2TkUnJB0nB841v5Euo+UbFbnMW05GlWMRZIPT2Rll1STpdXedmzhQOUk/GCmcvOoTKi1TJVSydgrBgCuGjuOTPtMuDlO+OkGtlV6my7DctNtIbdTjvYAjm5tDl96Wzt4du15MG6XdVSVqmHXG878/wCkC1zW4/KVlkzk0okkczDjcrkghoKQ6hWeWDCv4lzjkzOtPp90KGMRz6Jyi+0P9NeSRTbsiJZCzMklScxwv0JgnCCTHdSnS9TmV7nuR09/omMbciSm0kFGCB82ywTkk5jE2tLeMEWog7iK1Dqr8YBXTfwEkkD31XlAgJEQd022xLoDwGQkZ5Qdl1sDTqGIjrhSw/S30FQKtG28MUXW/ozkl+yDoNAlZqnh8HcDEdabWlwMnrGizJ1pAXKLeAAPjBOX5cDBeSccsGLudsvCChxRBJteViMumkStMozsyQNIHOC4zcsgEqcHrC641V1s299HSjmX3j3QD8YUyp2V1c5BQcW+iM/R4oJmriqFVmGspBJbJHmY7eNFXMxV0SyF5Qk4Vg+cHHDCQbonD5E06NC1NkrPyhL16YXUq1MBRKsvd2PkGfc8jKlNncw467GFwWoIW6udcRnbukjzhuFOBjED1gyjFGtmWfmHkNpUkZ1fCJlVZpBc/wDkGB5Zjy3qFVlkto0lckzaUAdI5plCZdp17wST+ESDLjMyjU0QpPiDELec0JKlrUgjUsad4Qoqkp7YXugXQWHKxcrs26MtoV1iZ4iTCKbQFkHBWnSI7uHkilNNU4tBBcOSYC+OVQCpdEi2rCmzqI8o6uHVK29JBRsSEbdMy69MNSCN1POjPwj0Fw+t6TptBl21yySVoCjt5R5xk1rqN9NLAKmWjnbxzHoCSupDMg02PeQkCPun8f8ATLY0RaicP1DNXJxDFEhI4z7M384zEnIj/CtwGru1YzoG0avrg7nkPSPRSwcpvpHOWRHiHQlpAf4Jv8YyS1Twd5Bo+sBCbwJ5/lGxF3AncfhF/R5K+CvqqzvviXkzKpcbl0IwRsPjElbAknqM0VyreQBvArXbjl5ynltIBUPKM7VuSUlpHsn9WR0zGksXI4Poiyq2HBlpD/SNxgqUkeks2IhE3VTTyP4xmi5qeeShCLxb0aK6DJUyMiecuiMfo+RC8hlEcIuCnK/vB6xmit09ePtE+W8ZunIXkvnF+DmuOnMKpjhQ0iOGzJSXelilTKDiJicnZOYlFNh5GkiIOzZlph9bReTpyecbavUSLT+Qi+jJI85dG0ZClyBH/TNxvS8zqVhxO/KK1IP3vxhNu2L8BJI5foeQ3Jl24w+iJHf+zojvSQRgRkBgQPvWr4DUEyKNEkVZ/syflCi4n09iWu2ndmgAdoIeKeShvkwneJ6VLvCnpVv9oIXzrZzxZKQVOlMc8wgfUtBA/uY5eHiQaarb7xiTnEabLCccmf4RxcOk5pijj7x/OPhWdUvclo7MZ6QQlDaBuoBPUmOVdQpjJ0qnGQrwKhAZxsul22qOlDA+0mNm/Ik4hZ0m1KhXaJ9KTlwqZnF95LYcUB6ReH6M7YbkC7meh2FNPp1suJWnyMRN3oQKM7nniAzgu1XGX35OpPqdab2QrfeDm8k4o60aenOE5+nSqs0gvcbiabZaT9XcY+6qELUJFL3FSYbJKdTh3j0LbKQLfGB90wjZ9WjiwtCk7qd5/OPX/wAVi68gVyNuPYcJtZCWkntT3gIt9VEgY7dUEoVhCQeiRjeLqKc7mPrnvS60jm8VoGDao/1CosLU2wJtcFGpPiIunSRsPxg1dLa6B4oWFzUNctMJb9qUSo4BiakrYm1SzbgnFjbxjK4il2tttKH3tt4LKeNMm2nUNhDl10tLonFAqq253TlM4vn4xZNBqKeU256wZFIzjUIrCfEQj70t+CcUBqqLVU7pmlkfGMfomrp5Pr384NCkEcs/CLDJ2KeURZL3rROKF1XZKqsSqg48sgjfeL29K1v2FvsHVBOehgivhWJZCUjGrnHZarSkUpGnpvvD7vXDwTiiD7G4U/3i/WKQbjSrZa/WDPu+MY467Qr7/wDovQJe13Oycp1+sZi47kZSS6HAB4GCoqTjfEalNyywQsJ38YHmn8E0QC77nESK0Ppc3GMmMeHl2Mys/MOu/wB4vOTHVc0pJClLwhvPiBEBbFDYm2FqCtO/Qw8lB1+Cuhy0265CaSCHkgk+MTspPS7+Ch1JyPGEM9QpyTcJl5lYHTJMdMlX6tRyFPPpKU+IhOWJzX2Ivko+R21VlExT3ULwRgwkpRkStbmGkK7uswSDiZKzFMVLtnMwRgwOUVp16YcmpjOpZztHR9Nosp3yObl2JromcElXe093Y+EKe77UuG7a5MTc4vQzJkKlWQdl438PEQ2iRyx0xGOkfPx6x01HRxYrQpZq760u30283bb/ALUtvsVuFCtIV8YNuHdGVb9vNy82Qp1epxek5Cc7xPTkuhyUebQlKHFjZeN8wvLtVcFv2uKPKKdmpyddIS7nOhJV5+RiwjkvC9K3NXD9FWmx7U3JH7cgnGQeW2YmLdual3EyqRnB7NVh3VNqGM+sdti27K2hbRdnFpE2sa5l1XMnrAJLpZuniOuvS6UydNkAAXUdztDuDuOcSLlDtFNbDaq0lyWOUp1JEQkzLAq140qhkSxlqlIJcYIcbI2OeYiJqVFbcaUtgfAecP0ZUZ9TKjY4kFbtwv05wNTBKk+cHtNqcrPthbTiQfDMLycpjzQPaI/CI9p6dkdRlnFJ+MI53pML3uo6lGa/DGhUa1KyX3hrHhHKxfdSH2co2tXrAlbQl6g9mfeUV58YPJSRk2GwpptJHiBHAuxXjPUkdaFqkjBh65qwch1TYV5/0jvlrOq8yr+1TywCPERuknnGFhTS9IHSCakVlDrakPqGw5wn9Qm+MS/IrqvarSLvlpV18uZxk/KGRIWXTWUJC2kqAHUQLKcTO3yhaTqCDsYabY7g36Qd900kiRiRbFvUpsYRKt+kdCaRIJ92WQPlHdpGIty2VCTtmFo0tyrDY7raRjyjZgJICQAIyIGN45qhPS0hKqfmnEtISM5UYB2PW2Wkgc4o1qXodrTMy7g904EePX5CYuFx6rT0wVSBePcz/uhlce72m7vUu37e+0QFHWpIzkQnbcnqra80KNXEn2Z1ecLHiY4vqGfL22q2O0QT/IN6lTKRLUhh+2laJxtP3BiGp+j7xGnZ+YNAq2tb6BgE7/8AnKFzUpq3aDRPbpJ5LsxMDKEZzg/CGX+jrZ60lVzz7OHnvcwMDHw+cKej232P7mXdXFeB7IOUAxeLJAAMWj0v4iPhmWBiIm6kg0aZHXREt0zEZcwzSJj/AIRpX+RRDcPVapNSfAwWI6/GA3h4rCXUjoqDJOxgr/yLM4qKiozLKjHrGUY9YEplvumFfVwWuJDJ5c/4Q0RyhX3d9ne7Dg2OcfiIZxPkjGaycoTjrG2OWnnMsg9CBHVGDWmyIqKioqIWYE4JPlATxQYLsi08lPuKzmDYjeIS8JVMxRnkkbAZEaUP7in4NdjPl+hNE7kJET43AgS4bOH6JSysjIG8Fo2SYG1fcVEzHKKihyioEIsIsrpFx1iysYxEILPiA17FckvOJ2BI3g/oz3tFPbdz7yRAlxTlSuQRMY9xQx6xOWNMJft6WIIJ0DMby7r2CT8VGJPdzFxyhfWi0J4gLKjjnAjQ7TNNvCdn0obVLTA1qBx7xO8GEVjrHtjyGzFGUDJ3V91OOQjLBG50788GK3znO/jFts5ikibLxUVFQQJUVFRUTRChFgD1MXitvCKIUE7EHfMQtekEvsqU39modRE1k9I1zDYdbUk75i4632FGcovpi5RUqtIuqbS+taeQ3i1SrNSm2UtqBJBifqVFc7QrbT16RH/RcwlR7hhyGPRNdoahmTSLSFzz8rKpZA5CM1XdU+gjBFKeVklvr4Rm3R3yfc/CBfp+NvbC+umalXPVl5O+8alV6rq++fWO9NBmSM4MbUUCZ8ItYmKgXmTIdNWqyxkuKHzjFU9UXAQp0kdRmCBugu7gjaN6aAnTuIuNWNH4BeXYwLlkzbbynEOEKPnHRrqDnvTCxv0MFzdvs/ejpaoTCNxg/GLbxl8FPLnoBXETuhSlTLmAIEqbLTVe4jSMoFrdZbUNefjDXuaSlpChTD+oZCTAn+jZTHqpdlQqDqSUtu90nwwI8l/K8mmnElxXk6npspTl2N6/EN0mw/Zm1aToGAPlCTs6S+k7naYKMhS85+cMzjtVRLpakQr3hy+UDvAen+2VNU0sElo7Zj4itcHL9s9nW1Cs1/pB1OZpdGl6XJvKbIAB0nyhdW+mhLS0mdqc8h1RHeUg4/OHxxApVs1S5GZaqPNpeURgLPlGq+bCtZFoqeSyy0W2iUuJGMnfHSN64w4aaEpdy2TvDuQlJOhtmUnlzaFjYnpEVerjs3WmaYnfcEj5xA/o3TUyqiVBh5xS2WFq7NRPMZEEFBzU7odnCNfZq05McfIwVCTkjZTSWwvlECn0hICAOyRvHnDjFXO2r8042e6UaR8cYj0hcjgYoswVK5o9Y8dcS55yYqnszScOF7fHPGY6f8awvey0DbPjXzO/hRSypCpx9GVKPMwyWKUtSFOJRkGIiwKaW5FhCfvAEiGdJy6G2Aggco/R+C1i0RikeFzb3bY2gNFHfKfci30K/wDsQdBtGPdEVoT+yIajmyT8CvOetbAL6LdH91GH0e8Du1+EH3ZI/YHpFiy0Qe4n0gnm7+ClJ/sXq5Fbe/Yk58ox9nIT+pOfhDEMqwpJ7ifSOc09hSj3U+kWsxNaaI5P4YA+znqgiLezKzskwemly5+6Ix+iZc9AIivp/wCJI2TXyASpdWOahGCpdeNniPnB2qiS6o0roEuSdotWY78o096fwwL7GYCP+pV6xql2plhztG3lesGqrfZMaDQCBgDaI3jv4Cjk2L5BwVGpJOUuK2842t1qqpPvk/OJs0BzkmNKqDMhWwjP2caXlB/VzOJFzVVrmCY3ou6oJHeSYpdHmUkgiOdymvpB7hMT6DGkGs6aO1F5TQBUpMBVz1NypXZT1kf3giddZ0goWgA/CByqKS1ctPAQP1g6RxvXMCqvDnJDWJmuViiekqij/wCjMn/J/hEdw2Rmlrz+0fzjuqTo+pu5/uv4Rx8Nf/ilEH7x/OPzvfVFzlL/AGerg2uhPfpeqebVT0y5XrKkhI/7o5rZ4XVisWO3VhU3mpzs9SEA4wYPf0ibPna7Sm6hIpK3pchQA57HMCFu8V5ijWgqizFPe+kmUaGxgd48vGOrjWRVXFAE5+j5Wp6Yn52hVE/ayxwFnrjMM68QRRFBXvDaFt+j7Qaiiozdw1JpSDMqJAUOWcwzr1GKK6cZ22McrJgufTNIy0VbCP8A2BJ/2mPOXEScfk+Jhdl+Yc/jHoq1XSqgaR+yY83X+2+5xQU3g7u8vnHpf4fXCeUlITz7JKG0FablqqmOucDEYfWGsE5JMbmqZMdj7p5CLmmTJGdBj71VhYultHlZ5s10aPrDVx1MbPrJVwABmNhpkzp90xX0ZMhHumClgYzfRn9dYQ7tTqjlS9oKSSg5GYlm7rq6G9OkbecZGmTOM6Tvzi30Y/8A5f4QbxMZrWg4509GSLtq53KU+sZfW2rfsp9Y1Gmv42a/CNRkJgH9X+EZ/wBOxmT+oTR1i7qmB3gIoXdUc8jHKJB//K/CK9gf/wAr8In9LxWy1nzZoq9enZ4AFJJEdVPuefl5YMhJ2EajIvJJ+yOfhFhJPZP2R9I1+gxmtE+vmdhu2qdEj1jWu7KusFOkb+Bjn9jd/wAk+kV7K8kZ7I5+EAvTcVA/XzMvrBVj1MYivVkqGD6mLpl31f3avSMxJzH7Cov+n4pTz5nLO1msTTCmyB6xel1erSUrhOkZPjHazTJhZOEEZ8o62KA84MqGwiTxsaMdaIs2xke5cFac5kb+ccc69U59QQpJ88QXytBbSn7QDaO6XprDJ91PpGKVFf4ojyptdgza9DDL4edRnxg1bQhtOEiLJQ2gYQAPhF8DwhecuT6MZTkysHOYviKEXgUAW7o76hkJ3jUplO3cS4VHKSr7sboqIVsCuJ9PrVUlGKZT16Jd5YRNOZxhJzkwu5ppiuVViwqC+W5ZjCn32/vnrv8AEQ5LpkJuqUR6QkZr2d54adeSNvlAMuwJ2jIZqNtrQieYyXsgntTA9hxZom5aq2DUKehqoqfknnUtBBUOROIZ7TzbvZLT3c94j4wlLtlLsRLG4bjW0lqW7zMuEkEHmCfOIaVuas/R6qp9ITSZkAKQwVnSRnwgkloJpM9BTEs0+khSRA5U6IoBS20ZAjqsquIq9sSs/Nn2aYdAylzrvjaJ8kqQVJ9zkTGtV8q30DxcRZvSzss6VtkpUDyiat26nZdXs80DjHMxPVOltzAy2lIUeuIEqpSHmnDlvbxxDFldWUvu8jFWY4PsY0hOsTjQWyvn0jpecUhhagcHTCoplUnaTNAIUpaM75g0RcctNUtay4A4BgjMebyPSXTY5x7R2ce+NiN1jTwNyrU6c4P8TDkkptmYHdUPhCNshsLnHpg8idj84N5CoPS6wpCyRHLyRtNDFHPaLKOEY5mIqkVZuZRhxQScRnXKzJ0enuzk68lttCSQSecKctLbD0Xr1YkaPIrmpxwICE6jmPPd73TWr9q6qfR1qRJJOCpJjhuyvXDxJuFUhSy4inhegqTyIhh27btPtOjhZ0pWEZcPnHi/XPXYwXtVPbHaMbb2wXty1pG2JEuTJSp/GVLV1hM8ca5ITk5oYaSpwHAKRBlxIvSaq9RNLpGXBrx3Yq3OFn0ghE9WBhROoBUedxMqyr+7kPr9HUdMZR1EWfDa16tOVeUqdSDi5FtQOlXLEe5rFnaXMUNhqnKSlLaAkpHQ4hXylFk5CQTJMtJ0BOOUcclOTlpz/bSaluS6jlaQdhHc9L/kVM7Na0KX4UlHex+pwBjOYuIG7QumQr0qjsnUh0jdOYI8hI3Ow6x7Sm2Ny5I48oST7Mk+7EfXxqpj48UQvuLnFKRtCW7KWcS7NK5oB5REcOuK0ldkg7KTLqW5jHJR3jauyHPWyNNBfw5XmamEeCoORzgA4dPJVVZpKSNOdiIPk8to1v6kVHs2RUYb+MXGfERkgi46xXWLbxYE+MU2QuOULDiD9ncku5/uH5wzt4W3ExAFSZXn76d/nDOIvu0CH1GVqpzKvFIjuiOoJzSJcj9gR3ZMYz6ky0ZxUYA+MXyPGA5Iso4zHDWWy5IOpA+7HaSNo1vDU0sHqIuttSI1sA7AmFN1aYlc+4rGIYB8IV9HdVI33MoOyVubfhDNQrUAR1Eb3Ra7AXRuisxhkRbWkDOYx0wtme0WViNZfaHNYEalzcqkZU+gfOJxb+CELfbPb0B5HhvETwrmCqnKYJ/VnTE5XpuReprqS+2e6esBHDyryUpPzrTkwhI7XYZ8odrg3W1oDloaY9z5xccogHLmpiEk+0o9Y5nbzpaFY7ZJ+cL+zJ/AWwIiosM9RF8DHKPYHkuDKioxi45RCuDLxUW+cVmK0yuDLxUWzFA7chF6JwZeKivkIthX+2IVwZcc4sD3orveKYt80xTJwZktII5ZjUhtGd0j0jak4O+PlFZERSaL4s19k2OSR6RSUoB92MtoraC22i1FlECKTtFxiK7sD2XxZQ1dRFwc7DnFtoraL0TiUNQ5iLp3UBy3isjzjFXKBUWU4i/4z1ESluOIQrvKUAB47wTfo3SBkbTFRUnSp8AnML7is4ifrMtTueVjb5w47abao9hsIHdKGhHzn+bZvHVX7PUej0bWxU8Y6mZ64ve1BpWNvSGVwLp/stMW9owXACCR5QmZkqqlyTDa9wXcj1j0bZjTcnbsohI5NiPnF0vagkelsj9ugX4uWK/cITUac6pucaORpOIAXLX4qVWXFLnHB7CCEk6xnEP4OK1FSTG3tFaSIwjmNCTi9gVa9ttWfZ6pds/aKR3z4mOjhnJ6GJlxY7yl5yfnHde8x2dMwT0jqtlIZpra0/eEVbb7iDUW+iA4x1MU23FOBYB5EZjyXI9rWb97VQy0DmHr+knVgJJUog5WMkj1hS8K5MzMwubWnfOI+gfwnAUrFNnN9RuddbiOWzKeltKV9OkFBB1nHIRF2432VPCTEoCBH1mzp6R457bLp3EXiwwRzi/zjNbRXFlYisDEYjBz3ouEnnq2i+ycWVgCKJx7sV3fGK26GJ2TiyhqPSL4xFvnFfOJtk4svnyitXlFvnFsnkMRO2Tiy+fIRW/hFDI/Zi+dt1GJpk4MsNzyi2QFYP5RcFOfezF8iL0y1FowUhBVsIx9nbUpQKRyjYnAMWAACt4tOSL4gbcbSUzZKRgAQDVrSLlp6j/mCD66dXaE8xiF7cRArtPJH94Iy9af/wAbP/sNYEf76PRNXeT9Twc/3Ua+GrqPoRRH7R/OOOor7SziOnZfwjDhi4foVTf+4/nH5vuf5f8Ac92oeA2cU2sELGtJ6ERGOUGgre7Z2lsFZOdWkR0pWR1iiokwtXY4/JXA6WBLysuGWG0pRnYARF3q8lNFdB3GmOwHAiDvN3FEcJ6CKTcpbLVZttN0mh93bZUIi4cr4vhLmD9p/GHTaswDRh8DCYrxB4spJ/zP4x63+Iy/930Jeow1UNVppvs8FI90Rfs0Ae6IyQB2QwPuiMtsc4+4xk9HiJdSZgW0afcEV2aNHuiMsGKyOUXtlcv9GIbRgdwRXZt790ekZYBydWfKLpzjkqK2ybZh2bf7A9IwLLR+4PSNw1DxMWOr9kxOTRNNmoS7WPcHpF/Z2v2R6RsGdJzkRbUkJ3Ji+cv2TjI19g1jHZp9IuGGv8sekZpWgjCc5iu0SToycxXKROEjD2dr/LEV7O1/lpjPUk/eMUPIkxOciuMjAS7X+WmKMu1j3BG3/tMWP/ExfN/snGX6NaGm0nZIjaBjkIxwP9wi6QAPfPziNtl9ovgdYxwM4zFA784v3fCB1orbLpCUiKjHbxjLaLIV1i8VjrFRCmVFRUVEKMVgaSCkqPQZxvFKSlQSVg5HQGLmKBitF7IW8qN9YKE9IOrCHFDKFAc+cB9st16mOiRrlHk1U5tGgP5TnA+XlDJwe0weRjnn5Zioyq5OYTlB6GJ4DTFQin1C/K25MSz65CkyuRLaBpBI3H4wV27XZWiyn0VWag27NpcIBCgRjzIiYqEo1RrUmmaU12SGmVqShIx3sEiEtaNuVyrSM1PhiTm3ZhxRWHQSUREthPsf8rMSs5LJelnErQeRSciLvy7bqcLTnxgP4T0etW/QXGa660kIUVIBJwkZJguk56WnEqXLvtvJ1blBziJzafQHEgatQu6pbAGDArPyTzOoNlSfGGfjKy2ncYzHBUKY1MtFejBIhurJTXCRIXTg+gTs+tmnP9i/7pPMww5ebl5ppKmFjvDoYXdYorjStSE8o4JatTNEcLrrn2KeYJjm+oem1uPuJnZxsnk0hqztSapDBfdeCQBnJMLCvVet8TKsmlya3ESSVYUU7DAMQrtYqvEWsClU5CkSwI1KHKHrZ1s020aKMBLbunK1mPlv8g9V9jdNR3q4cls57RtmnWlRUs5QlaE5UtR/jCu4qXjOVmomiUAqVnurKd4ri3fk3U6iaBQFlxSjoUUGCfhLYjUhJpqtQTmZWMnMfPLa40S+ose2dGvpETws4dMyDH0hUUlUyob6vGGI4yhCQkp7qRgACJjSSfc0p6RofZCo87l592RPb8DlbIF5onJwPL4RxOsoUhTZRqSrnkROvMBJjjdaGYGFjX3QfgZhqXTBFyTnKLUUzlLcUGzuQDE1XeLjFMtZ5L4KZoJxlQxvHQ62SSkDCephNca6SqtD2OlnU9ncCPeegev2Je1Yc/KxYvtHOqUdr3/1RVHS826rYZzgExjcNOkabKM1G33FImU95SUHnAzQpqv2ohFGrSVmSJA35CCytOU2UprLlKeS9MTIw2lB3BjrO++3KTrfQs64xj2H/wCjhevtdQekZ4/bdc849Ce1MoAy4nBG28eReEdsV5mpTFSKFNvYKjkb4iUqnGiWlqs9TXXJrtZVwtOLSRhJEfQ8fHdtcWzk3S0+j1IKhJ/57f7wivpGS5e0N/vCFBZ8u5dNKRUKRU2n5ZW6ilWSD5/OJsWjVgVlTxyTgFJ5wUqIxetmcZ7GH9JSOM+0tY8dQjFdUkE85lr94QBCypzAC5pYb6jPWM2rHecT35pzI55PKK9mv/JhbDY1unDb2pr98QvuJlWp7pbWh1CiFp5HziQTYEucEzSznmrMDN+2YzISragtakqWnKvnDONClT8lcg6ot0U5ijy6FuJ9wdY2uXnSkZwuIS2rKpb9LaWt1bncESgselBONBUc745xlYqOb+S0yxv2mpOAlR+RjU5xCkUjIZc/cMdrVl0lI2Z5nmRuI2i3aSzLl32YOJQDsRAf2P0XshH+IbASNEs7z/YMaHL6ccJSiWe3H+WY2/Ttmy9PmJh/sUqYXocaONWrGcQTyMrTnpZibTLNjtUhSCodCNonKuPhA8hL1quTibhbnG2nElasjKSOsF0tc1xOMpU0wvkMd2OriPT2GJiTmOwSMEZ0jbnBlbyJaZpbLoaGyR0hiy6DguiwI+lbve2Q2R8otpvd488A+YhmBlockCMgAPuwr76/RYsfoi7nf1jxHzEUm168tQ7WZXjPQw0NPlFjFfUf6LQtHLMqK2nCuaXjHLMB9AtgG6nZZyYWk6vGHw4nKT8DCxfR7LxBbzsFrz+MMVZDcWgJLsmWbBk9HffWfmY6k2HTOWVH5wWNkadQ5FIjYNhCjvmn0GkefZCrVCbGpqWWof8AGO4TFS0HMqv0hvU6h0+SZ0tS6PSOsSUqRky6M/COp/Vn+jnfQREmZipD/DOfuxj7XUgQBKuEn/bDvEjKnnLo9IsZGVSkkS6M9Nor+rv9E+hiJD26pZI9jc2592OeZrczKt63pdSU+JTDydkpFtoqW0gbZJhZ3QE16tilSDKS0g4WoDrDNPqfPyivoIgxLV+YfRqallqT4hJjemtvhPeknCfgYbNv25JSNMRLql0KUBuSIkfoem4/6Rs/KM5+rRT1on0MRKfTzg/wLvoYv9OO/wCic9DDpNEpx5SjY+UW+g6d/pm/SKXq0NeC/oICXFcczgybnoYua0oEgyjgwMnYw5VUGmkEeyt+kCV/pptMkewZYR27ndGBvB1+pqctaBeDFC/Zudl5aktMqKknB2MdSa24Rn2dXpBjYFoSokPaZthJU5vuIK1W1SwnAl0+kFP1KEZaIsGLFJ9Nr/yFekWNcUP7hXpDbTbNMI3l0ekWNr0s/wCHR6QH9UhsF4EdinTXMpz2KvSL/Te2exPpDU+qdJOrMun0jWq06UltRLKcfCLXqcCvoIiscr0u0AXO7nlGxNZbVghJwfKN1SoknULwEiw39mk74EMGUsikNy6UrbBVjwjW3PjDRF6cmLv6YaHNP4RonK2jsVaAdXTaGebJpB/uh6RqfsiihlRW2PSMv6pBBf01HlucmlVHiRKgd4BYzDrvuZTIWYoJVpUlPL5QrqPT5RfFqYQwMpZcP5mC7i7OH2Ey5XgKTsI+UfyrMjlZa/0eo9LxlCAvrTKpm6WRjOtW8ek6WEtSDTP7KcQg+ErCZitpc057M84fHafs8o8vmT+7/Q9PfLR2ajyBja28QO915RwIWcZzG1LuoYI5ERz4yTZlKtApxEnVGYalEnvE7iCSlLUxQmirZQTALcqva73Yb17AjP4wVVSYVK0FwhWyUHHpDKi20kDXHs8+8eqqHLjJLgKVHSRn4xjw2AYkklKPeVnl5wI38pNYuI98kodyRHpHg5Y9Om7bYm3Ufd8I+v8A8U44tHORxvU61Y9HJJVRlpoJwfSN30s2eSD6QxvqNSc57MekZIsikj7g9I9VL1WtvZx4+noWprABx2Z9It9Nf/pH0hnJsulD+6HpG1NpUtP9wk/KB/qkAv6ehUfTixnTLKOPKNT9wutsqUqWWlIHMphxItqloSdMsjPwgT4jy8nJ08SrLCAp0adhEr9SUnrRf0EQFkq9MTaCuXl1rSOoTHR7fUf9G5+7DNsOhScvRUFcsjUoZ3EEQkJXH/Ttn5RnZ6rxeki/oIiR9uqX+jc/di3t9R/0bn7sO/2CU/0zfpFewSnL2ZvHwgP6s/0X9BARxqU+P8I5+6YpNZmGz9pIu/HBh4/Rskf8M36RpepcgUKJlW/SLj6q9+CfQREi9c6GlhtcqsKPIbxtbrzi+Uqv92JyrSEtPX2xKstI7MEasD4wwmLcpwbAMsjl4QxZ6jGKTBWDEUn01jmwoH/jFxXB/lK9IbK7Ypitywj0jUq0qUr+4QPlGa9Uj8lP09PwK1NbQTu2R8oyFZa1e6fSGWqzKSebI9I0rsekKJ7mPlF/1OAP9OE/cdQYdaOnnjwhbXA+lyuSGP8AMEP69bLpkpJuvJHJB6Qha5JobrcqUHYO7ZjP1j1FS9Pkl+hjCw1G3f6HjPuK+qmE/wCV/CNXDV4inKA56j+cc9SeV9VikH+639I1cNllFNUSd9R/OPz/AG2dyTPWxh4YdKdUeUUl1QEcfbHxiu0PiY5zkH7aO4PHrEJejgNCeGem0dvbHxiGvBwmiubxtVInt/o12oo/QoGdwDCiuF9tnik2tasDX/GGlazhFKIz0MLZ2ks1bi5LsvZ0lz+Mep/itvDK2J59LlWMVNXluyBSvOwHKMTWW8bJz8oPJbh7RkMt5G+PAR2M2TR2zs0D8o+zR9Tr4nll6euW2LJVcUOTKj8EmNSqxOODKZReMc9MN9i16Y2NpdHzEbJ2kyTVOc0yzYIQekD/AFNb6L+hiJqn1KbnXC2w0oqBwduUSzUlW3RgIV+7E9w9lmVVWZBaSdLhx6wxUS7YGzSRFX+pSg9RDhhQ0KFNAuB3ISSn5RtRa1yH78NwNpH3BiMgkY2Ahd+qWfo0WHWhSC0biWk5XFfUuvEbuw2wN9xF8DfaA/qduy/pYCFuSj1mkPMIU9jWcDbziZk7Orj8uh/tTlQBia4mqKqnJoAGA4Pzg9pIIp7Ix9wflGs/ULFFMv6WArfqTXhuHDFGzriSMhcN3HwisHGdoy/qdpPpICfNqXIPvxibZuJG5V+EOEDPMRSkJ6gRf9Ts+SvpIaEw5Sa6xkLSVfKIuoTc/IqAfaVvy2h7KYZUd2wYBr/ZZbfZIZTjrtG9HqTk9MzeHAAU1SebRrMospPI4jNuuLUO/LrT/wBsNyhU6SepjalyzZyPCMn7bpj2cyyBnwEaP1RctNAP0+MkKhFXYUO/3T8I3M1GVX7rwg+mLEo7xJKMZ8oiJnhrT059mWoH4CNYepVvyYS9N14IJqYaWO6sGNiVahtiM5qwKuySZV9Qxy3gfrchcFFIU8VKT1hqrKrsekxaWDNE7nbO0UTiB+TqU2pgO+yLWnyBjpbrCScOsqb+Ijd2QT1sxeJNEvFhvHIzUJRY2fTnwzHSh1Lg2UCIvt9oxdUo+TLPe36CKBGlRI73SKGAMAxQURzETsHaRi62l1pxC8FK9iMcxANUbElpKeVWaZMTDakK7Qy6XFaVnwxnEHkV8wPOLW0WmxRXAm8KvR5mbn5g02UZQpKU8yrY43EYW9cYtPh5TZdDiXqhPJGlCjuSRzyeXKGRd9IXXaGqmoXpGQoAdcQkanSEU6enkXBIOuvMoKZBSU5Cd9v4xN7NF35H1SnnX5CXeeAQ8pAKwDkbiOtOQNKjnAgW4WuVJ60GhUklKiTo1c8A7QTKKmmgs/d5kwCnFgbTekaqgGEya3HSAkDmYS1ypmrouYUWkJUtBXhak7DGYnuJF1uzNRbodEJccdOF6ekMbhVaMvQKQifn20qminKlKG+Y8b/IP5H9NB1RfbO36fgOUuUiX4Z2dTbQoqXVJT2gTlxZ6GALjJfc1NTZoVEJdKzp1Ijbxj4idi19B0ZeqYcOk6DHdwYsMNyya1VUF2ZVvhY8Y+X23KTdk/LPSQjxWiuD/DtEiy3Vaq0VzLh1HXvDWDaG0BKUaUDliIe96+m1aUubbk1PaU50IGYWr3HNqVQpUzRZlDeNyWzHDvxL8ptrwac9DfWjC9JPTbaNDycQK8OL8ZvGVW5KsLQhO+VCDJQJTkpjzuRjyx58ZDNdhHOtat8GOGYbSgEq5RMrQffSNxAZeVaU2r2GQGt1exx0jOmDlL/Rspt+CIvKtmUb9kksLdXttEVblDUy59Iz361XewrlBBb1toZT7XO5ddc73e6QEcab3TRpE02mKBmzsAk7x6P0+qV8lCpF+4or7gT4+3RS5SnKkkIbcmF7ApAyDGr9FOy6pWp5NTqqHVS7a9bWvOB8jGvhjwauC9KqxWbgU52WoL0rG3PMevrUt6n25SUSUjLob0JwSBzj6t6RgqiHaONkWqQB0xlLFxTiUICUoZUnAG3umE1Yl22RQK/eTFzIZW87OL7IKlteRt1wcQ6ZXULrn0oXpy2vI+RhC25W7Fot4XMxeFsv1B1c4sNqLJV4ecewrcY1tHNn4Yxv0fZp6mWBXK9JICJftXXGmyc7BSiNukMXhXxDkLltaWnp+elWZtwDLZcSDn4QpOD8tUhZt1Tzcs9L0iYbX7KwU40jvdPSFLQ5ezmbaSiTlasbmH6rQ0NOvpGE4Qk22zCO0eqbv4hP0XiZJUFSUGQfa7RS9v2Sr+EBtS4p3/cNWe+oNuiekZZelTilpSF9esC1VpFbqt60CVnXHTOPyQSdfIYa2ESfD/iKxwvpjtt3PQZtlTK8Nrl2ie0A67xl9kUvk1cmMZ7iJVKBYjlZu6lCRndwhhJCypW3hCkvO/uKs3IIqU3bHZUpSgtC9Sc6c88c4N+J81MX9ZEjcdvUye1SLpeSy61jtBgCBe9ONlKqdqpoyabUGqsUBHZKawnI2xGuNKLs/Ep70HEjxMQngyq46WEl+Va0rSRyUMZH4xnV+KVQeRTKbbksmarE2ELeSMFKE7Z35cjCzkrfqNO/R1rEzPt+yuTpW9g7EatMY2PJV7hZU5eqzEu5VqRPoRqeIyWcgDp8YOVEJOTQMZyG9Zl/z0xdtbpNbLTLdOQcuEgbggYiOleMLFYer30OylximIGCdgonOefwheU21K/fXFqpT8o88zbr6yVr5dogn3YzplDlKZULzpFGYUpKGWglgD3lYVvj4xlGmLYbbSL1tNp/Q0pxPrk26icmEe0CQQ6Qla8nmBt08Ie/C+s/WCz5aqFsIQ5shH7I2xHnag8MZ5fCqdrl4IWpxmWUqUYUP1Kf2fLeHtwNCU8OpTSjQkEgAfKBuhGMOmDFtnbxMZU5TkuZ2TvHfw+cLlAR3s+EXv1rtLdfV1Snb8Y4uFT2uhBBO4UYzS5VbN4oMMGL/KMoqFtBaLRiesZ4jFXSK4kMVDPpC1vhHs92ScwBgePzhl+Ihd8T21Impd8Dltn5wzivlLTKDumrLki2vPNIjqHKIu2VFyjMqznuiJVMY2LUmgjAJwnAi+MjeKz5iKzAcCbLaQPGLcv6xkSY5Z+ZblpZTjqgEgcyYtV8nom0D1+VhEjIGXScvObJxGnh/SEsyftr2O2dOo7bwMyTczc92KfcP9ml1beBhoyjSGmUpQkAYhqa9qPEHaNmB92MgMCKBitvEQk1p7LTRUWI2isjxihnfeLU/wDRZqecDbKnDsAPGFghty4b1K3AVMNHkYNb0qSJGlqTq3UI4eHUiluTcm1o77isgw3WtVuQL0wplWEsshtCdKRyEbcDMUM6vLEUIWf3ForEXxFDlF4HiUYcunMxxVx/2emPPZ9xOfjHcdgYEeI8+ZejlhJwp3uxtTDbL0QXDplU1XH6gtIwonGRDJTy38YF+HMl7NQ0OLTha4KPvaYLIluQKbK1dzOOvKI+4ZlMtSXnlFKdKc7mO5xQS2sn7oJjytxw4iXFNXM/bVGmMayUbGEbpqEeTNa03LRr4Zp7XiDWZp1YWkrJSR8TFcWpoLqcuhDmpOnB384H7LoF128tc1Ovn7dJWSSPj4QPT1ZmKpXZpp9zUWXcJ36R8+yoRyb5Tj8HdxmorQ2eCkmG1zDpGdtj84aAdMAvDRhUpR0uj74gvbcOnfnHncqxuTQzJJ9ncl0xs7fKFHltHAHPOLTT7bEm446sJGk84wpjuQEo9Adn2i9g4TqAVggH4xLcQ5z2S3HC0vGUkaSYGrcmpdy5H3faU+9tv5xzcZ6swmirZYeGvTvgx0saucsiKXgxX2piSt3XUL+EsU6ta949y2BTk063ZdpOydAOMeUePf0e6Z9L3b7QpOtaFZJj25T2w1JNNgYwgflH1rChwx0jh5E+VmjegHc52PKMopPLEXxGijoze0WitoviKxF8StswyQvnsYWN5rM9d8tLjIDbm+Tz5wzHPdJ8AYW8qwZ6+HFYzoX/ABMMUpE2hiSDYblWkjkEjlG8JAJ3MYtjSlKfKNgMYT02TorEWIjKMesVpBbLYjRUHOylHFHkEGOiIS8Zr2SiPrzuUkCNK47loraAmymvbLmmpggkpXsc+Zhop90DygC4VMEMPzK0nKyd/nB6DiDu6eitoqKiovgRhxJt/BaK2i+IrETiTbAzijqRbrxbG5B2jy5dtSk25+USp5IcDu4j1DxYWW6A4UncpxHi2aZRU+JQpryzkqyD4c4HO0sR7NsZffsfk3cNJNtLbE0jtA3jT8oy4Y1Jl+UWjXghRwPHeB2q2HJyFNam/bNainJSCIvYxSxP6EApAMfJL4Rk5aO9CSaGx2yR5xXbDHKODtO6N4zQ4B1jiS8jCj0dfbjTqx8ohL2nmmKI4pxWBjrHfq359YCeK8wlMh2Kz3VbbQzirlNIGa0tmVu3TSG5DQ5OJSrfYwLUG4pI8YpXS6nQV8/nHVaNnUKfobk4/N6XE5OnI/nAg9SZWSu1mal9X2bgwqPU+huFeRoSypycD2xKOIelkOIIUNIwRHQjlEHZCiu2pRSjnKBv8hE4MdI+iqLfZxO/ktiNFRSPYHs/sH8o6I56l/0L3/7M/kYKtaYPQAcOABV5pRz+sON/OGOn4wuOHX/ysz/+1P5wx0YxzhjIXaJErSM8zF8bc4vgZivnC+gjHBzzilZAjKMVcoteQRb8RTqrMr/+0H5wfUwf2FoZ+4IAOIW1alT/APqD84YFNIMi1j9gQxZ+CIdYisCKioW2EVgRZWIvFukTyQsICeJSR7OhfhvBskbGAviZtTtXgI1oilInRPWorNFYO+4iWwIhrLVqt+XPlE1tA2a5Mm/0WwItgRliLRnorbMcZByTA/e9PTNUd3SkakjOSIIjyxHPOoD0m42RnKSPwjSmbhIj7AThiJaZp7jD7LZWlWN0iCOetSkzYV2jCQT+ztAhahNOu96TUdKVbgfOGcnBTnyhm62UZbTA4bF7VOHMoRrklKQceMDk5Z9fksqZe1pHTT/WHKNxzxFKQFJwcQVXqNsegJY8JeRDOLq8kvTMSbiscyI7GKm0Ufb5ZPgYcb9OlH0lLrKVeeIgqlZlLnAfswk+Qh+r1WP+QnP0+L8AI3MNOICm1hRPSNg66h8o5Lrtao0NpyalVqU2iIOk12ZMsFzLKinOCcGOjTkKzwc6eDOATZcACwMuDbI5YjTMSsk+kB6XacOcjtEhRz84xkJ9iZT9moA+Bjc++wwguPOIT4ZMbPS7FXCaeimglGW0oCAkbAbAQCcT7uFPlvo6TVqm3hgBJiUvW6pGk0hTyH0rdWMAA5gS4eW6q4av9PVQFYCvswroI8v6961ViUtQf3HY9O9NdjUic4L2V7M4qt1kdq853k6hy9YkuLV8fRct9Fya8vud0aTy6Rv4gXZLW1SvZGnE9opOEBJ5QG8NrOm7qrIrVbKlIB1JCo+RX3yybHbaz2FdUa4aO/g3Y0xWKgquVsFSgdSdY849DSrLbDKUNpCQBgYERdMYZp8l7Ow2lLaRgYESMu4CnnHNybo2vUDOSLzcvLTTZTNMIdT4KAMIXjVMSk3W2rcpEgxqUoawlAzjMPSsTAl6PNP5PcRnaEXwplfrBxBnK++hSw2soGobeH8IbxrpKtox8MaHDW2ZO3Ldl2GGNDi0Ar+MEyxnIPdx4xvUCk6cddoGLyr6Ka12LPffXsAI4mVT71nZpGWjivOvokGPZpZWqYXsAIj7RoTzjpn54alq3woRttW3nZ2Z+laokqJOUBXQRH8Yr6lrQpJl5daTMODDYTzEXD092NV1+TWNvHsj+MF7ylr0pxmXIcnFjSlCTuk7wA8EuHtVvC4FXHcaFKYUrUhCh5xGWPalZvOtprtw61MqV2gSqPTtpzkjT5FuSl20tNtgDYR9K9B9DjiVqcl2JZN7n4CSm0+Xp8miXlW0tpSANhHQ9+rUT4Rrlplt3OlYPzip5YRKOLzsBHqYaUlERkmLahJDl6TQ946uflBw/bNvvul52i09bhOoqVLpJJ89oErClwu5p2YVvvtDEG6MeUMZEnFpFR8HK3TpRmUMsxKsNsqGC2lsBJ+UcDNtW6ysPNUWnoeT7pEunIPpEuskKSv7qQcwqaFxJl3eNNQs+YdAThSmjn72QAIyjtlaSGaqQkVPomFycuX0DCVlsak/Axzz9CpE+8H5+mSky4kYBcaSr8xArxmvhmybWM6tSfaHFhDYzz3EQN6cTl0Xh7TJ+RSJipVMJDDZz1JHTzglXLpg7QzUMykvLoYaDDKE8kIwEgfCA3iHQKIKembbpUiHQsEuhhOc5+ELGT4ccUrkZ+mpy8pylOvd9LDJQQOoG4zHHK3tdNDqjlk3x3nUbszROQ6kdc4A6xtjQfu9FtrQ6qZSKdXbPFNqrQXLLRgpzgERPNU2mCmokCzLvMoAAbUAoYHlHnU3Hel/1RVp2bMqp1Ol+4/OIOCehAyMGCu2OGvEOjTanHbxmqglxtSCp8oBRkY2wN4lsdTa3oCGtDjlGqbKMdjKpl5dPLS3hI/COGSt6iytUfqjEun2maADitiFY5R5lvC1eIVP4kU622r/AKjpqGDqIQNJJPl5R6N4aUKq25bTVMq1Weqb4Uol50DO58oxlFpeQlJMmqnSpOpU92nzTeqWdThaQcbRlR6VKUiQRIyKNDCOSScx2t4GUgcjGUY7emg+JC3cnVQJkf7T/GB3haT7OoJ2AUdoJLuUEUGZz1Qf4wN8K0n2ZxfTWfzhurqhl+A/ioocoqFQiw6xSuUUOsUrlEIYwF8VGj9C9qBkpV/ODQ9YG+IbfaUBxOMweM9WFGdgvl+gtZ6DGII08oC+GD5XILaP3TBomCuX3siFkLpr5/wDnpFC6q+DkyDuPgIYwlWB/do9IsZVjG7SPSDd0N+AWhci8K2QR9Hu5+UDV33pVZlj6O9kcQpZwfGHJMy8q0046WkDSkn3fKFlTJRFdu55xSB2TSsjbzhmi2td8QezhtOqVSk0/T9HOqKt87ZMTabzrSRvTHfQQwmZGVS2hPYo2AHuxsMrLZOWG/LuiM7cmuT7iXoXYverDnTXfwi4vqqDnS3fQQwfYpRX9wj92LKp8mc/YI9IFXVa/EtIAk39O/epjv4RdN/TJBCqc6PSDg0uSP8Aco9I46lTqezJvOuNIACTvjyi1OqT6RTTFFeN4PVacblhLr0g4IEFdEvdMnTm5cyigUjHSI+0aLKVK43pkN6kNrzuPOGGbbpigCWEZ+EMXzqilHRUUwb/APUJpKsGWUNvKM0cQpX7zJ9RE+bYpat1MJPyjBdpUhX9wmFudP6C7IdHECSWPcx842ovuQPOO8WhR05HYiMTZlHV/dYiOVOvBOzlF701W+sADnvAPe91SlSrEu0h5JZQoEgc4O5uz6M0ws9mfd3MAVv2lTqhdToKVFlB/iY2x5VL7tE7Dul3RR2pRtkTCAlIHWO361UYrz7Y2CRjnEeLDoxGAFiMTw/o+dRU5+MLTdbl4Jtmdy3nR5OjzLgm21K7MgYPkY8jstqnb5m7oD6XUoWVJT849N3Rw+pb9EfYC1pKgQCfnHk/iBZlwWZUluSk0oyjq8EE9I5XqdTnU4xG8fTktjJq14O1unANNBAaSUk/LEKWRlZj62KUjdt5eScR2ScpXHaKVyb6VNq9/BEdlqqYbqMvLvLHaJxrJ8cx4iFEqIy0uzsVpHoG2WxL0CXSDyESvbHPKIClz8m1ItNh8E4G2YkBNIX3gsYMeTuhc5t8RyHEkg98oAeMFwLkpFuTYXhx0hO3mcQYBwac64WN+fR9bqwbdmUsraORkjp8Y2wa5OX3ICxJ+GVJWRV5WjM1lueKVPjVgk/GBHjCmbp1DD70xqUoaYLadWXZpLdEcn/s0d1ByNoXv6RE2kz0pS5Z0vNkDOD12j0PplUpZS2c/ITrg+w6/RGVIyDSp6deSFuJBBPyj1Ci66MkAe1I5eMIz9GSyJOcsxD00lSVjGPhiG/9QKUVZJX+MfUYqtQSOIu3skhd1GSVf2pHrF/rfR/9Uj1jg+oNHH7f4xX1Bo/+/wDGJ/bK2ztN4UfJHtKPWLfXClf6lHrHKLDow6K/GLixaMPur/GJ/b/ROzKavKlplzh9GojxgTta4qam4JqYU8nBPP5xOV2zaSxSnnsKykbRAWHaVMm+1cUlW5xDNftcG9ArYafXCk5z7Qn1i6LwpJ/xCB840CxKP4KixsOj4xhX4wtur9Ba6OtN30frNI9YuLuox/xSPWOE2FRvBX4xj9QaRj7/AOMT+2V2Sabrox/xaPWBfiLclOmaKptiZRqyOvxiSVYFK6Ff4wDX7a0pKzbMu2pYStX8YYxq6pSLDew6tSpagspVMoClDfeCMV2ln/Eo9YB6RYjaqY0UOrHdHWOj6gOdJpfrFW1Utv7i0gyTWqZ0mkesZis088phHrAR9Qpj7s0v1i31Enhym1esZe1VryX4DoVaQPKYR6xcVSSP98n1gCTY1S1d2dUPnF12TV9ZxPK2HjEjTV8yJsz4uT0u5R0oQ6nJPQ/GPHM9NS0hxImJqYVowkaFZ67x6H4j0apSamWHZlStSsZzCjv/AIfzCJpqe7JTxVgnSP5Rl6lQnjcYh48vv7NdDvhc1OplqhN6mGzgb8xBlalbp9RrymJHHdA3zAa3bSFtNhukuhZxySqCHh1wzuOerTrsshconAwVbdfOPntnozk3xR2FfGKGt2hxv4eMUlwq7uefnHAeFt44wKmP3hGtXCy8+Yqf/wC8ISX8Uta3s0/qECTLqg1uRkHxgQ4lOspk0vPpy313iaXwsvJKVE1MbDPvCF1dNt3MovyUxN9uEZ7oIP5Rtjfxa2v738Af1CMugdlLkaYdLMtM9myVbpJiRmroo03OSdPk0hUwSAs55nMc0jbCg2lL1McU4nmQlW8c9PsatP33KTMnTXGmx1KT4/COngekON29GN1yaPY9g5btOUSrY6Bz+AifSUgcx6wqpCk3ZKSTSBM7BAwkHyjaGLuAz2qvhmPcQxdRXZym9saOpP8A4Y5qif7C/v8A3Z/KFuPren759Y55yYu1DDpWSU6Dn0+EaRxfu8gsk+HRH0rM5IH2h/OGMFDGMiEBZtTrbE28pLKlK7Q8gf5QYC4bj/0i/Q/yjfIxXtdlRGgCPGKKgIWH1huQDaUX6H+UY/T9zK/wqvQ/yhb6V/ssaIUDFlEY94QrzXLpPuyyh8j/ACjA1W6l/wByoev8oixe/JDt4jgfS8mBvlwcvjB5SylMm0NX3BCKvCbuBU2wp5J1lY05+MEshOXUqUSnSrVoGP8AzENWYn2Lsg2tQ8RFah4iFaHbuVtk/wDnyjIJu5Q/WEfOFfpv9lDQyPERWsftD1hYpYu5Q/XH1iyZO7lkj2gj5xPptfJEM4rA6j1gN4nlJohKT3v/AMxBmn3fj/qT6xA3pI3OikqW++SkecHRSuXksZ9jrSbdlxqAON8xO60ftD1hO2nT7mcpTJZmSE+RiWFJu0DHtZ9YlmOnJ9kGZ2if2hFBaSeY9YWn0Td3+rPrFGn3agbTJPzgFjL9ldjMSof+GMTjSRkY6ws+xvBP98fWNanLvSjdROD/AOdIn0+vkteDK4tMlfCH07BWwx8YZUmsLlW1k80iEJdE1XEVZlx5tRUDt/5iC2nXNcEvJNlUmtSQB0P8oZycf7Eyoyexq7Y5xb4GFy1fNUSMOU1f7p/lHaxfDpH2sksfIwn7Eiw5B57xROOkCDF5srPeZKfkY72rrp6h31hPzjN48iG29GQ5bsykjOU/zgNsak0+pUtUs+0k4O+BBTWa5S5ikOJL6cqTtuIEeHFSkpWozbbj4052384doVsYPiR/cjnumynKZLuzsk8UhPeweWI8+Xpc9dqlXNIpylDScFQ8YdP6SF9Jo1JZl5SZCVOkA79M4hY01Ml9Ey1Wkgl6ZXhSsb7xw/VvXrsaDXyaY+DGztoAKXIV1FwtsXH2plgoEE7Q8py4KVbtrNrlVJH2eEAGB2oTpuZlLL8olhLKe84Bjl/+IDpKjVK4LlNNbcW5INL0g9MR4LIynm/fNnZx640rSRJW1R6le1widmSpcsleRmPRFvyLVLp7cswkJCU4iEtKiS1BpqJaXSArG5xE+053AM5jh5GTy+xeDX22+2SbatXMxuZIGwMR7KyRG5lzMJQ6fQEonZMITMS65dzdCxgiOW1bdplAZcbkWQntFajnnmN6HMHPhHNXa1L0aSU8tWXFDuphuqySfFC8l8FXTX2KPKKUrvPE4SnMDlpUt6uTaqxPju57qSIj6TJTlx1T6SnchkHKUnrE/e92UqzLdU84pKFaMJR4mHKcX3ZcY9sykvbW2YcSLwplm2+5MOOoCtHcRmPMKKnO3tdIqlSBXJIXlAx5xjWqnVuJFyKmJgrTIIOkJycEQdUSjS8vIiUlWgnQOgj6r/F/4elFX2rycbL9RSbSYyLVnqd7A2zKkIwnATmJtAUhBVkb+EKRCZuRX2jKyD4RP0K7HWlBub/GPT5fokk9Q8GWNmxl5GTJVKYl1jSrbziWqdcbNGeDh7xRjOYE5KelpyXC2nBv5xGXXNKaky0F+8Mc45EMaVb3JDfPkG/DllKi9NJJ7xgz5Qr7GqbsnTUjxMHcnWGHEJC1b4zGd33Pey1FnVUnUs0uacJIShpSs/Ix5KlaPNTNarPEaVWov0+ph1OOSmwkEj1j1hW5VVTosxKMO6C82pIIPiDAjw84ey9vWhNUWccD/tf63OPDEXVJRBlFiavh9zi+8l1hLiabS5ZLzhB5uFO/4iBwza26JZdWqC9cnJOIQ4ojYfaEx6Os3h9TbWoNQkJAajNlwkkeOcCBPh1w2fat6r23csq0uRffC5chWSAAR8ucbxyFrWjBxYz6LUpKfpjM7JPoeZWgFJSeW0ebv0kp6VuPiPTaTR3EvTcowsPaNyDnP5QTPcD7pklvS1Bvmbkacs9yXCEnbPiTmJeR4a0iyqOuYLxnKi6oFU077xPWJjtc9oLvQL/op1WSp0/Vrfn3UIqHbqUAdjgn+keig4kqIStKycYAMJWucK6bcsm3XadPro9XbTlLzX3z4nJ846eHVmXHbFeTM1q+36lLhJ+xW2gD8DF3Q5ybKgmjj4kJJ/SGtlQPJKTg/FUPBKCpOdwTjMLK5LdptY4h0u501RKEyeO5kdM+fnBuLjpYAR7Unwzkb4hdwZpFImkZyfIxkCPGBty65BJIQrVjqI43rzbTshon5GA9mXwax8EhfS0i35jnkJOPxiM4WNkUXWVDdR5QOXteDr9KcbTLEAjwMclmXbNydFQhqQWvJPIH+UOLHkqgWOLO0VnzELY3zVjyprn7p/lGBvOtK5U5wf8Aaf5QsqGEMzWPGLas8lCFkbrrquUi56H+UY/WW4j/AIFwfI/yi1Q/2UM4EdVCIq6Gg/SXUZGMQC/WG4yP+kX6H+Uapms3E+wtKpZYTjwP8oKqj7vJCb4YnQZpCjjSo49YOkKAG5hEWtV66zMzSGpderV4Hx+EEn0vdXRhWPn/ACja7G297KTGoOUURsYrrFK3SRHO2thkHeD/ALPRXcKwpQwCIhuGVP7GUcm1DvOdY18RpwhbMoD7xH5wQ2rL+z0ZtGMZENb41A67JdIjLEYo5RlmFemQtjyisReMYmgtF9oEuI897NSChKylS8DYwWfdhY388qeuFqnJORqGw+MbYy2ymgg4Z0/2al+0Ebu758YLwI4KJLezUxhkDGlIiQgbXykUkWwB0isReKjPiXoqMYv1i0DPfReiIu2Z9moj69Wk4wDELw6lEmXVN4GVHc+O8aOKM5iVblEK3WQCAfOJyyJUylDZSrmoZhzjxq2VonesUdhiKHOLHeFd9kiQtyNPOsYQDiFlfVpiv0pyVfbTqI2KhDlWkK2UMxoek5dY7zYMG0peS+Ti+jzZbXBiqMSLyGJ5SUHJ0jOI5bF4SAXq4J9aXAlXUR6YmUsycqtSUhI0nrAhZMulyvT0xzy7sfkIxpwapKUpI0jfM5JrhfIaR2GlJHgIjJ3hnUiVCVnihPTnDZB7pzFu6c+MJv07Ge1xD+ps/YlJ7h7cEpKqWKgtXrCX4jWNWmpg1AzCue/OPZs20H2S2YGKnZsrUWVNTCAUnzjBelUa6RIZU9njWnUGdQjtkVApePIZPOIZmlvzl1olp58zLgUMZ36x61e4PU/tFqbJB+6MwM3LwzpNBm2Kigf2grAO+esFg+mqFuza+7nEZHBWnIp9ptNBtSFAAbweRCWaz2NDlxn3kA8omY7FnUuhGPgyT5RWIskiMsjxgSo+C4G0WIi4IxFZEQvQO3w8WrffOcHH84juF6dVH7QjmrnF+Jb+ilLbzzIjr4cthq22dveMMb1WUkE8VFRYcoUT7CL4isRfMVmD2VowOYW1/nXcUs0d99vWGSesLO8TrvqTb5g5/OGMbXJ7KkH1GBTT2B5DPpHfiOaSTolUjwEdAI5QvY1yLRflFoo48YtkeMDpaKK8IoxQwYsMFJio6IKPizrcrrLSdxrG3zjqapq3ZNvWwFYSOYi95oD94stkZwvl84YdPk2BKoBSn3RD17/spAxepApbtvtPPBbsukY33EGctLMy6dDTaUnHMCNjbSED7NIEbBz57wjCKSNnJstiLjlvFfOLH3YJvSA2a5sEyzmn9k/lCckaYqau2aBGe+efxhxvECXc3+6YXtroSu8Jzb7x/OGsbTg9gctMlqTbTKXsrZSpPmIJWKbJNBJRLNhSRsQmOpsAZA8Iun3d4UaXL7TVSbRgUIzkpBIi4Sk80iM9sb8orlA8p7K12Ydkj9kRzVJlr2B/uD9WenkY7I5ql/0D/wD+zP5GNISlsFi+4dtIXVZkKQDh04z8YYqWGMfq0+kLzhx/8tNb/wB6fzhkI5RvkSntdlRZr7Bg/wB0mLhhgcm0j5Rs6xWIX5T/AGEa+xZ/y0+kV2DJ/u0+kbYrlEUpfsgteJ7aEVSRKUgd8fnB1SWWjJMqKBnsxvATxU/+QkT/ALx+cHFGOZBn/wDZiGZuftoo6uya6IEX7JvHuCM4qFtzC0YBtA5JEX0I/ZEXxFYityKMdCP2RApxNbSLdcwBBdAtxKGbcdjWmT5EK4d4NBa8oJ9KfAQJ8NlZoqBnlBaOUXdy5ERjoT4CK0I/ZEZxUY/cXow7NBB7ojFLTYTjQI2HlGPSL5SRXwLfiUhLM7LrCQPtP5wb0Vhh2lMHs0kaB08oEeKzeWmF/wD6n8DBXai9dFZ3zhIh62bdUQV5OpVPlHE95lHLwjQ5RKevmyn0iSRyi+IT9ySZZDKtulqG7I9I5XLRpKyT2P4QRcorCv2otWSIBtRsmRcl1dkrGkHaFzQraccuSbYQ+pASenxh6ODCVHG2DmFG/O/R16TC2+alcs89zD2JkWOLRH0jz9xqkZuo3o3TJqYK2kHAKvlHKyxP2m4062suyafeT0AhvcQrPTU541iXRl4DURmFNec9MN05yQfYWHVHRyMeK9aosldyl4OvgzioM7py7jcaEUigs9ipwgOKR18YbHD+htUOkNIUkGYwC4rG+YAOD9qy8vKtz7qQlzOYbLbgWtSQMbx4T1S7g+NfSOlXUprZIoWSrVnaOhCxzERgcKVaY6W1EDeOMp7WzRr4JFD2BgR0IXkYJ0nxERzToxjrG9DiUEl1QwkZzmNK9swlFHc5ONy0st10gBAzk9YAS87dVfUslXsrRwR0jRddYmK3PfRtPUUpB0qIghpDcnb9G7RxSBhOpwk846FKWtLyYSr/AMiWnqjIW5RVPOLShhtOxJ6x5nvetzfEW6Cw24v2BpfPO2x/pHZxWvKcu+rqo9KUtMolXeKYlbBtcU6SSyBqK9yrrH1X+H/xpy1kWro836nnaTimSNtUFuTl25WUQAEgDUkc4OqVSEMNalJGTzJEZ0emokmUgjJiSJJ5co+luzguNfg8s1Kx8iIqNIbdQpSUhJ8QIEqlTC2s5T84YqgFJxyjknJBmYQQRvGlOTx/IkW4C9kJydpawptaygHlnaO6Yrv0tPS7DvcyrBjsqFHdQtRSMp+EQExJFMxqSClxJ2MHfiVXx+06FOY9jWpaEokUJbwQB0jsDhCu6o5xyhZ0S4pySWGnVFSBBZL3RIOM6lKSFgb5MeTzPS7Iy6OtVkKSDKQq7zK06lKwPOCKRrUo4nK1JSepJhNzNyTMwstybSj4HEamGbgnXclwtp+MKRxeC+43UtjonLjpMtuuaRkecQs7fNPbz2B7Q9N4BqbQnA+FT76lj4wdUSiUFTaCUAqx1iOMIIvWyJmb2qL4xKyClAciBAlfFVuCck0NrZWgFYwCPOHPK0+QZRhhhvHwEAXERYNUalENpHfTyHnGuNdBPwZ6I+3qBc8xTmczbqEKQMDJ2iW+pVVd7z08pRPPcwb0NtKaWwjPJAjuAxsBGVmU2wuKQDyNiMpRh90q+ESUtZNJQBqbziCcaj0xF8HxjB3NhJEC3atJbHdYT6RtTblLT/cp9ImRnlzijnHKA9yWyxfcRKZJS1J+zaSnzAiR4fU+UVQWz2SSfHEaeKWfo1CfE/ziU4fo0W+18IblbL2vIL8kyJCVHJhHpGQk2B/dJx8I6BmKHKFOTLNIlWByaSPlGRl2j/dp9I2xUTkyGoS7I/u0+kapphrsF4Qnl4R1Rqd3QoeUVCT2WwBt8NN3Q60UpwTy9YPUstY9xPpC8lj2d7FOcZP84YyMYja6UmCjMbxgo4i42EcVZmBK055/ONKciMopNhbFxXHnKreDLCdw0v8AjDQlUhtpKB0ELnh82J2vTc84nKdXdMMlGAfPEa3NLoiM8RWItmKzC/RNl8GMfvRlnzjEnvZibRZpmlhuXcWeghZUFKqrepnMbIJGYPrne7CkOKzjIMDXDGTCQ9MqT7yu6YbpahBgb7DhAwAPAxsxGA2X8ozB84VbWwysRWItq84vnziuitllc4wWdJUrwEZExwVmZ9mpbz2caRzgorkybF1XVLq97IlRulte/rDNk0JblUII9wAQuOHkuqfr8zUVbjVkGGaNjsIYvmmlEmzOMVHCScZ8hFxyix67wrpFoCOLFQu2SoiW7Ul0OzTpA1qz3MnyhRt3ZxUsO4qYq8phNQkJ5wNqSgqPZ8z1+Eei5o6GHAjT2mklAUeZxtHl3irMXqu9adM31IBq3WJ7La2lAHkdzp3O0MUxUnoyslo9A3PVZdNqGfU6kNuoScLPjEdwympN+TK2Jtl587rSlWcCETx2uSZr9wyFoyk8qQpSJdC8pyFLBSDzG8S3BzhjVqfVpSuUOqzjMiFArTMOrc7dPiAT3fhDToSr7MVYelFKbSClStuZzGIISlKlLSRpwFnnCp493HVpOkS9v284FVecOTjmkJ7384Ca9xPqw4WylPl3Uy1XW6iUm3F79kVZ3hSNCaD909AoqtMLwZ9uZU4TpSArvauojpdmZdkp7V5DerYBR5npHlulcKl1acl5yh3BVnaqjDrkyZl3sUqPMhBOD1gm4/TtctazKH7VMuTk20+12imSUFeF8toL2Ip62X7o/X5phhOp1WjVtnzhd8QZluZrjMghSFKSUqIJ38YTFy8Vqnc1Wt2nGgVClhuZGXVPHDndPMbRG3Dds3b3GqbcRITlVCGmz2aXTgdwfGGaKEuynces6e6zLUmXDyw2kIAClbAQPcSK/OUShpqVNWX1NHLjST3lp8vlCm4g8Rpa7+Ds8/JpmKdPSxKXGgspU2ceWM845LsuFmgXJa89UZh5UsJBJW2pZIdUWk4yOu8YOp8uwlaMPhbftQvWsuviSmZGnoTpCHxglfTENNJ3SAQr9ox5hti67krvGamuGVbptFcGqXabbCO0GrbIGPxj04j3NSRgnaM7q1BbKrnuTNiQAnA5RcRQ6RRzGKakjVLsAuKSgrsW/wBpQ/OCaz2uxozKD+yIDuJKyuryTSd++M/vQfUhstybQxgaBDMtKGil5O2KiwOYvmFeiyosrnFZixOfWJ0XsxXsVHyha1VPa8QZc+GfzEMlzHZq+ELpI7S+0L+6kkH1ENY+tMpjGbHcA8ottjB94dYyBAAjEkeG5MLLWyICuK3EGmcPaQzUao048l1ZRpRjUcDO0L0/pK28kK125W07Ag9mnGPWK/S5bQ5TbebWkKPt6sgjbGmGMqi0Y2KXDR5Ar9h5+zoz7nwjfjFwMrHpluFnECmX5SV1CmS8wy2helXaAc4MNRGo5ToxzjzVwcuqQsex7gqMyMhM6rs20DmcDYCO1V+ccHpY1uWtyXVRyCsIKW9ejnnx5Rbo21okbA8qIW9xA7h1EH54zDIlylDCe4RpHWPMCOINx1wO1u2JBBqDI+3acA7njzgn4I37xQumadmKvJSwpLBcStxKEAhSc7bb84YyatRSK5dj9yQCc5MYhXIBQKhvhXOPN8pxZ4m1+uVGiWxRW5h+Ve0pcISAAB1zzghsvivclOuFdB4j0xElNqQFNvICQg8zjbyEKKp6CVg8SSpGUYJ84pKxg97URzA6QgahxN4lXTPzB4dUVpUjLr0LedCTqPlqic4bcT65Uq1MWrdMimn11KfsyEDSs5x028YkqZaLjZEbr5w0sOacY69YX1n5N51AFZ/WnAHQZgde4qTtuzdWot1tpbnGN5PCB9rkE9PlABReKNwSMy6+inpdqlTVqlpcIAKSeWfSGsemXBlOyOz1LnbCFArHjFyrCckZURuBHnpfEPjFboZqd1UCXFLWoalNJRlKflvBDxN4oVmUtGjVezW2XnaoUhAcCTjOR1+EK+02y/cHISkbKOxAwDyi4CtHfKdR6dIQNp8S+IlPu+n0i96fKhif/VLZ0E5xn7vKCiicUB/6kVm3axNS8tLyjuljVgEpwDzi3QylYNdGSCCQD5QPXnXpWhSeZzUGnkkFZ5JJ23ge4s307b9l/TlCeYf7+nIAUOY/nAZfl0vV6qU+1qkhAkZ+SXMOugBJQUjx59YuiluRcrOiZ4V3DT6hdc5JyikPae92jZyOcN0HA2jypwPrNHoXFRdq0DW8hSwHXXCVZGTyJ+EeqmclG8a5cOMkZ1PbM0HIjIjaMRtF+kJaQx8FDlFeMVnEWBER/BBecUx/bJM/7x+cGtC/+MZ/4CAzikMzUnj9sfnBjQDmmNAfsCHLP+kiiS28Yr5xjkRfI8YU2EX+cVFRYEGJsjK6wN8RBm3XYIz1ge4gb2898ILHf3lEfwxOaSR4EwZp5QEcKz/7asH9o/nBunlGl35EReKisxUZFldIx6xl0jDrAlMCuKST9Ftq8F5/CJLh692tER5Rp4jNF2hqIGcbxp4XrCqKcHkoj8Yb81FBiOcUYoRRhVBIvFvuxeLGLIangVNKAPSEhdsu8xeGvOAV/wA4eGO7z6wr79lwm65QqT3FL3/GGsR/eBIzYaLrbaUJKiRHQnhrQ6oDNVCUSpecjKesGFFpks3LtuhAzjrEqkY5cvCE7oKdj2HBtCPuq0J62nvapBSjJj7gjnpc83NAEENr8IeU7KszbC2X20rSoYwRChvax5qmTi6lTCpSN1FIPKPHetegK5OcDq4mdx6ZrYdBWQ4NxyMdSXDzUvOeQ8IHqXVETH2TuUvJOCCMRlcFXTSZJTyiMnYZMeAsxLKp8JI67sTjtHXcNdTTZf7Hvu+AgNnr7mJpIpSAW5pZwT5RlPocNNFamXe6s7DOf/OcQt1W9LOsNVanzQM5sQkR0MepwWpisn8jFtWnM02STMOkdqsanDC14qXTPVaeNGo68t5wvSY5J6762uUbt5Dava3h2eR0iUo3DisUSXFZmEqdW9uc74j2n8X9BhderLfBy8/Jko8YnDZluNU5pIx9ssd/aGjQKaJdAWB0iCtxhDsxh1OlYGd4M2e4gADbEfa/spqVdXg8Nem57kZA5zF4xB5kxcHPKFl0Z/8AYvFRUVFlGCggjBERFVpDcwlRQBrI2iZ5ncRRG+0HXY4vogvpyRMsspWgn5RETMkQ52iOeeUM+ZkWnkkqQCfGBaqUl1txS2093wjo1XQtXGQUZuD2abXrrUmsMzDePMwfSM5LTbWplafhmFZMSwcUQoaVDrGVPnZ+muamnFKSDyzHOz/SY2LcDq42an5G53QMFO/jGbDy2yezOFCBGhXY1MgNzJCFjygll32n0621jePJ5OHZT5OpC2Myap9amZZX2qiRA3V59FSvVgE/+ZEdjqsIJzmA2SdUq7krBzpzFUJJdh6Q+6eEtyqEpO0dQxjOIBqdW3msJc90GCinVRiYb3UNULS1stLRJJA5xeMELSRkEGMwQYEssYseUUSAYvA/JQBcVD9lLjxP8YILLRoojXwgc4pqHaSic81D84KrZGmjMp66RDUv+miiXHKKiwi8LhFRYxeLGIQqMFDJPwjOMTtAR8lMWVZJl7+Yz1IhmS5y2CPCFrfQDV3Sro23GfSGHSnAuSbV4phy38EwYkSm66Pv/aBA5fl105VEdaafAUtOBvG4WFLBSh2x9TAPd9sM/S0tIJeKtS8EAwxRVS3vZXYYcO6pSpOkkreSFqOYKG7lpJ29oTkDxgVkeHrYlGtD5SMbjJjeeH3eymaI9YG6NDl0ydhN9ZKV/qU+sXTcFMUMh9B+cDH/AKfq/wBWfxiv/T5fSdUPgTGSrp/ZOwo+nqb/AJ6PWKTXaYoKHbJ9YFv/AE+X/rl+pjE2A6hWUz6vUxXt07XZa2dV9V2SVRi2hxJJPLMdloT1NlqUgdqgEgdYWt521MS9SblTOrWFEbZMFdLsN9VPb0z607DbJhqyqmMFpg6ew6NXp4J+3Ry8YoVeQP8AfI9YEPqHNc/pBXqYxNiznSoq9TCyqpfyE9hl9KSB/vkesV9KSA/vm/WAo2JUOlSUfWMfqLUf/wDpK9TF+1V+ydhyKlJqSSl9v1gW4gVqWbpJl0OoJX4GI5Ni1FKsmpq5cgTAVdluzyaszJmeU4SodTtG2PRU5bbK2xjcN1ScrRkrLjaVKG+8FaZ6Vzu+3v5wu6fYlSRKJDdSUnI6Zjf9SKuQP/dFbeZ/nGVtdTl5LWw/TPyx5PN+sXVNS6gcPNnyzC/+pVZSNqqrPz/nGP1LrROFVZenrgqB/OM/ar/ZcdmfFiiXFXZdt217kdp0y1uEpKQk+oMLJVg8UroqMnJ3tcEuuksuhSy06FLV8QUwyhZtcTt9Krx03Vn84xXaVdCVEVNZxz3P843hCtfJnKLYr+NPD9mqVymKoDqUVOWQENOLOM6QBv6QTcNqFxaZqDLdw3Cw1IMgFLbDoVkDocpiPTSqk5XXnJidUnsTjWSdoNJS26zMSjS2Kq440pHdWlR3/GGblH2/IMYItQbWqD/ESbumvuS620NpalUtL1HIyCSDy2MCV98GnK7c0+9Lvst0+oBTiyFbpd5JMFZotW9rRJCrEPJ30AnJ/GIq8HlWjTVzlXuAsNE5AUVH8BC0IpvpluMUgbt2zeNNFcZpMlcEo1TGDpSoPd4oGw+7BpxBsqs3FR6Mx7ezMTUjMNOPuuL3OF6j08ICbd4i0KuT7VOkrlWZlw4GvWAodAM8oYCqHcHYds1UPsVYUo5PIeeYKyrg1tgpRL8TbOmrglqP9HqlULknu0dUo4JGnG20Jur2hf6+J01U7VmpNhTqEoUpbmOSceBghu7iLR6HPOU2oXLpeSO5oCvQ4iElr3pEi2mrvVhbcu4dshRMN00SjEFqIQtcIa/M2ZVG6jUJV2t1BwrcXr7oBA648YKKxwjlrhq1Cmq5MI7OmMISEIOdagkD8xAVQeKFDrlRRISVeU6p9ehGlKgceEMdNJuZxtKm5pxSwAUAE7j18IUtjJPthR4s4bkoMyOK1CmZGT0yMq0EqUBsDqzDYDiMBIXp8YW4ot0BI1zTgJ6EnI/GMvom6ArKZpzGOpJ/jATrjYltmlcdNjJS80APtUnzzFF5vHvp5eMLP6GudKf+qX+P84wVSroAOZlfLxP84GOLBeGEm9l7mmEzF5MMlYKUq8fMQy5V1oMoHaJ90dYQLMjXZi5XEFZU62ef/hgwEldgZThxW3l/WNr8eKS7KQ0y810Wn1iu2b/bHrCsTL3aOa1f+fOMuyuwDbV/584WWPH5YfwNEOtn74i5cR+0IV6E3YOiv/PnFy5djY/VqV/58Yn00f2D2MqYcR2CznpABSwF3ctZ6Ljicmbs0K1MKAI/86wMUR65F1l5xDKtSVbw1RjLi+ymPgHu5T4RjqTp0heCIWiandrRx7Mo55f+Zi30vdhUVLk1c+gH84UWN9z7LTBr9LCXmZiSt8S8u48UTpKtIztphpODFikBKifYcacb50QHTdRuKbQlM5SkPhtWpGpAOPWNor1zp1AUwlJGNJAxj4QbpfHSAmtiVt21K1UrEqz8lJL9rkamqZbaWMdp3QMfjBnL8eJVi3Pol226kmqIa7HswwdBVjHPPjBlKVmvyusMUZLaVq1EJQBkxxTU5NHXMu2xKdtz19imNoV7aTA4i74QUmon6w1mrShYmJ9CnewSOWwEHf6Nsu/L8PKsmYYWwszU0QFDG2o4iJoNbrKLhddRIpWVbFGkYx8ILG67VmmHWmaQGW3EqGEJAGSNzG+TBt6QSj0KXhffr1j1i43Z2jvTchMToV2rCCpaTpwBHXXZuocbLplRSaZNyNLlSSXX29BUrBB8YnuHtMrFvNVVM7T2J4TkwHtK2gQABjG8GcjcM9ItBmUorUulRzhptKfyjB1tPpdg8GLmy+ID3CuScti46BOKLC/snZZor1pzz5x12vNVS++KCL2XTXqfSKclK0LcTpWsAnp47wcVCuOzyg7OUCXmHEbFbjSTgfONjdyzbEt7MmlstS6zhDaAnCvkIv25tbS7KVSXyKO+6NcnFG45i4pGVVKylJP2AIwXcbn/APhgbpFWraLrlb0FJdmHqZhM3KJQTgDckdesegGrknmZJTMtSEtNEHV2aAkQG29WHmq9OaKaxlwkFOlIzv18YZo5cHFop1pPezjuvjGi86Cbdt23Ki5OTY0L7dgpSjx3Bgb4vW7O25wjtanTHbtOyy0ds7LDUtByrkDDXlqw5KPe0y1vybCgO6tDSE79dxGydrFYqbSUTNGlJgDdIcQlYPyzGEaZRfgvo878OX5pd+UyYp89cNXLS+97awlKEZGOaYkr8btZPGOuP3lQ52YCnT2S2GioHYeY6w8JJ2pyj3bStuysuojGG2Up/KKm01V54uzFuSjzh95TrKVE+sE2tkcG/Al5OTqyuFVSDEvNN0t+ZUJVtae8kawRt8InuJtpXRcF0W8KN2jDKZFSJpY2wDjPTwhoKn697MmU+gZf2ZJyG+yTjMVMVu40NOH6KCSGyAoJGwxFVfkXwehP8OqFJ0HjdT5GXUtXZqTqcI3UrfMetG9mxuY862wJtVwGqmm651DmUrAGxhiC6LlSgD6OVt5CJm1OclouuLQyc56mK6czC2+tlyDnTlegjJN4XAn3qefQQg8WQx8DHHxMVg+MLkXnW+tPV6CLfXasDYyCvQRPppgnRxUJDsngn3x+cF1ukmltZJ9wQoL5uufmfZiuV0lKhnI84nqPe88zKpT7GVAIHQQ7PGn7SRXJDS+Zi4Ihdi/JvrKKHyihf7wPelyB12hP6ef6C5DE28DFbDkmF6OIA6sr9IzTfzR5tL+QifTzK2g/G8QN9jNvvADpEEi/5X7yFCI+5L2kZulOt4UCRjMHRjTU0TaJHhSsmVdSeij+cHg5coTXDu8KdJNvBaie8dx8YM08QKNyKz/58oLJxpqfgikgy+UW38YEk39RTzex8j/KNqb3op/vj+MYexZ+i9oKPnFdIGk3nRlEAPxtTd1IP99Auma+Ctmy72u0oj48E5iA4Su5pz7Z6OH8zHbXblpT1LfQl3cpxAtw3rkjLOTDanfvk5+ZhuFM3W+ibQ1075jKIJNz0vo6PWMxclMx+uEKezNfBFJE1FREJuGnK5Oj1jNNckFcnR6xPbl+i9kjyhe8RmtNXlHegXmDQVWTJx2g9YDeIU1LvrZW24nYxtixlGfYMuwzoqwunM/8Y7REFbVQl1UllXaJ5YxmJX2tgZy4n1jK2t82XE6BGt9pp1BS6gKB2wYwE0x/mp9YxXMtHAQ6nn4xk621rQS0gCvixWJhtydp4DLiBkgdY893zNzs/MqojilAtq05EeuKtNyzUm4VOJypOOceaeI9Hdk6y5VpQJcStWpQA5xwvUfR42Q5xXaH8TIblxl4AJit1eQ0UOpalyI2CvCCGfXL0yTaXKTntEwvADYPLMRlamZGbpii4Al4j3TzzE/wB4cVKo1tNYrD/aMg5S2oHbwjiYXpc8mz7460OX3QUemHfBvhmqYmm7lrKB2iiFoQocoeD9PlnpYSzjCFNgYAxGUsw1LsIl2gAlAwAI6EZGxMeyx4ulKEetHElZyfYurusNCyZumHs1jfAgNlZ2bkplUpUUFIBwCYfBSlQwd4HbntWQqzKiGwl3GxEdzF9QlD7Z+BHIw4WeABYdQ6CppQUI2K54G0RFTpNWt2YUSFOS+c5HSOqnTzU4gKSoauojuVzjNbizi248q3/o7AMbc4vFgR47xffqMRoLrsqK2xFRUTaIVrxtGC22nU4UMxngdRmLYHhFKTXZTWyHqdHaeQpTScHygVnJFxlwhY2hh7AYEcc9ItTDZGkZ8YboymumAtx8C7WyNWWlaVR002rT1NXlTilpHnEpUqOqX1LR3vhEQWyNQdQd4asopyo6Y1Vkzj5DKnXNKTkmQ8oIViOG0x7RVnJhPe3MCTsoSk9k5p+EdVu1N+jukKBWCeYjlZPo/GLcTp4+Ym9NjXBJ97bPKNsu880rKFkRA0q4JOdQ2hSsOE7DMS6HEKGQoR5O3GnVJ7R1I2KS6JyUrrrHvEqggpdaZmE4WQDAMNIG+2Yu2640rKFYhZNN6DGahSFAlCgYvg43gGkK1MS/dWSQYI6dWGJhOFHSfMxNdlMEeKBzOySBy1j84NqGgpp7Q/2CATiO4lysSKUd7vg5+cMCln+wMnGO4IZseoIo7Byiow1jOIyCsjYQsgi8WMVnaKJiMhUYq5xfMWIgY+SmLjicgoqMvMDxG8G1srK6PLrPMogU4pNgSrKzvhcE1oLC6DLEbDRDk/+miookZhxLTClq2wIWNIaVV74eeUcobXt6mGBcjvY0iYWDvpP5QKcMpFXaPTqh76ucSr7YNkDttOlKUg8hGwfGLad8xdIxC29stF/nFfOL4isRCy3/dGCsBJJ6RsxHLOnRLOnP3SYuK2ymLauLM/f7LI3SCP4wypNsNy4QD0hZ2u2qevN2ZJyGlbEfEiGklIAHwje56SRRQHnF/nFDEXwIWRaKx5xWPOKisxZejW8QhClKOABCvlB9K8QFkqy2jGPxhi15fZ0t5YPJJgE4dyva1iYmcbaufzMM09RbAfkYrCNDQSDyEZgHxikDu7xkMQq3thFsDxiwTGUWPKJssrA8Ijq+97LS3nR4R3knTnrmB7iE/2NtTGFhKtBwTGlXckimJO+6qum2VVp0au2dVhojxyYI/0YrvmKpw69mq6i1N05IbXr5kYznf4wH8SwHqNRKWgKWubm0k48AsEx0cUqBW7Trkq9bjZLFYa9nfSgbIWo8/QR0LJRkuLMZbRF0DiHUqv+kDMzXebpiGy00DyUpAVmJKwaM3xV4hViuVx1xynU+Y7JqVPunIBzGq/rUl7TbtV5BSytTy1TLuPeK0jb1MY0usT/CC9p56oSK1W7UnQ4l9IGE7AZ/OK1Hg+Pky22Mi+OEVnVS3n2pGnIkpppBU08znUkj5wnmuIlZZ4XP209MOCfTOtyPbDnpWop/IwwLt492tMUl2TtB36Xqr6NLbcud0k+OcQNy3CSsucJXp51sivOvonShYyUlBJx+UZ0vv+6XphnaHCa1qVZYcq0oiozbrWtbr3Mk+G8a7Zsa2HbWqhXSmnQ204pGvOE7KgWpnG6jyloIo91LVTKrKjsil4++R1GM7Qf8NqvT6zw+qU7T5nt2VMO5x17qo05TjB9lxjsEf0Y7UtyZpU7UHaWwqaYnSELBzp2EPxtGnugDSBgEdIUH6K4SbYquQEf204RjfGBDkwAdukJWTcmawrSMUISM48dyRzjLSnwHpFwIvgeEYbkGY6U46ekaJzQiWUo45eEb8cxHDXSEUl9f7KdoKDlsgBWYjt74nFlQKcn8oZQCOWkY+ELbhkntK5NOqHvE7wykgbbRtkSk5FIoIR4D0itKfAekZYHhFYhZuRZhpSfup9IsUp37qeXhGzA8Itjfygty0Q5p1CTLOYSkYSYDLIRrrE6VaSAvw8oM6krRIPHwSYDuHPeqE4o/t/whmqUlBkDXs28glKfSL9i0c9xPpGeARGWBCylLZNGrsWv2E+kWMuyfup9I3YHhFYHhBKUtk0aPZ2d+4n0jlqcqwZB3U2n3T0iQIGI5Ksf/b3weiD+UFCUuRNC3sxho3Y+ClJGrGMQS8R52VoFm1CpFCR2DeoHHXMD3D3e55lZHMkZjk/SfmVJ4dKkEKw5NupQMdRqENWTk5oF9EjwQumTvSymKipCBMIADwPPO8D89xBpiuN0vZ0uhJZ0pKl421YOR+EAtuzauD08qWdDipKpyi3WgTyWNgIgJy35igVyh3rOvFMxVZ1wgqz3UlJIH4wcYNz8mMptB3fFfuW9r3fsyzG2pWWb2mp3Vgj4Agg7GI6ocI77tOUVW6Fd81VZiWGsy8yhCAojoMZjo4F1WTt3iJXKPWXA1NzryXJdauo0j+cPe4qxTKNSH5+pzjMuw2gkrXyEDOydf2onYp6HxVpsxw0mK5UZVCKlKAsuMgc3NwPxEK2y7Ou7ibUpmrzlbeorcwdSG2AFFIPjnGIiJqkVGr2hXrmkWHE01VRbdSE8lpSpRJHpDp/R7q8jWZYzEioFKmwNj7vkYao6plL5Bjts56hwnuldmCmuXfNS3sYW4HW0IUpwcxnPwgM4E2TctfrM9UJi9J4N06cDJa0JIWMA5j01WAfoic097Murkdh3TCj/RgGDcuTk/SOM/8AYIS9+bRprscktLoaZbZXhwoSAVkYzG4NNY91PpGaRzHSKSBpxCnKWzaPg1lhvfCE+kclUaQKc+OzTnQenkYkOUcdWVppr569mfyMFXKWyNgBw2ZbcqUyFpScOHp5wxPY2P8ALT6Qv+GA1VCaPXtT+cMhIEbZE5ciROZUmx/lJ9IxMhKq5sp9I7MecVgRhzl+wjiFOkwCAyn0jE0qQVzl0+kd8W5RPcnvyU0LfiZT5Rgy5DCd1jp5wRW7Sqe7S21Kl05KB0iI4rjLUucnZQ/OCO0sGjMnJ3SIads/b8gaNoolMI3lU+kW+gaVn/pERLYisQr7swtEQbfpR/wqPSMRbtK6yqPSJnAixAMU7Z6IkQxtqjnnLI9IjLgtmkimOluWTkCCwAco46ykfRr233TGtd0+S7I0LPhtQabMvTbbzCCAo/mYN/qjRSnAlkwM8LSBVJ4H9s/mYZAG0b5Ns+fkFIGjZ1HPKXSIx+ptL6NCCfEViF/emXoFvqbTTzbGIt9S6Z0SYKsReKd0i0gJqVmyKZNwgHlATZtutO1yYl9WEgn+MOWcQFS6wfCFta6exvt5oEhJ3/OG6r5cGC0TybJlui1CKVZLGNnVQYiLwq75bLUegNTZjWMB5UV9Tv2ZhXrBjgeEVE9+RNAWLMXpVmcXnpEHdVpLl5AvmaUrQM7wzsc8RBXskG3pgkDIRGlVz5Fgpa9sTEzSkOJnVp36GJNdnzmoqFSc+G0SHD1zXREg9D/GCbSM4xEttfLstAObRn8bVJz1EajaNTHuVFzPxEHuhPhFFI8IzV5NCnrls3A2kkzilp+MC0zbdWm1+zuKKknbBh/LaQtGlQyPOOVFOlku9oGxn4QSykumtk7Xg8pXDw0n5GqJmHVHsyoHENa2Za5KVSmhKMJKcDkf6QWcUZJKqKX2xhaTtiJSwZpuboqASFFIAMMqddcOUYkbkwUFcu+WVlUlqHxP8ozRd9wo/XyJ/H+UMhTbaxgpGI0uU6UXnW2D8ox+orl20AotAE3fM2D9tKqGPIx1y9/ygP2rTifHumCpyh01YwqWQc+Uc71sUdaCn2Nv44i1bU/gvRBTdzW/UpZTUyDpUOqYUldcZka2pdLcPYk8oc71l0xxKghoJGIXN7Wk3J1BgNqKUrViH8C+MZNIxnT7nk4aXXmnXBLvHStOxJif1pWgEHKY0zfDEuS3tcq84HCNQwYh0CqUMlmeaKmxsDiOrDJrm+mczIw+Hgnxyi8c8pMtTTeppQjekp5GN+mc2VbiXiosM5isjUQIgKLxZWyYvFfdidIhrLaFpIUkGImpUdt4KUgc4mcbRQGIOFri+iIBJynPy5OEkiOBxGRoWg/GGM8y26MKSIiJ6jIWk6Ew/Vmp9TAi3FgQGFsr1MuqSocjEvTLlnpDCHU9onxMbJijTDeohOUiOB9lSAUqTiCsxcfJHa89w6DOmXPJTGA6rCiOUTjDrL6Nbbo+GYUipf7zZKVR0ydVqEisYWVJHjHDzPQPms6NPqMX5GwCDsfWMm1LZ3SowFU+8WwgJmkgK8RE9J12Qmm8pcwfMxwZem2wlpj0bYzW0cVfqTpr8rrJISf4w0KPXWTKtpWcd0QlLinpcVlDhWFBKunxiWXdbCGUNy6Tqx1g7saSh2FseLL7ToylY9YyU42B+sSPnCPZvKtoOmXl1q8P/Mx2IrFyzu6gpsHn/wCZhZYsV8hocPtMukd99HrHO5VpJBILyT84XklQK1UW9a55xOemTHexYc6ofaVJ0HzUYt0Vx75ECty4aa377wjQu66SnYPZ+UQIsAD9ZOuK+ZjNFgS/P2g/OK41FOTI/iLcNKmaQCF5IV4R2WfdVLbojDSnCClPhEHfdnysnRNfbb6uvxjrs+y5SYpLbxd95I5Q5qr2UCm9hFxCnvZ5H2cHd0gfwiQsiX9nojSMYPMwG31Nqm7jlpME4Soc/jDFpTSWZJtAH3RCc1xhoNM6zFxFRQhNLssvFRUVBllRCXhNGUozzoP3cRNwE8T5ot0hTAJytQjSpbkUzi4WSxBmJlY3dJIJ+MMGBywpRLFCYcwMkQSRLpbZS7KiorrFYjHQRUVFYixETTIQl5zKWKK6DzWMCI3h5LBqmKXjvKUTn5xz8T5js5JlsE95YBiatBnsaShX7SRDX41g67JochiMosBsIrpCuu9hF4rbEWPKK+7BEMFYwPjANxTfUZVMqnks4O8HCgdWc7QuuI7hcrsmwORUMjx5xtjdy2C2TNt0CmzVLk5ibk0OOS+7ZPQmCSZlJaY0KfYbcKDkasHTGFEaDNNbQMY0jAjtShOCSBvzgLJPmyaTBu77SpNzyTEvPpJbZXrR45/8Ed03QqZN0lFPnZZqYYQnThaQYlyhO2w25RSUpAwBgRmpSTJxQK0iwrTpMz7bT6LLtvg7EpEETbYQlRLYTr94A5joKUk6iBnoYoDCTmI5SbJxQruL9q2xOyftczSWHJkjBVpCdoIOHFHk6bbaZSXl0MsqTgpA5gxwcV3AuWba/agrtVoJojAP7Ihtyaq7A49m2i0mQpSHESTCWkrVqISMZMSUWHKK8YT232aIvFRYcov0iE0Y/wA4ibtX2dBmCP2Ylj1ED1+O9nb7o8QY0q7kTRA8KmgWVzHVRMH6TviAzha1pogPUn+cGg8YO+W5FJaLgRUVFGMGgiosTF4tjfyifBWiMuJzRTHiNu7Atwx7zs0rxV/CCC71lFEdIO+IgOFm6X1eJhuC/tNkXkOkdYyjERlCi8llcoqLdIvEXkhZWyTHDXDppb6v9h/KO4jaI6vnFKmPDQY0r/IgB8OgPpSYWpSgNXIJzmJLiTZK7zdpqjOqZZlHSsoKfe5fyjj4YjM2+r/fDFIB3I5HaNrpPmBrYG3lYVIuiUkWKgkD2NaVoWBucHOIh+LdjzdftaRk6A22H5JzU1rIGNgOsMvSkjcDxi+B4RkrZKWycEKu7uEtMumly8zNrVJ1lloJE0ydwfgOcCUnwDqr02ymuXzO1OnjGphxvRqHhzj0EAN4xUhKhukHHKI7W12TigclbapMhbKqJLyrYlUNFBQU7HIO8efJDg9OTl11Fq2rkmKOyVkFCE5HPluY9PTu0m75Jhf8Osm6qhnfvnHrDFM5e3LQPHsk+Htp1C3bRdo9Rqrk+84laS8rnvmNfC2xU2W1UEonVTRnZntyVJxp2xj8IOQkZOIuB3YW5F8SwMUMRfA8IuBtGe3s0MT1jgrx00t//gfyMSMRlxHFKf8A+B/KDrb5AsC+FQzNTSv/ANQ/nDGGIX3CZIzNqI++fzhhARre25EiVtFbRWIrEYdhFjziukXioogB8Vh/ZGj4EfnE5ZCtdDZPPYRF8T0A0wKI5H+cSFgHNBbPlDjX9nYLYSARfEWTF4VCKxFjF4sYp+CGMc9TTqkXR/tjpxGif3knMeEXB6kiMXXDg6K5Op/3n8zDNSdoWNhd25ZxP+7+Jhmp3EMZX5AxZfMVmKxFYhXTCKJiw5RciLDlE/0yGDneTjxhaSv2HElaR1H8IZp6wsqj9lxCStO2QIaxlzTQLYzW90D4RliNUoSWUk9RG6F2uy14LYisReKitFmHjEPeCc0CY/4GJg8sxFXQnVRJkf7IKrqYIPcNHiqRU3nkr+MG/WF3wvUfaH0E7BXKGInrGuQkpForMVmL4isQvxRZbaMfvRniMcYJi0kib0RNyyYnaS62RnYwJcL5jsnHpNR90mD6bTlhY8QYWNs5k71dZBwlROwhuhuUGmD3saCDgAHqY2YjEAZEbIS47bCMcDwisjxjLEWwPCLUUQwI1bZxAJxPlsrlXRtpXB7gcwIEOIzeqWbPgY2oepdFN6Jy31B2mtKznuxjWaJJ1JhTbrac+OI57NWVUdG/IROADwiSnKE9oHqXkS9wWnU6RNlyQ1LZBycRokqghWWpjuuDYw6XZdt0KQsApPMQB3jZDL+uakdLK8Z22zHXxPUE/tmJZGKp/iQCVAjUg5jJJyOW8QDM6/TZsyc4CcHGoHMTcs8HWso3Sep5x2E1JbRxZ0Sg9G2KikjPMxWnT1Ji9GL6KiorpFARNMhUUd4rEVpERJE6MVJSQQUjEcM3S2H0nugGJDEViLjKUPDB4x+QVmreWMqb8Yi36ZMNZ1N5xB9841rZQsd5IMOV5k4+SaS8C3dYBB1N4IjlWy+hJ7F0p+cMKepMu6glLaUnyiAnaItvJSoesMqym3yuzSNtkfDBBSJlMyhx0qcAO8GtGqVGDSQ+yNQG+REI6wpslCukaFS7ZGRsYG7AjdH7RqvOlHyMmlvUt9GZZaUnzESTRA91YUemBChbVOyfebmFY8MxNUm7JuXIQ8kqT13jzmT6NNLaZ1qs2MxoS09MMnZzYeETdOuPB0PJOAOZgDpNdlZxA7qwT5RLpIWjIOR0jg24s63pjcZJ9jClKnLTAGFJB+MdiVJVyIPwMLRDrrScpVjHhEpTK280oJUVKGOsL770F0zLis6PodDIAyV+MTdksFqgS6Ske6OsAV91b22Zl2SDjUNoYtrrQKOwAfujpDli41IpLs//2Q==;" vertex="1" parent="1">
          <mxGeometry x="260" y="370" width="1070" height="495" as="geometry" />
        </mxCell>
        <mxCell id="uteo5q_6kZzFRhe3ERCt-2" value="" style="shape=image;verticalLabelPosition=bottom;labelBackgroundColor=default;verticalAlign=top;aspect=fixed;imageAspect=0;image=https://dic.academic.ru/pictures/wiki/files/50/220px-Konigsburg_graph.svg.png;" vertex="1" parent="1">
          <mxGeometry x="1620" y="370" width="625" height="500" as="geometry" />
        </mxCell>
        <mxCell id="uteo5q_6kZzFRhe3ERCt-4" value="" style="shape=flexArrow;endArrow=classic;html=1;rounded=0;endWidth=80.76923076923076;endSize=34.23636363636363;width=43.63636363636363;fillColor=#dae8fc;strokeColor=#6c8ebf;" edge="1" parent="1">
          <mxGeometry width="50" height="50" relative="1" as="geometry">
            <mxPoint x="1356" y="616.5899999999999" as="sourcePoint" />
            <mxPoint x="1610" y="617" as="targetPoint" />
          </mxGeometry>
        </mxCell>
      </root>
    </mxGraphModel>
  </diagram>
</mxfile>
